<svg width="56" height="56" viewBox="0 0 56 56" fill="none" xmlns="http://www.w3.org/2000/svg">
<rect width="56" height="56" rx="8" fill="#FFC222"/>
<path d="M21.89 35.7695V20.2305C21.89 19.9342 21.945 19.6549 22.055 19.3926C22.1735 19.1302 22.3301 18.9017 22.5248 18.707C22.7194 18.5039 22.9479 18.3473 23.2103 18.2373C23.4727 18.1188 23.752 18.0596 24.0482 18.0596C24.4629 18.0596 24.8565 18.1781 25.2289 18.415L37.3148 26.1719C37.628 26.3665 37.8692 26.6289 38.0384 26.959C38.2162 27.2806 38.305 27.6276 38.305 28C38.305 28.3724 38.2162 28.7236 38.0384 29.0537C37.8692 29.3753 37.628 29.6335 37.3148 29.8281L25.2289 37.585C24.8819 37.8135 24.4925 37.9277 24.0609 37.9277C23.7647 37.9277 23.4811 37.8727 23.2103 37.7627C22.9479 37.6527 22.7194 37.5003 22.5248 37.3057C22.3301 37.111 22.1735 36.8825 22.055 36.6201C21.945 36.3577 21.89 36.0742 21.89 35.7695ZM24.0609 20.2305V35.7695L36.1341 28L24.0609 20.2305Z" fill="white"/>
</svg>
