<svg width="56" height="56" viewBox="0 0 56 56" fill="none" xmlns="http://www.w3.org/2000/svg">
<rect width="56" height="56" rx="8" fill="#4C6E55"/>
<path d="M21.8265 41C21.4033 41 20.9971 40.9154 20.6078 40.7461C20.2269 40.5684 19.8884 40.3356 19.5921 40.0479C19.3044 39.7516 19.0716 39.4131 18.8939 39.0322C18.7246 38.6429 18.64 38.2367 18.64 37.8135V18.1865C18.64 17.7633 18.7246 17.3613 18.8939 16.9805C19.0716 16.5911 19.3044 16.2526 19.5921 15.9648C19.8884 15.6686 20.2269 15.4359 20.6078 15.2666C20.9971 15.0889 21.4033 15 21.8265 15H34.9535C35.3767 15 35.7787 15.0889 36.1595 15.2666C36.5489 15.4359 36.8874 15.6686 37.1752 15.9648C37.4714 16.2526 37.7041 16.5911 37.8734 16.9805C38.0511 17.3613 38.14 17.7633 38.14 18.1865V36.125C38.14 36.3535 38.0977 36.5651 38.013 36.7598C37.9284 36.9544 37.8099 37.1279 37.6576 37.2803C37.5137 37.4242 37.3444 37.5384 37.1498 37.623C36.9551 37.7077 36.7435 37.75 36.515 37.75H20.265C20.265 37.9785 20.3073 38.1943 20.392 38.3975C20.4766 38.5921 20.5908 38.7614 20.7347 38.9053C20.8786 39.0492 21.0479 39.1634 21.2425 39.248C21.4457 39.3327 21.6615 39.375 21.89 39.375H37.3275C37.5476 39.375 37.738 39.4554 37.8988 39.6162C38.0596 39.777 38.14 39.9674 38.14 40.1875C38.14 40.4076 38.0596 40.598 37.8988 40.7588C37.738 40.9196 37.5476 41 37.3275 41H21.8265ZM20.265 36.125H36.515V18.25C36.515 18.0299 36.4727 17.8226 36.388 17.6279C36.3034 17.4248 36.1849 17.2513 36.0326 17.1074C35.8887 16.9551 35.7152 16.8366 35.5121 16.752C35.3174 16.6673 35.1101 16.625 34.89 16.625H21.89C21.6615 16.625 21.4499 16.6673 21.2552 16.752C21.0606 16.8366 20.8871 16.9551 20.7347 17.1074C20.5908 17.2513 20.4766 17.4206 20.392 17.6152C20.3073 17.8099 20.265 18.0215 20.265 18.25V36.125ZM25.9525 23.9375C25.9525 23.6074 26.016 23.2943 26.1429 22.998C26.2699 22.7018 26.4434 22.4437 26.6634 22.2236C26.892 21.9951 27.1543 21.8174 27.4505 21.6904C27.7468 21.5635 28.0599 21.5 28.39 21.5C28.7201 21.5 29.0332 21.5635 29.3295 21.6904C29.6257 21.8174 29.8838 21.9951 30.1039 22.2236C30.3324 22.4437 30.5101 22.7018 30.6371 22.998C30.764 23.2943 30.8275 23.6074 30.8275 23.9375C30.8275 24.2676 30.764 24.5807 30.6371 24.877C30.5101 25.1732 30.3324 25.4355 30.1039 25.6641C29.8838 25.8841 29.6257 26.0576 29.3295 26.1846C29.0332 26.3115 28.7201 26.375 28.39 26.375C28.0599 26.375 27.7468 26.3115 27.4505 26.1846C27.1543 26.0576 26.892 25.8841 26.6634 25.6641C26.4434 25.4355 26.2699 25.1732 26.1429 24.877C26.016 24.5807 25.9525 24.2676 25.9525 23.9375ZM26.7015 32.875C26.2783 32.875 25.8721 32.7904 25.4828 32.6211C25.1019 32.4434 24.7634 32.2106 24.4671 31.9229C24.1794 31.6266 23.9466 31.2881 23.7689 30.9072C23.5996 30.5179 23.515 30.1117 23.515 29.6885V29.2188C23.515 28.8802 23.6335 28.5924 23.8705 28.3555C24.1074 28.1185 24.3952 28 24.7338 28H32.0463C32.3848 28 32.6726 28.1185 32.9095 28.3555C33.1465 28.5924 33.265 28.8802 33.265 29.2188V29.625C33.265 30.0566 33.1804 30.4714 33.0111 30.8691C32.8418 31.2585 32.6133 31.6012 32.3255 31.8975C32.0378 32.1937 31.6992 32.4307 31.3099 32.6084C30.9291 32.7861 30.5186 32.875 30.0785 32.875H26.7015Z" fill="white"/>
</svg>
