<svg width="174" height="53" viewBox="0 0 174 53" fill="none" xmlns="http://www.w3.org/2000/svg">
<g clip-path="url(#clip0_1_1476)">
<path d="M31.2669 17.2378C31.3451 17.2761 31.4292 17.3114 31.5074 17.3437C32.8669 17.8941 34.5683 17.9471 36.1799 17.4821C36.3161 17.4438 36.4466 17.4026 36.5741 17.3643C37.0089 17.2319 37.4147 17.1142 37.8089 17.0229C36.7538 16.8258 35.2031 16.452 34.2495 15.8398C33.3045 15.2482 32.1132 15.1158 31.1944 15.1364C31.3045 15.4572 31.2582 15.7397 31.2002 15.931C31.4147 16.2518 31.4263 16.5815 31.4002 16.7993C31.3799 16.97 31.3277 17.1142 31.264 17.2407L31.2669 17.2378Z" fill="#FAFAFA"/>
<path d="M39.348 16.8757C39.4698 16.8816 39.6002 16.8963 39.7364 16.914C39.748 16.9199 39.7683 16.9199 39.7828 16.9258C40.0814 16.9846 40.3509 17.0759 40.6118 17.2024C41.2263 17.5056 41.5364 17.9588 41.8408 18.3973C42.3132 19.0684 42.8379 19.8041 44.3828 20.3486H44.3886C44.4669 20.3486 44.5248 20.3486 44.577 20.3545C44.0582 19.9484 43.348 19.192 43.2321 18.0618C43.1596 17.4437 43.2002 16.9199 43.2524 16.3931V16.3666C43.3161 15.5337 43.348 15.0716 42.7741 14.7714C42.264 14.5006 41.635 14.6066 40.9683 14.7184C40.348 14.8302 39.6814 14.9421 39.035 14.792C38.3306 14.6213 38.0263 14.068 37.7277 13.5294C37.3973 12.9437 37.093 12.4139 36.3248 12.2344C35.7567 12.102 35.2843 12.2079 34.7074 12.4169C34.7074 12.4228 34.6959 12.4286 34.6611 12.4375C34.5451 12.4757 34.4292 12.5287 34.3045 12.5758C34.0379 12.6876 33.8205 12.773 33.5857 12.8525C33.5741 12.8525 33.5654 12.8583 33.5596 12.8583C33.3915 12.9172 33.1973 12.9702 32.9828 13.0232C32.8727 13.0438 32.8524 13.0438 32.8408 13.0438C32.5161 13.1085 32.1944 13.135 31.864 13.1232C31.8437 13.6618 31.4553 14.1151 30.9335 14.6272C30.9712 14.6743 31.006 14.7243 31.0292 14.7714C32.0263 14.739 33.377 14.8508 34.4379 15.5189C35.7973 16.3783 38.5335 16.7815 39.0698 16.8522C39.1741 16.8522 39.2582 16.8581 39.348 16.8728V16.8757Z" fill="#FAFAFA"/>
<path d="M45.3451 20.4312C45.3451 20.4312 45.3567 20.4371 45.3654 20.4371C45.6553 20.4901 45.9161 20.5813 46.1422 20.699C46.148 20.7049 46.1538 20.7049 46.1625 20.7108C46.2727 20.7697 46.377 20.8491 46.4466 20.9021C46.4669 20.9139 46.4785 20.9286 46.4929 20.9404C47.1973 21.5643 47.7277 22.4443 48.0205 23.0153C48.0263 22.4973 47.9828 22.097 47.8843 21.8851C47.806 21.7409 47.606 21.4701 47.3335 21.1228C46.6814 20.2811 45.7944 19.1333 45.6785 18.1267C45.6524 17.9178 45.6408 17.6853 45.6263 17.4557L45.6147 17.2585C45.5567 16.0901 45.4987 14.8922 44.4495 14.2182C43.493 13.6061 42.3741 13.5943 41.5567 13.5884H41.519C41.1886 13.5884 40.8987 13.5884 40.6785 13.5502C40.2263 13.4648 39.864 12.7761 39.435 11.9815L39.4089 11.9285C39.0089 11.1809 38.548 10.3392 37.9654 9.84474C37.9596 9.84474 37.9538 9.83886 37.9451 9.83297C37.8727 9.80648 37.8031 9.78588 37.7393 9.77411C37.2553 9.72113 36.6408 9.98307 36.0958 10.2156C35.6958 10.3863 35.3712 10.5187 35.1393 10.5305C35.0814 10.5305 35.0234 10.5305 34.9654 10.5364C34.2669 10.5894 32.8292 10.6865 31.4987 9.15605C31.2524 8.87351 30.9567 8.70281 30.6176 8.62923C30.5915 8.62334 30.5654 8.60863 30.5451 8.59685C30.5248 8.57037 30.5074 8.54976 30.4872 8.5321C30.4089 8.93237 30.2553 9.61518 30.2408 9.72113C30.1712 10.3215 30.1219 10.5923 30.0987 10.6953C30.0901 10.7336 30.0901 10.7718 30.0987 10.8101C30.2408 11.3987 30.8031 11.7107 30.9973 11.8166C31.0437 11.8431 31.0756 11.8637 31.1016 11.8755L31.1219 11.8873L31.1277 11.8932C31.3538 12.0374 31.7045 12.2669 31.8263 12.7349C32.7915 12.7879 33.5074 12.4995 34.1567 12.2434C34.2785 12.1963 34.3973 12.1522 34.5132 12.1051L34.6089 12.0727C35.1393 11.8814 35.7219 11.7254 36.4089 11.8814C37.3277 12.0845 37.7016 12.7496 38.0321 13.3265C38.3103 13.8386 38.5625 14.2977 39.1132 14.4301C39.6958 14.5685 40.3219 14.4625 40.8727 14.3654C41.577 14.2418 42.3016 14.1152 42.9422 14.4508C43.7451 14.8657 43.6872 15.5544 43.6147 16.4285C43.5683 16.9083 43.5306 17.4263 43.5944 18.0178C43.7567 19.5748 45.2176 20.3635 45.3422 20.4283H45.348L45.3451 20.4312Z" fill="#FAFAFA"/>
<path d="M48.4899 0H27.4V1.78648L27.4725 1.81886L27.5044 1.83063C28.1768 2.14555 28.7971 2.61351 29.4725 3.3022C29.8928 3.73484 30.229 4.28815 30.4551 4.9327L30.4754 4.98567L30.487 5.03865C30.6174 5.59785 30.6754 6.20707 30.6609 6.85162C30.6551 7.36373 30.5971 7.84346 30.5305 8.24961C31.029 8.31436 31.4435 8.54393 31.7652 8.91182C32.9739 10.3039 34.287 10.2127 34.916 10.1744C34.9536 10.1685 34.9942 10.1685 35.0261 10.1626H35.1044C35.3044 10.1568 35.6232 10.0184 35.9594 9.87422C36.5421 9.62406 37.2087 9.34151 37.7826 9.41509C37.8667 9.42098 37.9623 9.45335 38.0725 9.49456C38.0725 9.49456 38.0783 9.49456 38.0841 9.50044C38.0957 9.50044 38.116 9.50633 38.1305 9.52105C38.1363 9.52105 38.1421 9.52105 38.1507 9.52693C38.3247 9.60051 38.5131 9.72412 38.7189 9.90071C38.7768 9.9478 38.8406 9.99783 38.9073 10.0596C38.945 10.0979 38.9913 10.1391 39.0377 10.1774L39.0957 10.2362C39.2841 10.4128 39.4638 10.5982 39.6377 10.7866L39.6899 10.8396C39.9797 11.1339 40.2522 11.4164 40.4145 11.49C40.9073 11.7196 41.171 11.7725 41.7797 11.6224C42.4667 11.4517 44.0957 11.3723 44.7102 11.7667C45.0725 11.9962 45.6493 12.7909 46.4319 14.1388L46.4377 14.1594C46.6377 14.2389 47.1421 14.4949 47.6551 15.1572C47.7594 15.2955 47.8435 15.4397 47.8957 15.5986L47.9015 15.6045C48.1739 15.8076 49.3623 16.7347 49.7971 17.5764C50.2377 18.4505 51.3681 20.9581 51.3681 22.2531C51.3681 22.2854 51.3681 22.3119 51.3623 22.3384C51.3305 23.086 51.116 23.81 50.9044 24.5075C50.7884 24.8813 50.6783 25.2433 50.6145 25.5729H50.2841C50.316 25.2374 50.4725 24.687 50.5565 24.4045C50.7623 23.7276 50.9768 23.0242 51.0029 22.3207C51.0029 22.2943 51.0087 22.2678 51.0087 22.2413C51.0087 21.0405 49.8754 18.5418 49.4754 17.7412C49.1971 17.1967 48.5044 16.5728 48.058 16.1961C48.1305 16.5846 48.1478 17.0113 48.1739 17.4587L48.1797 17.5234C48.2058 18.0355 48.2319 18.5418 48.316 19.0009C48.3739 19.3305 48.4725 19.7632 48.6 20.3135C48.8783 21.529 49.2087 22.98 49.2667 24.0896C49.287 24.3662 49.2783 24.6164 49.2609 24.8371C49.229 25.1668 49.1392 25.4758 48.9942 25.7495C48.8261 26.1056 48.5739 26.4058 48.2493 26.6442C48.1913 26.6913 48.1131 26.7413 48.029 26.7884C47.5247 27.0916 46.9363 27.1887 46.3797 27.071C46.1392 27.018 45.9334 26.9209 45.7536 26.7767C45.487 26.5589 45.2957 26.2263 45.1913 25.8113C45.0754 26.0732 44.9594 26.3882 44.9334 26.6913C44.9218 26.8414 44.9218 27.0386 45.0116 27.1975C45.0319 27.2358 45.058 27.2711 45.0841 27.3035C45.6145 27.9156 46.8638 28.1629 47.4145 28.0275H47.4348C47.4348 28.0275 47.4406 28.0216 47.4464 28.0216C47.4928 28.0098 47.5421 28.0216 47.5826 28.0422C47.629 28.0687 47.6551 28.1158 47.6667 28.1599C47.6783 28.1864 47.687 28.2571 47.6203 28.3306C47.6087 28.3365 47.6 28.3424 47.5884 28.3512C47.5768 28.363 47.5507 28.3777 47.5305 28.3836C47.5189 28.3895 47.4928 28.3895 47.4783 28.3895C47.3218 28.4278 47.1363 28.4366 46.9218 28.4219C46.2232 28.3895 45.3044 28.107 44.8116 27.5536C44.7218 27.4477 44.6551 27.3359 44.6174 27.1975C44.5652 27.0474 44.5536 26.8679 44.571 26.6648C44.5971 26.344 44.7015 26.0203 44.8174 25.7524C44.9739 25.3787 45.1478 25.1138 45.1478 25.1079L45.2435 24.949C45.2696 24.896 45.3334 24.8754 45.3855 24.8901C45.4435 24.9107 45.4812 24.9637 45.4812 25.0137V25.0196L45.4754 25.2168C45.4754 25.2963 45.4812 25.5052 45.5392 25.7495C45.6116 26.0379 45.7652 26.3676 46.0899 26.5589C46.1942 26.6324 46.3102 26.6766 46.458 26.709C46.8667 26.7943 47.2928 26.7413 47.687 26.55C47.8087 26.4971 47.9276 26.4264 48.0435 26.3411C48.2638 26.1763 48.4435 25.9791 48.5797 25.7495C48.7536 25.4728 48.858 25.152 48.8957 24.7959C48.916 24.5928 48.916 24.3486 48.9015 24.0866C48.8435 23.0094 48.5131 21.5585 48.2551 20.4342L48.1826 20.1252C48.0928 19.7102 48.0087 19.357 47.9565 19.0598C47.8667 18.58 47.8406 18.0679 47.8145 17.5676C47.7826 16.8436 47.7363 16.2343 47.5739 15.7752C47.516 15.6163 47.4522 15.4868 47.3681 15.3808C46.9334 14.8157 46.5276 14.598 46.371 14.5332C46.3594 14.5273 46.345 14.5214 46.3334 14.5067C46.3131 14.5008 46.2812 14.4949 46.2754 14.4861C46.2551 14.4861 46.2493 14.4802 46.2377 14.4802C46.2058 14.4685 46.1797 14.442 46.1652 14.4067L46.1392 14.3684C45.4261 13.1264 44.8203 12.267 44.516 12.0698C44.0232 11.749 42.5044 11.8137 41.8638 11.9727C41.2174 12.1375 40.8609 12.1051 40.2667 11.8285C40.0348 11.7166 39.7305 11.4017 39.3797 11.0397C39.3421 11.0014 39.3015 10.9544 39.2638 10.9161C39.4261 11.1986 39.5884 11.5018 39.7479 11.802C40.0986 12.4524 40.4609 13.1352 40.7392 13.1882C40.9276 13.2206 41.1971 13.2206 41.5218 13.2206H41.5536C42.4145 13.2265 43.5971 13.2412 44.6406 13.9181C45.8493 14.6863 45.916 16.0401 45.9797 17.235C45.9913 17.5382 46.0058 17.8119 46.0319 18.0885C46.1363 18.9832 47.029 20.1311 47.6174 20.8933L47.6551 20.9404C47.9131 21.2759 48.1131 21.5438 48.2058 21.7292C48.4725 22.2737 48.3681 23.4185 48.3363 23.7599L48.3044 23.9689C48.2986 24.0278 48.2522 24.0749 48.1942 24.0807C48.1363 24.0866 48.0841 24.0543 48.058 24.0013L47.9855 23.8247C47.9855 23.8247 47.9797 23.8041 47.9797 23.7923C47.8493 23.4892 47.2348 22.0912 46.2667 21.223C46.2551 21.2171 46.2348 21.2024 46.229 21.1965C46.2174 21.1847 46.2087 21.1759 46.2029 21.1641C45.9884 20.9993 45.6783 20.8698 45.2986 20.7844H45.2928C45.2667 20.7903 45.2406 20.7844 45.2145 20.7727C45.2087 20.7785 45.2087 20.7727 45.2029 20.7727C45.2029 20.7727 45.1991 20.7707 45.1913 20.7668C44.9913 20.7403 44.8087 20.7197 44.6348 20.7197C44.6232 20.7197 44.6029 20.7197 44.5768 20.7138H44.4087C44.4087 20.7138 44.3826 20.7197 44.371 20.7197C43.8986 20.7256 43.3623 20.7933 42.7855 20.911C42.3971 20.9904 42.1131 21.0758 42.0232 21.1023C42.0029 21.1082 41.9913 21.1082 41.9855 21.1141C41.7797 21.1729 41.3131 21.2318 40.7623 21.2789C40.7421 21.2848 40.7305 21.2848 40.716 21.2848C39.3884 21.4025 37.0812 21.482 36.0783 21.2318C35.7942 21.1582 35.4696 21.067 35.1652 20.9757C34.7305 20.8374 34.1623 20.6726 33.5855 20.549C32.771 20.3636 32.0783 20.3135 31.458 20.3724H31.4116C31.2493 20.393 31.0957 20.4195 30.9392 20.4577L30.7826 20.496C30.7826 20.496 30.7623 20.5019 30.7507 20.5019C30.5623 20.5549 30.3884 20.6137 30.2261 20.6785C30.1739 20.6991 30.1218 20.6844 30.0841 20.6461C30.058 20.6196 30.0522 20.5872 30.0522 20.5549C30.0522 20.5225 30.0522 20.5166 30.0638 20.496C30.0754 20.4695 30.0841 20.443 30.0899 20.4165C30.0899 20.3636 30.1218 20.3312 30.1681 20.3106C30.2899 20.2576 30.4145 20.2193 30.5363 20.187C30.5884 20.1664 30.6406 20.1546 30.7044 20.1399C30.7363 20.134 30.7768 20.1193 30.8145 20.1075L30.8522 20.1016C30.9884 20.0751 31.1247 20.0486 31.2609 20.0369L31.4029 20.0163C32.0696 19.9427 32.7739 19.9957 33.6348 20.1811C33.6986 20.2017 33.745 20.2076 33.7971 20.2193C34.316 20.3371 34.7942 20.4813 35.2203 20.6078L35.5826 20.7138C35.7884 20.7727 35.9826 20.8315 36.1652 20.8786C36.9102 21.0611 38.5971 21.0493 39.9189 20.9698C40.1971 20.9492 40.4609 20.9375 40.7015 20.9169C41.2696 20.8698 41.7247 20.8109 41.8783 20.7579C41.8899 20.7579 41.9044 20.7521 41.916 20.7521L41.9218 20.7462C42 20.7256 42.1536 20.6814 42.3681 20.6284C42.4725 20.602 42.5884 20.5755 42.7247 20.549L42.8348 20.5284C42.945 20.5019 43.0667 20.4813 43.1913 20.4695C43.2029 20.4636 43.2174 20.4636 43.229 20.4577C43.2812 20.4577 43.3334 20.446 43.3913 20.4371L43.429 20.4313C43.4754 20.4254 43.5247 20.4195 43.5768 20.4107C42.4174 19.8603 41.9392 19.1745 41.545 18.6095C41.2406 18.168 40.9768 17.7942 40.458 17.544C40.2174 17.4263 39.9739 17.341 39.7218 17.288C39.7015 17.288 39.6754 17.2821 39.658 17.2762C39.4435 17.2438 39.258 17.2232 39.0812 17.2232H39.0754C38.3305 17.2232 37.5884 17.4469 36.7131 17.703L36.2783 17.8354C34.5971 18.321 32.8029 18.268 31.3739 17.6853C31.2783 17.647 31.1739 17.6 31.0696 17.5411C30.9073 17.7118 30.7189 17.8295 30.5594 17.909C30.6435 18.4358 30.5131 19.0127 30.2029 19.46C29.7942 20.0369 29.1276 20.3606 28.3334 20.3606C28.1768 20.3606 28.0174 20.3488 27.8551 20.3282C27.7826 20.3224 27.6754 20.3018 27.4029 20.237V25.7554H34.029L34.0087 26.6736C33.8087 27.4683 33.658 28.0864 33.6464 28.2247C33.6261 28.3571 33.6203 28.4807 33.6203 28.5985C33.6203 29.8611 34.6551 30.0906 35.1421 29.9111C35.1942 29.8993 35.2783 29.814 35.4986 29.8257C35.9392 29.8581 35.7971 30.7322 36.3392 30.8058H36.3855C36.7536 30.8058 36.9536 30.1671 36.9681 30.1613C36.9681 30.173 37.0261 30.3643 37.1565 30.5027C37.1768 30.5233 37.1942 30.5409 37.2203 30.5615C37.3044 30.6351 37.4087 30.6793 37.5363 30.6469C37.6261 30.6351 37.7247 30.5821 37.8406 30.4821C37.9305 30.4085 38.0232 30.3055 38.1247 30.1671C38.229 30.0229 38.4812 30.1465 38.6754 30.2643C38.7971 30.3379 39.5565 31.2885 39.9102 31.2679C40.0841 31.2561 40.1623 31.1296 40.2986 30.9206C40.3826 30.7823 40.8754 29.6727 42.0377 29.4696C42.2522 29.4314 42.9623 29.5815 43.2928 29.6197C42.7565 29.3254 42.2 28.8104 41.8232 27.8803C41.8174 27.8597 41.8116 27.8274 41.8116 27.8068C41.8116 27.7332 41.8493 27.6684 41.9218 27.6361C42.0174 27.5978 42.1218 27.6419 42.1623 27.7332C42.7305 29.1488 44.3913 29.7374 44.6754 29.8787C44.7189 29.8993 44.7565 29.914 44.8058 29.9229C45.1623 29.9817 45.5884 30.0259 46.0377 30.0406C46.5421 30.0524 47.0783 30.0141 47.5971 29.8905C48.0551 29.7198 48.5015 29.4696 48.8783 29.0958C49.5131 28.4572 49.8928 27.9068 50.1392 27.3682V27.3565C50.2029 27.1445 50.2493 26.9179 50.2754 26.6707V26.5912C50.2812 26.5589 50.2812 26.5177 50.2812 26.4941V25.7524H52.7652V4.33818C52.7652 1.94247 50.8522 0.00294314 48.4957 0.00294314L48.4899 0Z" fill="#FAFAFA"/>
<path d="M29.8087 16.099C29.8087 16.099 30.0116 16.0401 30.1449 15.9047C30.1797 15.8753 30.2087 15.8341 30.2377 15.7929C30.2435 15.787 30.2435 15.7811 30.2493 15.7752C30.2667 15.734 30.2841 15.6987 30.2957 15.6575C30.2957 15.6516 30.2899 15.6457 30.2899 15.6398C30.3015 15.5398 30.2841 15.4279 30.1913 15.2925C30.1101 15.1807 29.9942 15.0571 29.8145 14.9158C29.6696 14.8157 29.7971 14.5568 29.913 14.3566C29.9826 14.233 30.9217 13.4619 30.9044 13.097C30.8928 12.9204 30.771 12.8438 30.5623 12.7026C30.4232 12.6202 29.3275 12.1139 29.1246 10.9308C29.0899 10.713 29.1246 10.6071 29.171 10.454C29.1826 10.4246 29.2348 9.989 29.2754 9.65349C28.9855 10.2009 28.4754 10.766 27.5536 11.1486C27.5362 11.1545 27.5015 11.1604 27.4841 11.1604C27.4145 11.1604 27.3449 11.1192 27.3159 11.0485C27.2754 10.9485 27.3217 10.8425 27.4145 10.8072C28.7768 10.2421 29.3623 8.62339 29.5188 8.27021C29.5536 8.19958 29.571 8.12894 29.5826 8.05242C29.6406 7.69924 29.687 7.28721 29.6928 6.85751C29.7044 6.33952 29.6638 5.79209 29.542 5.26821C29.3739 4.79731 29.1246 4.34407 28.7536 3.96146C28.1275 3.31397 27.5826 2.92548 27.0493 2.67825C27.0493 2.67825 27.0454 2.67629 27.0377 2.67237C26.829 2.61351 26.6029 2.56641 26.3594 2.53698H26.2841C26.2493 2.5311 26.2087 2.5311 26.1855 2.5311H25.4493V2.52521C25.4029 2.5311 25.3391 2.52521 25.2696 2.51932C24.9333 2.47812 24.3942 2.33096 24.1159 2.24856C23.4435 2.03665 22.7478 1.81886 22.058 1.79531C22.029 1.79531 22.0058 1.78943 21.9768 1.78943C20.7884 1.78943 18.3246 2.94314 17.5304 3.34929C16.9913 3.63183 16.3768 4.33818 16.0058 4.79143C16.3884 4.72079 16.8116 4.70313 17.2522 4.6737L17.3159 4.66781C17.8203 4.63838 18.3246 4.61484 18.7768 4.52654C19.1015 4.46768 19.5304 4.3735 20.0754 4.23812C21.2754 3.95558 22.713 3.62006 23.8087 3.5612C24.0812 3.53765 24.3304 3.54942 24.5507 3.56708C24.8754 3.6024 25.1768 3.69069 25.4493 3.83785C25.8029 4.00855 26.0986 4.26755 26.3362 4.59718C26.3768 4.65604 26.429 4.73256 26.4754 4.82086C26.7768 5.33296 26.8754 5.93336 26.7536 6.49845C26.7015 6.74567 26.6087 6.95757 26.4638 7.14005C26.2493 7.41082 25.9188 7.60506 25.5072 7.71102C25.7681 7.83463 26.0812 7.95235 26.3768 7.9759C26.5275 7.98767 26.7246 7.98767 26.8812 7.89938C26.9159 7.87583 26.9507 7.85229 26.9855 7.82286C27.5884 7.28721 27.8319 6.00988 27.6986 5.45069V5.43303C27.6986 5.43303 27.6928 5.42714 27.6928 5.42126C27.6754 5.37417 27.6928 5.32119 27.7101 5.27999C27.7391 5.2329 27.7797 5.20935 27.8261 5.19758C27.8551 5.17992 27.9246 5.17403 27.9942 5.23878C28 5.25644 28.0116 5.26233 28.0174 5.2741C28.029 5.28587 28.0406 5.3153 28.0464 5.33296C28.0522 5.34474 28.0522 5.37417 28.0522 5.38594C28.0928 5.54487 28.0986 5.73323 28.087 5.95102C28.0522 6.66326 27.7739 7.59918 27.229 8.09951C27.1246 8.19369 27.0145 8.25844 26.8812 8.29964C26.7304 8.35262 26.5565 8.36439 26.3536 8.34673C26.0348 8.3173 25.7159 8.21135 25.4493 8.09363C25.0841 7.9347 24.8232 7.75811 24.8174 7.75811L24.6609 7.65804C24.6087 7.6345 24.5855 7.56975 24.6029 7.51677C24.6203 7.45791 24.6725 7.4167 24.7246 7.4167H24.7304L24.9275 7.42259C25.0029 7.42259 25.2116 7.4167 25.4493 7.35784C25.7391 7.28721 26.0638 7.12828 26.2493 6.79865C26.3188 6.69269 26.3652 6.57497 26.4 6.42192C26.4812 6.004 26.429 5.56841 26.2435 5.16815C26.1913 5.04454 26.1217 4.92681 26.0348 4.8032C25.8725 4.57952 25.6812 4.39705 25.4493 4.25578C25.1768 4.07919 24.858 3.97323 24.5101 3.93792C24.3072 3.91437 24.0696 3.91437 23.8087 3.92614C22.742 3.99089 21.3101 4.32641 20.1971 4.58541L19.8957 4.66193C19.4841 4.75022 19.1362 4.83852 18.8406 4.89149C18.3652 4.98567 17.8609 5.00922 17.3681 5.03865C16.6551 5.06808 16.0522 5.11517 15.5942 5.27999C15.4377 5.33885 15.3101 5.4036 15.2058 5.49189C14.6493 5.93336 14.4348 6.35129 14.371 6.50433C14.3594 6.52199 14.3536 6.53376 14.342 6.54554C14.3362 6.56319 14.3304 6.59851 14.3246 6.6044C14.3246 6.62794 14.3188 6.63383 14.3188 6.6456C14.3015 6.68092 14.2783 6.70446 14.2435 6.71624L14.2087 6.74567C12.9797 7.46968 12.1275 8.08774 11.9362 8.39971C11.6174 8.90004 11.6812 10.4481 11.8377 11.1015C12 11.7608 11.9652 12.1257 11.6928 12.732C11.5826 12.9675 11.2696 13.2794 10.9159 13.6326C10.8754 13.6738 10.829 13.715 10.7884 13.7503C11.0725 13.5855 11.3681 13.4207 11.6696 13.2559C12.313 12.9027 12.9855 12.5319 13.0377 12.2493C13.0725 12.0551 13.0725 11.7784 13.0725 11.4488V11.4194C13.0783 10.5423 13.0899 9.33563 13.7565 8.2761C14.5159 7.03998 15.8551 6.97523 17.0377 6.91048C17.3333 6.89283 17.6058 6.88105 17.8783 6.85751C18.7652 6.75155 19.9015 5.83918 20.6551 5.23878L20.7015 5.20347C21.0319 4.93858 21.2986 4.73256 21.4783 4.63838C22.0174 4.3735 23.1478 4.47357 23.4841 4.50888L23.6928 4.5442C23.7507 4.55009 23.7971 4.59718 23.8029 4.65604C23.8087 4.7149 23.7739 4.76788 23.7217 4.79143L23.5478 4.86795C23.5478 4.86795 23.5304 4.87383 23.5188 4.87383C23.2174 5.00333 21.8377 5.62728 20.9797 6.61617C20.9739 6.63383 20.9565 6.65149 20.9507 6.65737C20.9391 6.66915 20.9333 6.68092 20.9217 6.68681C20.7594 6.9046 20.6261 7.21657 20.5449 7.60506V7.61684C20.5507 7.64038 20.5449 7.66981 20.5275 7.69336C20.5391 7.69924 20.5275 7.69924 20.5275 7.70513C20.5275 7.70513 20.5256 7.70906 20.5217 7.7169C20.4986 7.92292 20.4754 8.11128 20.4754 8.28787C20.4754 8.29964 20.4754 8.3173 20.4696 8.34673V8.51744C20.4696 8.51744 20.4754 8.54098 20.4754 8.55864C20.487 9.03543 20.5507 9.58285 20.6667 10.1715C20.742 10.5659 20.829 10.8602 20.8522 10.9485C20.8638 10.972 20.8638 10.9838 20.8696 10.9897C20.9275 11.2016 20.9855 11.6725 21.0319 12.2376C21.0377 12.2552 21.0377 12.267 21.0377 12.2788C21.1536 13.6326 21.229 15.9871 20.9855 17.0054C20.9101 17.2998 20.8232 17.6294 20.7304 17.9355C20.5971 18.3769 20.4348 18.9597 20.3072 19.5483C20.1275 20.3783 20.0754 21.0846 20.1333 21.7145V21.7616C20.1449 21.8793 20.1623 21.997 20.1913 22.1147C20.2783 22.1265 20.3652 22.15 20.4522 22.1677C20.4812 22.1736 20.5101 22.1854 20.5391 22.1971C21.1652 22.4267 21.6986 22.7563 22.1217 23.186C22.6203 23.6805 23.0087 24.1631 23.3101 24.6811C23.3913 24.8106 23.5768 25.1638 23.6696 25.5288C23.6696 25.5464 23.6754 25.5641 23.6754 25.5759C23.6928 25.6583 23.7044 25.7466 23.7101 25.8407H25.4493V19.0892L26.3594 19.1127C27.1478 19.3129 27.7565 19.4659 27.8899 19.4777C28.0232 19.5012 28.1449 19.5071 28.2609 19.5071C29.5072 19.5071 29.7391 18.4535 29.5594 17.959C29.5478 17.906 29.4609 17.8177 29.4783 17.5941C29.5072 17.1467 30.371 17.2939 30.4464 16.7406V16.6935C30.4464 16.3167 29.8145 16.1107 29.8087 16.099ZM10.058 18.1827C10.0522 18.1415 10.0522 18.1003 10.0464 18.0709V17.9884C10.0406 17.7883 9.90145 17.4646 9.75652 17.1232C9.51304 16.5287 9.23478 15.8458 9.30435 15.2631C9.31015 15.1748 9.34493 15.0747 9.37971 14.9629C9.37971 14.9629 9.37971 14.957 9.39131 14.9511C9.39131 14.9394 9.3971 14.9158 9.4087 14.904C9.4087 14.8982 9.4087 14.8923 9.41449 14.8864C9.48406 14.7098 9.61159 14.5155 9.78551 14.3036C9.83188 14.2448 9.88406 14.18 9.94203 14.1153C9.97681 14.0741 10.0174 14.027 10.058 13.9799L10.1159 13.921C10.2899 13.7327 10.4754 13.5502 10.6609 13.3677L10.713 13.3147C11.0029 13.0204 11.287 12.7438 11.3565 12.579C11.5826 12.0786 11.6348 11.8079 11.4841 11.1898C11.3159 10.4893 11.2406 8.82941 11.629 8.19958C11.8551 7.83463 12.6435 7.246 13.971 6.44547L13.9942 6.43958C14.0696 6.23356 14.3246 5.72146 14.9797 5.20347C15.113 5.09751 15.258 5.00922 15.4145 4.95624L15.4203 4.95036C15.6232 4.6737 16.5391 3.46113 17.3681 3.01966C18.2319 2.5723 20.713 1.41859 21.9884 1.41859C22.0232 1.41859 22.0464 1.41859 22.0754 1.42448C22.8174 1.4598 23.5304 1.6717 24.2203 1.88949C24.5855 2.01311 24.9449 2.12494 25.2696 2.18969C25.3275 2.20735 25.3913 2.21324 25.4493 2.2309V0H4.28406C1.91884 0 0 1.94836 0 4.34996V25.8407H5.69275C5.48986 24.9637 5.46087 24.8283 5.44928 24.7518C5.32754 23.8335 5.57681 23.2449 5.7971 22.9329C5.83768 22.8799 5.97681 22.6975 6.09275 22.5915C6.2029 22.4914 6.30725 22.4208 6.38841 22.3678C6.3942 22.362 6.4058 22.3561 6.41739 22.3502C6.72464 22.1736 7.07826 22.0735 7.43768 22.0735C7.55942 22.0735 7.68696 22.0853 7.8029 22.1088C7.8087 22.0912 7.82029 22.0676 7.83188 22.05C7.92464 21.8498 8.03478 21.6909 8.17391 21.5614C8.37102 21.3789 8.6029 21.273 8.84638 21.2436C8.89275 21.2318 8.93333 21.2318 8.97391 21.2318C10.1797 20.0486 10.0986 18.7949 10.058 18.1827ZM11.9652 18.5947L11.9362 18.5006C11.7449 17.959 11.5884 17.3645 11.7449 16.664C11.9478 15.7281 12.6029 15.3455 13.171 15.01C13.6812 14.7275 14.1333 14.4685 14.2667 13.9093C14.4 13.3147 14.2957 12.679 14.1971 12.1139C14.0754 11.3958 13.9536 10.66 14.2841 10.0067C14.6957 9.18847 15.3739 9.24733 16.2377 9.32386C16.713 9.36506 17.2232 9.40626 17.8087 9.34151C19.3507 9.1767 20.1275 7.68747 20.1913 7.56386V7.55209C20.1913 7.55209 20.1971 7.54032 20.1971 7.53443C20.2493 7.24012 20.342 6.97523 20.458 6.74567C20.4638 6.73978 20.4638 6.72801 20.4696 6.72212C20.5275 6.61028 20.6087 6.50433 20.6609 6.4337C20.6725 6.41604 20.6841 6.39838 20.7015 6.38661C21.3159 5.66848 22.1855 5.12694 22.7478 4.83263C22.2377 4.82674 21.8435 4.87383 21.6348 4.96801C21.4899 5.05042 21.2232 5.25644 20.8812 5.5331C20.0522 6.19825 18.9159 7.09885 17.9188 7.21657C17.7101 7.246 17.4841 7.25777 17.258 7.26955L17.0609 7.28721C15.9072 7.34607 14.7246 7.40493 14.058 8.47035C13.4551 9.44747 13.4377 10.5894 13.4319 11.4194V11.4547C13.4319 11.7961 13.4319 12.0904 13.3971 12.3141C13.3101 12.7732 12.6261 13.144 11.8435 13.5796L11.7913 13.6091C11.0493 14.0152 10.2203 14.4861 9.73333 15.0747C9.73333 15.0806 9.72754 15.0924 9.72174 15.0983C9.69275 15.1689 9.67536 15.2396 9.66377 15.3102C9.61159 15.8046 9.86667 16.4286 10.0986 16.9819C10.2667 17.3881 10.3942 17.7177 10.4058 17.959C10.4058 18.0179 10.4058 18.0767 10.4174 18.1356C10.458 18.7831 10.5449 20.0604 9.41449 21.3083C9.51304 21.3436 9.6 21.3907 9.68696 21.4496C9.81449 21.4025 9.94783 21.3789 10.0928 21.3789C10.4058 21.3789 10.7072 21.5026 10.9971 21.7439C11.5304 21.1847 11.9942 20.7609 12.5391 20.7609C12.5507 20.7609 12.5681 20.7609 12.5855 20.7668C12.5275 20.0604 12.3072 19.4836 12.1043 18.9597C12.058 18.8361 12.0116 18.7183 11.9652 18.5947ZM20.4696 17.5117C20.5275 17.2998 20.5855 17.0996 20.6319 16.9171C20.8174 16.1578 20.8 14.439 20.7246 13.0911C20.7072 12.8085 20.6899 12.5378 20.6725 12.2964C20.6261 11.7137 20.5681 11.2546 20.5159 11.0956C20.5159 11.0839 20.5101 11.0662 20.5101 11.0544L20.5043 11.0485C20.487 10.972 20.4406 10.8131 20.3884 10.5953C20.3594 10.4893 20.3362 10.3716 20.3072 10.2303L20.2899 10.1185C20.2609 10.0067 20.2435 9.88305 20.2319 9.75944C20.2261 9.74178 20.2261 9.73001 20.2203 9.71824C20.2203 9.66526 20.2029 9.61228 20.1971 9.55342L20.1913 9.51222C20.1855 9.46513 20.1797 9.41215 20.1739 9.35917C19.629 10.5423 18.9507 11.0309 18.3942 11.4311C17.9594 11.7431 17.5884 12.0139 17.3449 12.5378C17.2232 12.785 17.142 13.0322 17.0899 13.2912C17.0899 13.3089 17.0841 13.3383 17.0783 13.356C17.0435 13.5737 17.0261 13.7621 17.0261 13.9446V13.9505C17.0261 14.7098 17.2464 15.4632 17.4957 16.358L17.629 16.7994C18.1101 18.5123 18.058 20.3371 17.4783 21.7969C17.4319 21.9146 17.3739 22.0441 17.3043 22.1795C17.5652 22.1088 17.8319 22.0559 18.1043 22.0264C18.1159 22.0264 18.1391 22.0264 18.1623 22.0205C18.2435 22.0147 18.371 22.0088 18.4812 22.0029C18.5391 22.0029 18.5855 21.997 18.5971 21.997C18.6203 21.997 18.6551 21.9911 18.6783 21.9911H18.8638C19.1942 21.9911 19.513 22.0088 19.8203 22.0559C19.8145 22.0088 19.8087 21.9617 19.8029 21.9146L19.7855 21.7674C19.7101 21.0905 19.7623 20.3724 19.9478 19.4953C19.9652 19.4306 19.971 19.3835 19.9826 19.3305C20.0986 18.8008 20.2435 18.3122 20.3652 17.8766L20.4696 17.5117ZM15.3449 18.6713C16.1913 17.288 16.5913 14.4979 16.6609 13.9505C16.6609 13.8445 16.6667 13.7562 16.6783 13.6679C16.6841 13.5384 16.7015 13.4089 16.7188 13.2677C16.7246 13.2559 16.7246 13.2382 16.7304 13.2265C16.7884 12.9204 16.8812 12.6437 17.0029 12.3788C17.3043 11.7549 17.7507 11.437 18.1855 11.1251C18.8464 10.6483 19.5768 10.1126 20.1159 8.5351V8.52921C20.1159 8.45269 20.1159 8.39383 20.1217 8.34085C19.7159 8.86473 18.9739 9.59462 17.8551 9.71235C17.2464 9.78299 16.7246 9.74178 16.2087 9.6888H16.1797C15.3565 9.62406 14.8986 9.59463 14.6029 10.1774C14.3362 10.7012 14.4406 11.337 14.5507 12.0198C14.6609 12.6496 14.771 13.3324 14.6203 13.9917C14.4522 14.7098 13.9072 15.0159 13.3739 15.322C12.8 15.6575 12.2725 15.9695 12.0986 16.7523C11.9652 17.3292 12.0696 17.8119 12.2783 18.4005C12.2841 18.4005 12.2899 18.4123 12.2957 18.4476C12.3362 18.5653 12.3884 18.683 12.4348 18.8066C12.5449 19.0774 12.6261 19.3011 12.7072 19.5424C12.7072 19.5542 12.713 19.5601 12.713 19.566C12.771 19.7367 12.8232 19.9368 12.8754 20.1546C12.8928 20.2664 12.8928 20.2841 12.8928 20.2959C12.9333 20.4783 12.9565 20.6608 12.9623 20.8492C13.287 20.9846 13.4725 21.2553 13.5942 21.4319L13.6232 21.479C13.6232 21.479 13.6638 21.5438 13.6986 21.6144C13.7217 21.6615 13.7565 21.7203 13.7913 21.7792C13.8493 21.8793 13.9536 22.0323 14.0986 22.1795C14.2609 22.3443 14.429 22.4561 14.6203 22.5268C14.5507 21.4967 14.5971 19.8956 15.3449 18.6713ZM17.2754 16.8936C17.2406 16.7582 17.2 16.6287 17.1594 16.4933C17.0319 16.0519 16.9159 15.6398 16.8232 15.2337C16.6261 16.3109 16.2551 17.8943 15.6522 18.8596C14.9333 20.0428 14.9043 21.5967 14.9797 22.5621C15.1246 22.5385 15.3043 22.5091 15.4319 22.4856C15.5884 22.462 15.7333 22.4385 15.8435 22.4208C15.8783 22.4208 15.9072 22.4149 15.942 22.4149C16.0928 22.4149 16.2319 22.4561 16.3594 22.5327C16.5043 22.462 16.6551 22.3973 16.8058 22.3384C16.9449 22.0971 17.0609 21.8734 17.142 21.6556C17.687 20.2723 17.7391 18.5359 17.2754 16.8936Z" fill="#4C6E55"/>
<path d="M30.8843 28.5575C30.9104 28.5516 30.9365 28.5516 30.9683 28.5516C31.493 28.5516 32.235 28.7488 32.9741 29.0137C32.8843 28.7488 32.8379 28.4545 32.8379 28.1426C32.8379 27.9836 32.8495 27.8188 32.8698 27.654C32.8756 27.5745 32.8959 27.4509 32.9741 27.1331H27.5075V29.361C27.8843 29.2963 28.2988 29.1638 28.7423 29.0255C29.4292 28.8077 30.1452 28.5899 30.8843 28.5575Z" fill="#5904AA"/>
<path d="M51.2263 27.136L51.1626 27.2684L51.151 27.3008C50.8379 27.9866 50.3771 28.6193 49.6959 29.3051C49.2669 29.7348 48.722 30.0762 48.0843 30.3057L48.0321 30.3263L47.98 30.3381C47.4292 30.4706 46.8234 30.5294 46.1886 30.5147C45.0002 30.4941 43.9915 30.2086 43.7017 30.1468C43.3944 30.0821 42.5336 29.9614 42.3655 29.9349C42.3452 29.932 42.3249 29.9349 42.3046 29.9349C41.7046 30.0674 41.3886 30.656 41.2814 30.8561C41.2553 30.9032 41.2031 30.9886 41.2031 30.9886C41.035 31.2593 40.7481 31.7008 40.1133 31.7479C39.522 31.7803 39.0495 31.3653 38.5046 30.7914C37.98 31.2063 37.4988 31.1593 37.2176 31.068C37.093 31.1534 36.9713 31.2063 36.8553 31.2387C37.1915 31.6066 37.4466 31.951 37.5423 32.0834L37.5481 32.0893C37.7046 32.1423 37.8466 32.2276 37.9828 32.3336C38.6379 32.8545 38.893 33.3696 38.9684 33.5726L38.9886 33.5785C40.3191 34.3761 41.1046 34.9618 41.3336 35.3326C41.722 35.9595 41.6466 37.6194 41.4756 38.3199C41.3249 38.9409 41.3771 39.2087 41.606 39.712C41.6785 39.8768 41.9568 40.1535 42.2495 40.4507L42.3017 40.5037C42.4901 40.6803 42.6727 40.8657 42.8466 41.057L42.9046 41.1159C42.9423 41.163 42.9828 41.2071 43.0205 41.2483C43.0785 41.3131 43.1307 41.3808 43.1771 41.4396C43.351 41.6515 43.4756 41.8428 43.5481 42.0194C43.5539 42.0253 43.5539 42.0312 43.5539 42.04C43.5655 42.0518 43.5742 42.0724 43.5742 42.0871C43.58 42.093 43.58 42.0989 43.58 42.0989C43.6176 42.2107 43.6524 42.3108 43.6582 42.3962C43.7307 42.9818 43.4495 43.6617 43.2031 44.2562C43.0611 44.5976 42.9249 44.9214 42.9162 45.1274V45.2068C42.9104 45.2392 42.9104 45.2804 42.9046 45.3187C42.8669 45.9573 42.7742 47.2965 44.151 48.5296C44.522 48.8652 44.7481 49.2949 44.8118 49.8099C44.8234 49.8629 44.7915 49.9218 44.7394 49.9482C44.7191 49.9541 44.7017 49.9541 44.6872 49.9541C44.6495 49.9541 44.6089 49.9424 44.5828 49.907C44.551 49.8688 44.5104 49.8217 44.4582 49.7746C44.4466 49.754 44.4321 49.7275 44.4263 49.701C44.3539 49.3596 44.1857 49.0535 43.9075 48.8034C42.3944 47.4466 42.493 45.9809 42.5452 45.2686C42.551 45.2098 42.551 45.1509 42.551 45.0921C42.5626 44.8537 42.693 44.524 42.864 44.1149C43.0901 43.5616 43.351 42.9347 43.2988 42.4403C43.2872 42.3755 43.2669 42.302 43.2408 42.2284C43.235 42.2225 43.2292 42.2166 43.2292 42.2078C42.7423 41.6133 41.9104 41.1453 41.1713 40.7392L41.1191 40.7127C40.3336 40.2771 39.6524 39.9092 39.5684 39.4471C39.5307 39.2234 39.5307 38.9262 39.5307 38.5907V38.5524C39.5249 37.7225 39.5104 36.5805 38.9075 35.6063C38.2379 34.538 37.0582 34.4791 35.9017 34.4202L35.7075 34.4085C35.4814 34.3967 35.2524 34.382 35.0466 34.3555C34.0524 34.2378 32.9162 33.3342 32.0872 32.6691C31.7423 32.3924 31.4756 32.1864 31.3336 32.1099C31.1249 32.0098 30.7307 31.9657 30.2176 31.9716C30.7829 32.2688 31.6524 32.8074 32.2698 33.5285C32.2814 33.5403 32.2959 33.555 32.3075 33.5756C32.3597 33.6491 32.4379 33.7522 32.4959 33.8669C32.5017 33.8728 32.5017 33.8787 32.5075 33.8875C32.6234 34.1171 32.7162 34.382 32.7684 34.6792C32.7684 34.6851 32.7742 34.691 32.7742 34.6998V34.7057C32.8379 34.8323 33.6176 36.3215 35.1568 36.4863C35.7423 36.5511 36.2553 36.5128 36.7278 36.4657C37.5915 36.3922 38.2727 36.3333 38.6814 37.1515C39.0118 37.8049 38.8901 38.5436 38.7655 39.2617C38.6669 39.8209 38.5655 40.4625 38.7017 41.0541C38.8321 41.6133 39.2872 41.8723 39.7915 42.1548C40.3626 42.4903 41.0176 42.8729 41.2205 43.8089C41.3771 44.5064 41.2205 45.1009 41.0321 45.6424L41.0002 45.7425C40.9539 45.8602 40.9104 45.9809 40.864 46.1045C40.5915 46.802 40.2872 47.5937 40.3829 48.668C40.3829 48.7003 40.3713 48.7416 40.3452 48.768C40.3249 48.7945 40.2872 48.8063 40.2553 48.8063C40.2437 48.8063 40.2234 48.8122 40.1973 48.8269C40.1857 48.8328 40.1597 48.8328 40.1452 48.8328C40.0727 48.8328 40.0205 48.7857 40.0147 48.7151C39.9684 48.2795 39.9886 47.8586 40.0727 47.4436C40.0727 47.4319 40.0727 47.4113 40.093 47.2994C40.1452 47.0816 40.1973 46.8844 40.2553 46.7137C40.2553 46.7078 40.2611 46.702 40.2611 46.6872C40.3394 46.4488 40.4234 46.2252 40.5336 45.9544C40.58 45.8278 40.6321 45.7101 40.6698 45.5924C40.6756 45.56 40.6814 45.5453 40.6901 45.5453C40.8988 44.9596 41.0031 44.4769 40.8727 43.8971C40.6988 43.1113 40.1713 42.8023 39.5944 42.4668C39.0611 42.1636 38.5162 41.8546 38.3481 41.1365C38.1973 40.4772 38.3104 39.7974 38.4205 39.1646C38.5307 38.4847 38.635 37.8461 38.3684 37.3251C38.0698 36.7394 37.6147 36.7718 36.7915 36.8366H36.7655C36.2466 36.8895 35.7278 36.9278 35.1162 36.8572C34.0002 36.7394 33.2524 36.0125 32.8495 35.4857C32.8553 35.5386 32.8553 35.5975 32.8553 35.677V35.6829C33.3944 37.2574 34.122 37.7931 34.7829 38.2728C35.2176 38.5818 35.6669 38.8997 35.9655 39.5266C36.0901 39.7915 36.18 40.0681 36.2379 40.3713C36.2437 40.383 36.2437 40.4036 36.2495 40.4184C36.2698 40.5567 36.2814 40.6891 36.2872 40.8127C36.2988 40.904 36.3075 40.9893 36.3075 41.0953C36.38 41.6427 36.7742 44.4299 37.6263 45.8161C38.6379 47.4701 38.3655 49.8187 38.2553 50.5045C38.2495 50.5634 38.1915 50.6104 38.1307 50.6104C38.093 50.6104 38.0669 50.6046 38.0002 50.5898C37.9365 50.5692 37.8901 50.5045 37.9017 50.4368C38.006 49.7893 38.264 47.5702 37.3104 46.0074C36.7075 45.0391 36.3365 43.4557 36.1423 42.3814C36.0524 42.7846 35.9336 43.1996 35.806 43.6411C35.7684 43.7735 35.7278 43.906 35.6901 44.0443C35.2292 45.6866 35.2814 47.4201 35.8263 48.8034C35.9684 49.1801 36.1973 49.5686 36.4959 50.0483C36.522 50.0954 36.522 50.1543 36.4901 50.2013C36.464 50.2337 36.4263 50.2484 36.3857 50.2484H36.3481C36.3104 50.2367 36.2698 50.2219 36.2437 50.2161C36.1973 50.2161 36.1539 50.1955 36.1336 50.1572C35.8292 49.6745 35.6263 49.286 35.4901 48.9446C34.9133 47.4878 34.8611 45.663 35.3394 43.9472L35.4698 43.5057C35.722 42.6169 35.9452 41.8576 35.9452 41.0982V41.0923C35.9452 40.9158 35.9249 40.7244 35.893 40.5067C35.8872 40.4861 35.8814 40.4596 35.8814 40.4419C35.8292 40.1859 35.7452 39.9357 35.6292 39.6914C35.3828 39.1646 35.0118 38.8938 34.5771 38.5848C34.0176 38.1816 33.3423 37.696 32.7973 36.5158C32.7915 36.5687 32.7857 36.6217 32.7771 36.6688L32.7713 36.7071C32.7655 36.7659 32.751 36.8189 32.751 36.8719C32.7452 36.8837 32.7452 36.8984 32.7394 36.9101C32.7278 37.0367 32.7075 37.1603 32.6814 37.2721L32.6611 37.384C32.635 37.5223 32.6089 37.64 32.5829 37.746C32.5307 37.9638 32.4843 38.1227 32.4669 38.2022L32.4611 38.2081C32.4611 38.2081 32.4553 38.2346 32.4553 38.2463C32.4031 38.4053 32.3452 38.8673 32.2988 39.4471C32.2785 39.6914 32.2669 39.9622 32.2466 40.2447C32.1684 41.5897 32.1568 43.3115 32.3365 44.0678C32.3828 44.2533 32.4408 44.4505 32.4988 44.6624L32.6031 45.0303C32.7278 45.4658 32.8698 45.9544 32.9857 46.4812C32.9973 46.5342 33.006 46.5813 33.0234 46.646C33.206 47.5231 33.2582 48.2412 33.1857 48.9211L33.1655 49.0653C33.1539 49.2036 33.1278 49.3419 33.1017 49.4803L33.0959 49.5185C33.0843 49.5568 33.0698 49.598 33.064 49.6304C33.0524 49.6951 33.0379 49.7481 33.0176 49.8011C32.9857 49.9276 32.9452 50.0512 32.893 50.1778C32.8727 50.2249 32.8408 50.2573 32.7886 50.2573C32.7626 50.2632 32.7365 50.269 32.7104 50.2838C32.6901 50.2955 32.6727 50.2955 32.6524 50.2955C32.6205 50.2955 32.5886 50.2896 32.5626 50.2632C32.5249 50.2249 32.5104 50.1719 32.5307 50.1189C32.5944 49.9541 32.6553 49.7775 32.7046 49.5862C32.7046 49.5745 32.7104 49.5597 32.7104 49.5539L32.7481 49.3949C32.7857 49.236 32.8118 49.0771 32.8321 48.9123V48.8652C32.8901 48.2324 32.8379 47.526 32.6582 46.6961C32.5336 46.1104 32.3713 45.5306 32.235 45.0862C32.1452 44.7771 32.0524 44.4475 31.9828 44.1561C31.7365 43.1349 31.8147 40.7804 31.9307 39.4295C31.9307 39.4177 31.9307 39.403 31.9365 39.3824C31.9829 38.8232 32.0408 38.3464 32.0988 38.1374C32.1046 38.1315 32.1046 38.1168 32.1104 38.0992C32.1365 38.0079 32.2205 37.7166 32.2988 37.3222C32.4147 36.7365 32.4814 36.1891 32.4872 35.7064C32.4872 35.6946 32.4872 35.6799 32.493 35.6681V35.4974C32.4872 35.4709 32.4872 35.4503 32.4872 35.4386C32.4872 35.262 32.4669 35.0766 32.4408 34.8706C32.4408 34.8706 32.4389 34.8666 32.435 34.8588C32.435 34.8588 32.4292 34.8529 32.435 34.847C32.4234 34.8205 32.4147 34.794 32.4234 34.7675V34.7617C32.3394 34.3732 32.2089 34.0553 32.0466 33.8375C32.035 33.8316 32.0263 33.8257 32.0147 33.811C32.0089 33.8051 31.9944 33.7845 31.9886 33.7728C31.1307 32.7839 29.7481 32.157 29.4495 32.0245C29.4379 32.0245 29.4234 32.0187 29.4176 32.0187L29.2437 31.9451C29.1915 31.9186 29.1597 31.8656 29.1655 31.8067C29.1713 31.7479 29.2176 31.7008 29.2756 31.6949L29.4843 31.6625C29.8205 31.6302 30.951 31.5242 31.4901 31.795C31.6727 31.8862 31.9394 32.0922 32.2698 32.3542L32.3162 32.3924C33.0698 32.9928 34.206 33.9023 35.0872 34.0082C35.3597 34.0347 35.6321 34.0465 35.9307 34.0612C37.1133 34.1259 38.4495 34.1936 39.2089 35.4268C39.8785 36.4893 39.8901 37.696 39.8959 38.5701V38.6024C39.8959 38.9321 39.8959 39.2087 39.9278 39.4C39.98 39.6826 40.6553 40.0534 41.2988 40.4095C41.5973 40.5743 41.8959 40.7392 42.1742 40.904C42.1365 40.8657 42.0901 40.8245 42.0495 40.7863C41.693 40.4301 41.38 40.1211 41.2698 39.8827C40.9973 39.2764 40.9655 38.9144 41.1278 38.2552C41.2843 37.6018 41.3481 36.0537 41.0292 35.5534C40.835 35.2443 39.9829 34.6233 38.7568 33.8993L38.7191 33.8728C38.6872 33.8611 38.6611 33.8346 38.6466 33.7992C38.6466 33.7875 38.6408 33.7786 38.6408 33.761C38.635 33.7551 38.6292 33.7227 38.6205 33.7021C38.6089 33.6904 38.6002 33.6756 38.5944 33.6639C38.5307 33.5049 38.3162 33.09 37.7568 32.6485C37.6524 32.5631 37.522 32.4954 37.3684 32.4366C36.9133 32.2718 36.3104 32.2247 35.5944 32.1923C35.1017 32.1658 34.5944 32.1393 34.122 32.0481C33.8292 31.9951 33.4785 31.9098 33.0698 31.8185L32.7655 31.7449C31.6553 31.4801 30.2205 31.1445 29.1568 31.0857C28.8959 31.0739 28.6582 31.0739 28.4553 31.0916C28.1046 31.1298 27.7857 31.2358 27.5133 31.4153C27.2872 31.5536 27.0901 31.7391 26.9278 31.9627C26.8437 32.0805 26.7713 32.2011 26.7191 32.3247C26.5307 32.7279 26.4785 33.1606 26.5626 33.5785C26.5944 33.7316 26.6408 33.8493 26.7133 33.9552C26.9017 34.2849 27.2263 34.4438 27.5133 34.5144C27.7539 34.5733 27.9626 34.5792 28.0379 34.5792L28.2321 34.5733H28.2379C28.2901 34.5733 28.3423 34.6116 28.3626 34.6734C28.3742 34.7263 28.3568 34.7911 28.3046 34.8176L28.1481 34.9176C28.1481 34.9176 27.8814 35.0942 27.5104 35.2532C27.2437 35.3709 26.9249 35.4768 26.6089 35.5033C26.4089 35.5239 26.2321 35.5092 26.0843 35.4562C25.9481 35.418 25.8379 35.3503 25.7336 35.259C25.1886 34.7587 24.9104 33.8228 24.8756 33.1106C24.864 32.8928 24.8698 32.7015 24.9075 32.5425C24.9075 32.5308 24.9075 32.5043 24.9133 32.4896C24.9191 32.469 24.9336 32.4425 24.9452 32.4307C24.951 32.4189 24.9568 32.4101 24.9655 32.3983C25.0379 32.3336 25.1075 32.3395 25.1336 32.3512C25.18 32.363 25.2234 32.3895 25.2495 32.4366C25.2698 32.4748 25.2814 32.5278 25.2698 32.5749C25.2698 32.5808 25.2698 32.5867 25.264 32.5867V32.6073C25.1278 33.1665 25.3742 34.4409 25.9771 34.9794C26.0089 35.0059 26.0408 35.0324 26.0814 35.053C26.2379 35.1443 26.4321 35.1443 26.58 35.1325C26.8785 35.106 27.1915 34.9883 27.4495 34.8676C27.0408 34.7617 26.7104 34.5645 26.4959 34.2937C26.3539 34.1083 26.2553 33.8993 26.2031 33.655C26.0872 33.087 26.1829 32.4896 26.4814 31.9745C26.5278 31.8892 26.58 31.8097 26.6234 31.7508C26.8582 31.4212 27.1568 31.1651 27.5075 30.9915C27.78 30.8473 28.0843 30.7531 28.4089 30.7207C28.6292 30.7001 28.8756 30.6942 29.1481 30.7148C30.2466 30.7737 31.6814 31.1092 32.8814 31.3947C33.4263 31.5271 33.8553 31.6243 34.18 31.6861C34.635 31.7714 35.1336 31.7979 35.6408 31.8244L35.7046 31.8303C36.1452 31.8568 36.5684 31.8774 36.951 31.948C36.7944 31.7567 36.6002 31.5183 36.38 31.2946H36.3539C35.7162 31.2093 35.4176 30.7678 35.2553 30.4323C34.7365 30.5177 34.1655 30.3852 33.722 30.0703C33.5133 29.9173 33.3394 29.7348 33.2031 29.517C32.3857 29.1991 31.5423 28.9431 30.9771 28.9431C30.951 28.9431 30.9249 28.949 30.8988 28.949C30.2031 28.9754 29.5104 29.1932 28.8408 29.4051C28.5046 29.5111 27.7684 29.7083 27.5046 29.6818V29.6877H26.7713C26.7452 29.6877 26.7075 29.6877 26.6727 29.6936H26.5944C26.3597 29.7201 26.1394 29.7672 25.9394 29.8201C25.9394 29.8201 25.9355 29.8221 25.9278 29.826C25.9278 29.826 25.9162 29.8319 25.9075 29.8319C25.3742 30.0821 24.8292 30.4706 24.2002 31.1181C23.8292 31.5007 23.5829 31.9539 23.4147 32.4219C23.2901 32.9487 23.2524 33.4961 23.264 34.0112C23.2727 34.3496 23.2988 34.6734 23.3365 34.9677C23.3626 35.1796 23.4147 35.3797 23.4988 35.5769C23.7249 36.1096 24.3249 37.4576 25.5423 37.9608C25.6321 37.9991 25.6785 38.1051 25.6408 38.2051C25.6089 38.2787 25.5423 38.317 25.4727 38.317C25.4524 38.317 25.4205 38.3111 25.4002 38.3052C24.4785 37.9226 23.9713 37.3546 23.6785 36.8101C23.7162 37.1456 23.8669 37.8725 23.8292 38.0903C23.6292 39.2764 22.5307 39.7768 22.3944 39.8651C22.1857 40.0034 22.064 40.0828 22.0495 40.2594C22.0292 40.6214 22.9713 41.3925 23.0437 41.5191C23.1597 41.7163 23.2843 41.9753 23.1423 42.0783C22.0524 42.9083 23.1423 43.2644 23.1481 43.2585C23.1423 43.2703 22.4611 43.4881 22.5104 43.8971C22.5829 44.4505 23.4466 44.3062 23.4785 44.7536C23.4901 44.9773 23.406 45.0626 23.3944 45.1156C23.206 45.6571 23.493 46.8638 25.064 46.6372C25.2002 46.6254 25.8118 46.4724 26.5973 46.2693L27.5075 46.2487V53.0003H48.6727C51.0379 53.0003 52.9568 51.0519 52.9568 48.6503V27.1595H51.2234L51.2263 27.136Z" fill="#5904AA"/>
<path d="M25.4494 27.136V29.1609C25.0262 29.3433 24.5566 29.6435 24.0117 30.138C23.9363 29.5376 23.7624 28.9548 23.5885 28.3898C23.4494 27.9365 23.3218 27.5186 23.2581 27.136H25.4494Z" fill="#FFC222"/>
<path d="M24.7014 47.4786C23.9246 47.4786 23.2812 47.1666 22.8928 46.6074C22.5797 46.1601 22.458 45.5715 22.5623 45.0535C22.458 45.0064 22.342 44.9416 22.2261 44.8592C21.9884 44.6885 21.7623 44.4119 21.7043 43.9822C21.6754 43.7703 21.687 43.4524 21.9072 43.1345C21.9072 43.1287 21.9014 43.1169 21.9014 43.111C21.8087 42.8343 21.7565 42.3517 22.2029 41.8101C21.8667 41.4864 21.5826 41.1862 21.4145 40.8742C21.287 40.6564 21.2232 40.4269 21.2348 40.1855C21.2812 39.5851 21.6928 39.3144 21.9362 39.1495C21.942 39.1437 22.0232 39.0966 22.0638 39.073C22.2725 38.9553 22.9101 38.608 23.0261 37.9252V37.9134C23.0261 37.8958 23.0203 37.8781 23.0145 37.8604C23.0145 37.8604 22.6261 36.1887 22.5101 35.2705C22.4986 35.294 22.487 35.3176 22.4754 35.3411C22.2493 35.7826 21.8087 36.2476 21.4029 36.6184C21.2696 36.7479 21.1362 36.8657 21.0145 36.9657C20.9449 37.0305 20.8754 37.0835 20.8116 37.1306L20.8 37.1423C20.7304 37.1953 20.6783 37.2424 20.6319 37.2718C20.6087 37.2895 20.5913 37.3071 20.5739 37.3189L20.5681 37.3248C20.5507 37.3837 20.5275 37.4366 20.4986 37.4896C20.4754 37.5485 20.4406 37.6073 20.4 37.6603C20.3826 37.6956 20.3594 37.731 20.3304 37.7663C20.2029 37.9311 20.0754 38.0724 19.9478 38.1901C19.5826 38.5491 19.258 38.7081 19.1072 38.7669L19.1014 38.7905C19.0029 38.9553 18.9101 39.1201 18.8174 39.2673C18.7536 39.3732 18.6899 39.4733 18.6319 39.5675C18.5101 39.7617 18.4 39.9383 18.2899 40.0972C18.2319 40.1738 18.1797 40.2503 18.1333 40.3209C17.9304 40.6093 17.7507 40.8271 17.6 40.9802C17.5188 41.0626 17.4435 41.1214 17.3739 41.1685C16.7536 41.5629 15.1188 41.4864 14.429 41.3157C13.8203 41.1626 13.5536 41.2156 13.0609 41.4452C12.8986 41.5217 12.6261 41.8042 12.3362 42.0986L12.2841 42.1515C12.1971 42.2516 12.1043 42.3458 12.0116 42.4341C11.9246 42.5283 11.8319 42.6166 11.7391 42.7049L11.6812 42.7637C11.6348 42.8049 11.5884 42.8461 11.5478 42.8814C11.4841 42.9403 11.4203 42.9933 11.3623 43.0404C11.1536 43.217 10.9623 43.3465 10.7884 43.4171C10.7826 43.423 10.7768 43.423 10.771 43.423C10.7594 43.4347 10.7362 43.4465 10.7246 43.4465C10.7188 43.4524 10.713 43.4524 10.713 43.4524C10.6029 43.4877 10.5043 43.523 10.4174 43.5289C9.84348 43.5996 9.17101 43.317 8.58551 43.0698C8.24928 42.9226 7.93043 42.7873 7.73333 42.7755H7.65217C7.62319 42.7696 7.58261 42.7696 7.54203 42.7637C6.91594 42.7225 5.5942 42.6342 4.38261 44.0293C4.05217 44.406 3.62899 44.6355 3.11884 44.7003C3.08406 44.7121 3.03768 44.6944 3.0087 44.6591C2.9971 44.6532 2.9913 44.6414 2.98551 44.6297C2.97971 44.612 2.97971 44.5885 2.97971 44.5767C2.97971 44.5355 2.9913 44.5002 3.02609 44.4707C3.06087 44.4413 3.10725 44.4001 3.15362 44.3471C3.17101 44.3353 3.2 44.3177 3.22319 44.3118C3.56522 44.2412 3.86087 44.0705 4.11014 43.7879C5.44348 42.2516 6.88696 42.3517 7.58841 42.4047C7.64638 42.4105 7.70435 42.4105 7.76232 42.4105C8 42.4223 8.32464 42.5518 8.72464 42.7225C9.26957 42.958 9.88406 43.217 10.371 43.164C10.4406 43.1522 10.5101 43.1346 10.5797 43.1051C10.5855 43.0992 10.5971 43.0933 10.6029 43.0933C10.6783 43.0286 10.7478 42.9638 10.8174 42.8932C10.9565 42.7461 11.0841 42.5871 11.2116 42.4164C11.4609 42.0691 11.687 41.6748 11.8957 41.2921C11.9478 41.1921 12 41.0979 12.0522 41.0037L12.0754 40.9507C12.5043 40.1561 12.8696 39.4615 13.3217 39.3791C13.542 39.3379 13.8319 39.3379 14.1681 39.3379H14.2029C15.0203 39.332 16.1449 39.3144 17.1072 38.7022C17.2406 38.6198 17.3565 38.5256 17.4551 38.4255C17.5072 38.3784 17.5536 38.3255 17.6 38.2725C17.8145 38.0282 17.9681 37.7368 18.0493 37.419C18.0899 37.2659 18.1304 37.1129 18.1565 36.954C18.2377 36.536 18.2551 36.0887 18.2783 35.6531L18.2899 35.453C18.3014 35.2234 18.3188 34.9938 18.342 34.7819C18.3478 34.7172 18.3594 34.6583 18.371 34.5936C18.4 34.4641 18.4348 34.3346 18.4812 34.2051C18.6899 33.6164 19.0841 33.0043 19.4841 32.4569C19.6638 32.2155 19.8377 31.9859 20.0058 31.774C20.1565 31.5798 20.2899 31.4091 20.3884 31.2678C20.4174 31.2266 20.4522 31.1854 20.4754 31.1442C20.5101 31.0912 20.5333 31.0441 20.5565 31.0088C20.5797 30.9617 20.5971 30.897 20.6145 30.8264C20.6203 30.791 20.6319 30.7557 20.6377 30.7145C20.6435 30.6792 20.6493 30.6321 20.6551 30.5909C20.6609 30.5438 20.6667 30.4967 20.6725 30.4496C20.6725 30.4025 20.6783 30.3496 20.6841 30.3025C20.6899 30.173 20.6899 30.0317 20.6899 29.8787C20.4 30.4496 19.8667 31.3326 19.1594 31.9624C19.1478 31.9742 19.1304 31.9859 19.113 31.9977C19.0435 32.0507 18.9391 32.1331 18.829 32.192C18.8232 32.1979 18.8116 32.1979 18.8058 32.2037C18.5797 32.3215 18.3188 32.4156 18.029 32.4686C18.0232 32.4686 18.0174 32.4745 18.0116 32.4745H18C17.8783 32.5393 16.4116 33.3339 16.2493 34.8938C16.2029 35.3058 16.2087 35.6766 16.2319 36.0239C16.2377 36.1063 16.2435 36.1829 16.2493 36.2594C16.2609 36.3359 16.2667 36.4124 16.2725 36.4889C16.2783 36.5537 16.2783 36.6126 16.2841 36.6655C16.2899 36.7244 16.2957 36.7833 16.2957 36.8362C16.313 37.1188 16.3188 37.3778 16.2725 37.6073C16.2493 37.7133 16.2145 37.8192 16.1681 37.9193C16.1275 38.0017 16.0812 38.0782 16.0174 38.143C16 38.1724 15.9768 38.196 15.9478 38.2195C15.8551 38.3137 15.7391 38.3961 15.5942 38.4726C14.9507 38.8081 14.2261 38.6845 13.5188 38.5609C12.9623 38.4608 12.3362 38.3549 11.7507 38.4903C11.2 38.6257 10.9449 39.0848 10.6667 39.6028C10.3362 40.1796 9.95942 40.8448 9.03768 41.0508C8.34783 41.2097 7.76232 41.0508 7.22899 40.8624L7.13623 40.8271C7.01449 40.78 6.89855 40.733 6.77681 40.6859C6.08696 40.4092 5.31014 40.1031 4.24928 40.2032C4.22029 40.2032 4.17971 40.1855 4.15652 40.162C4.12754 40.1384 4.11594 40.1031 4.11594 40.0678C4.11594 40.0619 4.11594 40.056 4.11014 40.0443C4.11014 40.0443 4.10821 40.0403 4.10435 40.0325C4.10435 40.0325 4.10435 40.0207 4.09855 40.0089C4.09275 39.9972 4.09275 39.9677 4.09275 39.956C4.09275 39.9206 4.10435 39.8912 4.12754 39.8677C4.14493 39.8441 4.17391 39.8265 4.2087 39.8265C4.63188 39.7794 5.04928 39.797 5.46087 39.8853C5.47246 39.8853 5.48985 39.8853 5.6 39.903C5.81449 39.956 6.01159 40.0089 6.17971 40.0678C6.18551 40.0678 6.1913 40.0737 6.2029 40.0737C6.44058 40.1561 6.66087 40.2385 6.92754 40.3503C7.04928 40.3974 7.16522 40.4504 7.28116 40.4916C7.29855 40.4975 7.31014 40.4975 7.31594 40.4975C7.32754 40.5034 7.32754 40.5093 7.32754 40.5093C7.90725 40.7212 8.38261 40.8271 8.95072 40.6976C9.33333 40.6035 9.6058 40.4269 9.82029 40.1973C9.92464 40.0855 10.0232 39.956 10.1101 39.8206C10.1507 39.7558 10.1913 39.6852 10.2377 39.6146C10.2841 39.5439 10.3246 39.4733 10.3652 39.3968C10.4 39.332 10.4406 39.2614 10.4754 39.1966C10.5913 38.9906 10.713 38.7964 10.8638 38.6257C11.0609 38.3961 11.3159 38.2136 11.6696 38.1312C12.3188 37.9782 12.9913 38.09 13.6116 38.2019C14.2841 38.3137 14.9101 38.4196 15.4261 38.1489C15.4783 38.1194 15.5246 38.0959 15.5652 38.0606C15.6058 38.0312 15.6464 38.0017 15.6812 37.9664C15.7507 37.9017 15.8029 37.831 15.8377 37.7545C15.9768 37.472 15.9478 37.0835 15.9072 36.5478V36.5243C15.8725 36.1946 15.8493 35.8709 15.8493 35.5177C15.8493 35.3058 15.8609 35.088 15.8899 34.8467C15.9304 34.4758 16.029 34.1403 16.1681 33.846C16.2145 33.7518 16.2667 33.6576 16.3188 33.5694C16.3478 33.5164 16.3768 33.4693 16.4116 33.4222C16.5449 33.2338 16.6841 33.069 16.8232 32.9219C16.9623 32.7747 17.1072 32.6452 17.2348 32.5451C17.1826 32.551 17.1246 32.551 17.0493 32.551H17.0435C15.9768 32.9278 15.3913 33.3928 14.9797 33.8696C14.9043 33.9579 14.8348 34.0403 14.771 34.1286C14.7362 34.1698 14.7014 34.2168 14.6725 34.2581C14.6145 34.3405 14.5507 34.4288 14.4928 34.5112C14.1855 34.9526 13.8725 35.4059 13.258 35.712C12.9971 35.8356 12.7246 35.9298 12.4232 35.9886C12.4116 35.9945 12.3942 35.9945 12.3826 36.0004C12.2435 36.018 12.1159 36.0357 11.9884 36.0416C11.9014 36.0534 11.8145 36.0592 11.7101 36.0592C11.171 36.1358 8.42319 36.536 7.06087 37.4013C5.43188 38.4255 3.11884 38.1489 2.44638 38.037C2.38841 38.0312 2.34203 37.9723 2.34203 37.9134C2.34203 37.8958 2.34203 37.8781 2.34783 37.8546C2.34783 37.8487 2.34783 37.8369 2.35362 37.8251C2.35942 37.8134 2.36522 37.7957 2.36522 37.778C2.37101 37.7722 2.37101 37.7604 2.37681 37.7545C2.38261 37.7368 2.3942 37.7192 2.41159 37.7074C2.44058 37.6839 2.47536 37.6721 2.51014 37.6839C3.14783 37.7898 5.33333 38.0488 6.87536 37.0835C7.48406 36.6891 8.34783 36.3948 9.16522 36.1829C9.30435 36.1475 9.44348 36.1122 9.57681 36.0828C9.72754 36.0416 9.87826 36.0122 10.029 35.9768C10.1739 35.9474 10.313 35.918 10.4464 35.8944C10.0464 35.8061 9.64058 35.6825 9.2058 35.553C9.07246 35.5118 8.94493 35.4765 8.81159 35.4353C7.1942 34.9644 5.48406 35.0174 4.12174 35.5707C3.75072 35.7178 3.36812 35.9474 2.89275 36.2535C2.84638 36.277 2.78841 36.277 2.74783 36.2476C2.71304 36.2182 2.70145 36.177 2.70145 36.1417V36.1005C2.70725 36.0828 2.71304 36.0592 2.71884 36.0416C2.72464 36.0239 2.73043 36.0063 2.73623 35.9945C2.73623 35.971 2.74203 35.9474 2.74783 35.9298C2.75942 35.9062 2.77101 35.8944 2.78841 35.8827H2.7942C3.26957 35.5707 3.64638 35.3706 3.98261 35.2293C5.42029 34.6407 7.21739 34.5877 8.90435 35.0762L9.33913 35.2116C10.2203 35.4647 10.9623 35.6884 11.7101 35.6884H11.7159C11.8957 35.6884 12.0812 35.6708 12.2957 35.6413C12.3188 35.6296 12.3362 35.6237 12.3594 35.6237C12.6145 35.5707 12.858 35.4883 13.1014 35.3706C13.4899 35.1822 13.7333 34.9232 13.9652 34.6171C14.0406 34.517 14.1159 34.4111 14.1913 34.2993C14.2899 34.158 14.3942 34.0108 14.5159 33.8578C14.6319 33.7047 14.771 33.5517 14.9275 33.3928C15.2406 33.0749 15.6522 32.7688 16.2319 32.4922C16.1797 32.4863 16.1275 32.4804 16.0812 32.4745L16.0406 32.4686C15.9826 32.4627 15.9304 32.4451 15.8783 32.4451C15.8667 32.4392 15.8551 32.4392 15.8377 32.4333C15.7159 32.4215 15.5942 32.4039 15.4841 32.3744L15.3739 32.3568C15.2348 32.3274 15.1188 32.3038 15.0145 32.2744C14.8 32.2214 14.6435 32.1802 14.5681 32.1567L14.5623 32.1508C14.5623 32.1508 14.5333 32.1449 14.5217 32.1449C14.3652 32.0919 13.913 32.033 13.3391 31.9859C13.1014 31.9683 12.8348 31.9506 12.5565 31.933C11.229 31.8565 9.53623 31.8388 8.78841 32.0272C8.6087 32.0742 8.41159 32.1331 8.2029 32.192L7.84348 32.2979C7.41449 32.4215 6.93333 32.5687 6.41159 32.6864C6.35942 32.6982 6.31304 32.7041 6.24928 32.7217C5.38551 32.9101 4.67826 32.9631 4.01159 32.8865L3.86667 32.8689C3.73333 32.8571 3.5942 32.8277 3.46087 32.8041L3.42029 32.7983C3.37971 32.7865 3.34493 32.7688 3.31014 32.7629C3.24638 32.7512 3.1942 32.7394 3.14203 32.7158C3.02029 32.6864 2.89275 32.6452 2.77101 32.5922C2.72464 32.5746 2.69565 32.5393 2.69565 32.4863C2.68406 32.4627 2.67826 32.4333 2.66667 32.4098C2.65507 32.3862 2.65507 32.3686 2.65507 32.3509C2.65507 32.3332 2.65507 32.3156 2.66087 32.2979C2.66667 32.2803 2.67826 32.2685 2.68985 32.2567C2.73043 32.2155 2.77681 32.2037 2.82899 32.2214C2.9913 32.292 3.16522 32.3509 3.35652 32.4039C3.36812 32.4039 3.37971 32.4098 3.38551 32.4098L3.54203 32.4451C3.69855 32.4863 3.85507 32.5157 4.01739 32.5334H4.06377C4.68406 32.5922 5.37971 32.5393 6.1971 32.3568C6.77681 32.2273 7.35072 32.0625 7.78551 31.9271C8.08696 31.8329 8.41159 31.7446 8.70145 31.6681C9.70435 31.4209 12.0232 31.4974 13.3565 31.6151C13.3681 31.6151 13.3797 31.6151 13.3971 31.621C13.9536 31.6681 14.4174 31.727 14.6261 31.7858C14.6319 31.7976 14.6435 31.7976 14.6667 31.8035C14.7536 31.827 15.0435 31.9153 15.4319 31.9918C16.0116 32.1096 16.5507 32.1802 17.0203 32.1861C17.0377 32.1861 17.0493 32.1861 17.0609 32.192H17.229C17.258 32.1861 17.2754 32.1861 17.287 32.1861C17.4609 32.1861 17.6464 32.1625 17.8493 32.139C17.8493 32.139 17.8531 32.137 17.8609 32.1331C17.8609 32.1331 17.8667 32.1272 17.8725 32.1331C17.8957 32.1154 17.9246 32.1096 17.9478 32.1154H17.9594C18.342 32.033 18.6493 31.8977 18.8638 31.7328C18.8696 31.7211 18.8812 31.7152 18.8928 31.7034C18.8986 31.6975 18.9159 31.6858 18.9333 31.674C19.542 31.1324 20.0116 30.379 20.3072 29.8198C20.3942 29.6491 20.4696 29.5019 20.5275 29.3783C20.5855 29.2547 20.6261 29.1605 20.6493 29.1017L20.6551 29.0958C20.6551 29.0958 20.6609 29.0722 20.6609 29.0664L20.7304 28.8898C20.7536 28.8368 20.8058 28.8015 20.8638 28.8074C20.8928 28.8074 20.9159 28.825 20.9391 28.8427C20.9623 28.8603 20.9739 28.8898 20.9797 28.9192L21.0087 29.1311C21.0145 29.1959 21.0261 29.2783 21.0319 29.3842C21.0435 29.549 21.0551 29.7551 21.0551 29.9728C21.0551 30.1906 21.0493 30.4261 21.0203 30.638C20.9913 30.8381 20.9507 31.0265 20.8812 31.1678C20.8116 31.309 20.6783 31.4915 20.5101 31.7211C20.4522 31.7976 20.3942 31.88 20.3304 31.9624L20.2899 32.0036C19.9942 32.3862 19.6232 32.8689 19.3101 33.3633C19.2348 33.4869 19.1594 33.6106 19.0899 33.7401C18.9507 33.9873 18.8406 34.2345 18.771 34.4758C18.7536 34.5347 18.7362 34.5936 18.7246 34.6524C18.713 34.7113 18.7072 34.7643 18.7014 34.8231C18.6899 34.9644 18.6783 35.0998 18.6667 35.2411C18.6609 35.3823 18.6551 35.5295 18.6493 35.6766C18.6319 35.9592 18.6203 36.2476 18.5855 36.536C18.5739 36.6302 18.5623 36.7303 18.5507 36.8245C18.4812 37.2836 18.3652 37.7368 18.1391 38.1371C18.0232 38.3372 17.8841 38.5256 17.7043 38.6963C17.5826 38.8081 17.4493 38.9141 17.2986 39.0083C16.2551 39.6852 15.0667 39.697 14.2029 39.7087H14.1739C13.8493 39.7087 13.5768 39.7087 13.3855 39.7382C13.3159 39.7499 13.2464 39.8029 13.1652 39.8853C13.142 39.9089 13.1246 39.9324 13.1014 39.956C12.8812 40.215 12.6319 40.68 12.3942 41.1273C12.2319 41.4334 12.0696 41.7336 11.9072 42.022C11.942 41.9808 11.9826 41.9337 12.0232 41.8925C12.371 41.5335 12.6783 41.2156 12.9101 41.1038C13.5072 40.8271 13.8667 40.7918 14.5159 40.9566C15.1594 41.1156 16.6841 41.1803 17.1768 40.8624C17.2174 40.8389 17.2638 40.7977 17.3101 40.7565C17.3565 40.7094 17.4087 40.6564 17.4609 40.5917C17.5188 40.5269 17.5768 40.4563 17.6406 40.3739C17.7333 40.2503 17.8377 40.1031 17.9478 39.9442C18.058 39.7853 18.1739 39.6087 18.2957 39.4144C18.3768 39.2849 18.458 39.1495 18.5449 39.0024C18.6319 38.8611 18.7246 38.7081 18.8116 38.555L18.8348 38.5138C18.8464 38.4785 18.8696 38.455 18.9043 38.4373C18.9159 38.4373 18.9217 38.4314 18.9449 38.4314C18.9507 38.4255 18.9855 38.4196 19.0029 38.4138C19.0145 38.402 19.0261 38.3961 19.0435 38.3902C19.1942 38.3196 19.6058 38.1018 20.0406 37.5367C20.1275 37.4308 20.1913 37.3013 20.2493 37.1423C20.3478 36.8539 20.4058 36.5007 20.4406 36.1063C20.4522 35.9886 20.4638 35.865 20.4696 35.7355C20.4812 35.6119 20.487 35.4765 20.4928 35.3411C20.5014 35.1704 20.5101 34.985 20.5159 34.8231C20.5275 34.5936 20.5507 34.3669 20.5826 34.1403C20.5971 34.0403 20.6116 33.9402 20.6319 33.846C20.6725 33.6223 20.7304 33.3633 20.7942 33.0749C20.8174 32.9807 20.8406 32.8807 20.8638 32.7747L20.9333 32.4686C20.9971 32.1861 21.0667 31.8859 21.1362 31.5739C21.3101 30.791 21.4725 29.9493 21.5478 29.2253C21.5652 29.0781 21.5768 28.9369 21.5826 28.8015C21.5884 28.6072 21.5942 28.4306 21.5826 28.2658C21.5884 28.207 21.5826 28.1481 21.5768 28.0892C21.5652 28.0009 21.5536 27.9126 21.5304 27.8302C21.513 27.7478 21.4957 27.6654 21.4667 27.583C21.4145 27.4241 21.3449 27.2769 21.258 27.1357C21.1188 26.9061 20.9391 26.706 20.7188 26.5411C20.5971 26.4529 20.4812 26.3822 20.3594 26.3292C19.9652 26.1409 19.5362 26.0879 19.1246 26.1703C18.9739 26.2056 18.858 26.2527 18.7536 26.3234C18.6725 26.3704 18.6087 26.4234 18.5449 26.4882C18.4522 26.5824 18.3826 26.6883 18.3246 26.8001C18.2725 26.912 18.2319 27.0238 18.2029 27.1357C18.1449 27.377 18.1391 27.5889 18.1391 27.6654L18.1449 27.8656V27.8714C18.1449 27.8714 18.1449 27.9009 18.1391 27.9126C18.1275 27.9362 18.1159 27.9597 18.0928 27.9774C18.0812 27.9833 18.0638 27.9892 18.0464 27.9951C17.9942 28.0127 17.9304 27.9892 17.9072 27.9362L17.8087 27.7832C17.8087 27.7832 17.6348 27.5124 17.4783 27.1357C17.3623 26.8649 17.258 26.5411 17.229 26.2174C17.2116 26.0114 17.2232 25.8348 17.2754 25.6818C17.3159 25.5464 17.3797 25.4345 17.4725 25.3286C17.9652 24.7753 18.887 24.4927 19.5884 24.4574C19.8029 24.4456 19.9884 24.4515 20.1449 24.4927C20.1565 24.4927 20.1855 24.4927 20.1971 24.4986C20.2145 24.5045 20.2435 24.5163 20.2551 24.528C20.2667 24.5339 20.2725 24.5457 20.2899 24.5516C20.3304 24.5987 20.342 24.6458 20.342 24.6811C20.342 24.6987 20.342 24.7105 20.3362 24.7223C20.3304 24.7458 20.3188 24.7753 20.3014 24.7929C20.2899 24.8106 20.2725 24.8282 20.2493 24.84C20.2087 24.8577 20.1565 24.8753 20.1101 24.8577C20.1043 24.8577 20.0985 24.8577 20.0985 24.8518H20.0812C19.5304 24.7164 18.2725 24.9636 17.7449 25.5758C17.7159 25.6111 17.6928 25.6464 17.6754 25.6818C17.6406 25.7406 17.6174 25.8054 17.6058 25.8701C17.5826 25.982 17.5884 26.0997 17.5942 26.1939C17.6 26.2704 17.6116 26.3469 17.629 26.4234C17.6638 26.5706 17.7159 26.7236 17.7681 26.8708C17.7971 26.9414 17.8261 27.012 17.8551 27.0768C17.9594 26.6589 18.1507 26.3234 18.4174 26.1056C18.5971 25.9584 18.8058 25.8642 19.0493 25.8112C19.6058 25.6876 20.1971 25.7877 20.7014 26.0938C20.7884 26.1409 20.8638 26.1939 20.9217 26.2351C21.0029 26.2939 21.0783 26.3587 21.1536 26.4293C21.2232 26.4941 21.2928 26.5647 21.3565 26.6412C21.4145 26.7177 21.4725 26.7943 21.5304 26.8767C21.5826 26.9591 21.6348 27.0474 21.6754 27.1357C21.7101 27.2063 21.7391 27.2769 21.7681 27.3476C21.8261 27.4947 21.8725 27.6478 21.9014 27.8067C21.9188 27.8832 21.9304 27.9656 21.9362 28.048C21.9594 28.2776 21.9652 28.5248 21.9478 28.8015C21.9304 29.0781 21.9014 29.3783 21.8551 29.6903C21.7217 30.6262 21.4841 31.6799 21.2754 32.5922C21.142 33.1455 21.0493 33.5811 20.9913 33.9108C20.9043 34.3699 20.8812 34.882 20.8522 35.3941L20.8464 35.4589C20.8348 35.6825 20.8232 35.9003 20.8058 36.1122C20.7884 36.3241 20.7652 36.5302 20.7304 36.7244C20.8406 36.6302 20.9681 36.5243 21.1014 36.4007C21.1652 36.3418 21.2348 36.277 21.3043 36.2123C21.3275 36.1946 21.3507 36.1711 21.3739 36.1475V36.1417C21.687 35.8356 21.9884 35.4942 22.1507 35.1763C22.2261 35.0233 22.3304 34.8172 22.4406 34.5641C22.4174 34.2875 22.4116 34.0108 22.4116 33.7401C22.4116 33.7401 22.4116 33.7342 22.4174 33.7342C22.4174 33.1809 22.487 32.6334 22.6377 32.1508C22.6377 32.139 22.6435 32.1272 22.6493 32.1154C22.8812 31.4621 23.2 30.9323 23.6232 30.5085C23.6406 30.4908 23.658 30.4732 23.6754 30.4614C23.6754 30.4555 23.6812 30.4555 23.6812 30.4555C23.6638 30.2318 23.5478 29.6138 23.5246 29.5255C23.4841 29.3312 23.2812 28.6425 23.2348 28.4895C23.2232 28.4483 23.0783 27.8891 23.0609 27.8302C22.9623 27.327 22.9652 26.2557 22.8696 25.7288C22.8145 25.4963 22.6841 25.2403 22.6029 25.099C22.3594 24.687 22.029 24.2573 21.5478 23.7805C21.171 23.4038 20.7246 23.1507 20.2609 22.98C19.7449 22.8563 19.2058 22.8151 18.6957 22.8269H18.6899C18.6377 22.8328 18.313 22.8446 18.2087 22.8563H18.1913C17.6464 22.8563 17.1159 23.0182 16.6464 23.3037C16.4464 23.4244 16.1913 23.5568 15.9362 23.7569C15.8609 23.8099 15.7855 23.8688 15.7159 23.9335C15.6406 23.9924 15.571 24.063 15.5014 24.1278C15.4377 24.1925 15.2985 24.3456 15.2928 24.3515C15.2348 24.4221 15.1768 24.4986 15.113 24.581C15.1072 24.5869 15.0029 24.7576 14.9507 24.8459C14.9449 24.8518 14.8522 25.046 14.8116 25.1461C14.8058 25.1638 14.7942 25.1755 14.7826 25.1932C14.7304 25.2462 14.6493 25.2756 14.5681 25.2403C14.4985 25.2109 14.458 25.1461 14.458 25.0696C14.458 25.0519 14.4638 25.0166 14.4696 24.9989C14.6145 24.6458 14.7826 24.3515 14.9623 24.1101C15.0261 24.0277 15.0841 23.9512 15.1478 23.8864C15.2116 23.8099 15.2812 23.7452 15.3449 23.6863C15.542 23.5038 15.7391 23.3626 15.942 23.2507C15.6116 23.2919 14.8986 23.445 14.6841 23.4038C14.1739 23.3096 13.7971 23.0506 13.5188 22.768C13.3217 22.5738 13.1768 22.3619 13.0841 22.203C13.0435 22.1382 12.9507 21.9616 12.9391 21.944C12.8 21.7379 12.7246 21.6085 12.5507 21.5967C12.1913 21.579 11.4319 22.5326 11.3101 22.6032C11.113 22.7268 10.858 22.8505 10.7594 22.7033C9.93623 21.5967 9.58841 22.7033 9.5942 22.7092C9.58841 22.7092 9.53623 22.5444 9.43768 22.3854C9.41449 22.3442 9.38551 22.3089 9.35652 22.2677C9.25797 22.1441 9.12464 22.044 8.96232 22.0676C8.86377 22.0794 8.78841 22.1206 8.72464 22.1794C8.66087 22.2383 8.61449 22.3148 8.57391 22.4031C8.44638 22.6739 8.3942 23.027 8.12174 23.0447C7.90145 23.0624 7.81449 22.9741 7.76232 22.9623C7.51884 22.874 7.14783 22.8858 6.82899 23.0741C6.76522 23.1153 6.70145 23.1565 6.64348 23.2095C6.61449 23.2331 6.50435 23.3626 6.48116 23.3979C6.28986 23.6686 6.18551 24.0807 6.26667 24.6575C6.27246 24.7399 6.6087 26.1114 6.63188 26.2115L6.64928 27.1357H0V31.4738C0 31.4738 0 31.4827 0 31.4856V48.8295C0 51.1193 1.82899 52.9764 4.08406 52.9764H25.4493V47.3903C25.2928 47.4256 24.8522 47.4786 24.7014 47.4786Z" fill="#FFC222"/>
<path d="M74.7718 38.526V45.2185H71.2694V40.0663H64.0241V45.2185H60.5217V28.3633H66.9588C72.78 28.3633 74.5023 30.6472 74.5023 33.6925C74.5023 36.4191 73.0494 37.9771 69.2777 38.1276V38.526H74.7718ZM66.9588 36.844C70.0859 36.844 71 36.2951 71 34.1882C71 32.0813 70.0859 31.5856 66.9588 31.5856H64.0241V36.844H66.9588Z" fill="white"/>
<path d="M77.1965 38.8271C77.1965 35.1798 79.5443 32.4532 83.903 32.4532C88.2617 32.4532 90.6095 35.1798 90.6095 38.8271C90.6095 42.4743 88.2617 45.2186 83.903 45.2186C79.5443 45.2186 77.1965 42.4655 77.1965 38.8271ZM87.1071 38.8271C87.1071 36.3484 86.27 35.6756 83.903 35.6756C81.536 35.6756 80.6989 36.3484 80.6989 38.8271C80.6989 41.3058 81.536 41.9963 83.903 41.9963C86.27 41.9963 87.1071 41.3058 87.1071 38.8271Z" fill="white"/>
<path d="M104.763 34.7815L97.9701 41.9963H104.763V45.2186H92.5049V42.8904L99.2979 35.6756H92.5049V32.4532H104.763V34.7815Z" fill="white"/>
<path d="M127.663 45.2186H124.161V35.6756H119.715V45.2186H116.213V35.6756H111.768V45.2186H108.265V32.4532H127.663V45.2186Z" fill="white"/>
<path d="M130.088 38.8271C130.088 35.1798 132.436 32.4532 136.794 32.4532C141.153 32.4532 143.501 35.1798 143.501 38.8271C143.501 42.4743 141.153 45.2186 136.794 45.2186C132.436 45.2186 130.088 42.4655 130.088 38.8271ZM139.999 38.8271C139.999 36.3484 139.161 35.6756 136.794 35.6756C134.427 35.6756 133.59 36.3484 133.59 38.8271C133.59 41.3058 134.427 41.9963 136.794 41.9963C139.161 41.9963 139.999 41.3058 139.999 38.8271Z" fill="white"/>
<path d="M158.396 32.4532L154.114 45.2186H148.726L144.444 32.4532H148.158L151.199 41.6953H151.632L154.672 32.4532H158.386H158.396Z" fill="white"/>
<path d="M173.839 32.4532V49.1845H162.523V45.9622H170.336V42.616C169.528 43.4304 168.21 43.9792 166.593 43.9792C162.36 43.9792 160.695 41.6776 160.695 38.2782V32.4532H164.198V38.1543C164.198 40.1372 165.169 40.7569 167.267 40.7569C169.365 40.7569 170.336 40.1372 170.336 38.1543V32.4532H173.839Z" fill="white"/>
<path d="M64.8482 7.76627V13.1246H73.4654V17.1051H64.8482V24.6069H60.5217V3.78577H75.4266V7.76627H64.8482Z" fill="white"/>
<path d="M91.4723 18.2427H80.9533C81.3218 19.7737 82.4153 20.6266 85.5413 20.6266C86.5397 20.6266 88.0373 20.6266 90.3313 20.1345V24.0494C87.7402 24.5962 86.4684 24.5962 85.2085 24.5962C77.5183 24.5962 76.4248 19.6096 76.4248 16.7227C76.4248 12.3485 78.493 8.82727 84.008 8.82727C89.523 8.82727 91.4604 12.1079 91.4604 16.3946V18.2318L91.4723 18.2427ZM80.7869 15.1808H87.1102C86.9795 13.4311 86.0167 12.8187 83.9486 12.8187C81.8804 12.8187 80.989 13.5186 80.7869 15.1808Z" fill="white"/>
<path d="M118.929 24.6072H114.602V12.8188H109.111V24.6072H104.785V12.8188H99.2935V24.6072H94.967V8.83826H118.929V24.6072Z" fill="white"/>
</g>
<defs>
<clipPath id="clip0_1_1476">
<rect width="174" height="53" fill="white"/>
</clipPath>
</defs>
</svg>
