<svg width="92" height="28" viewBox="0 0 92 28" fill="none" xmlns="http://www.w3.org/2000/svg">
<g clip-path="url(#clip0_72_515)">
<path d="M16.5315 9.10683C16.5729 9.12705 16.6173 9.1457 16.6587 9.16281C17.3775 9.45357 18.2771 9.48156 19.1292 9.23589C19.2012 9.21567 19.2702 9.1939 19.3376 9.17369C19.5675 9.10372 19.7821 9.04153 19.9905 8.99333C19.4326 8.88915 18.6127 8.69168 18.1085 8.36827C17.6089 8.05574 16.979 7.98578 16.4932 7.99666C16.5514 8.16614 16.5269 8.31541 16.4962 8.41647C16.6096 8.58595 16.6158 8.7601 16.602 8.87516C16.5912 8.96534 16.5637 9.04153 16.5299 9.10839L16.5315 9.10683Z" fill="black"/>
<path d="M20.8045 8.91554C20.8689 8.91865 20.9378 8.92643 21.0099 8.93576C21.016 8.93887 21.0267 8.93886 21.0344 8.94197C21.1922 8.97307 21.3348 9.02127 21.4727 9.08813C21.7976 9.24828 21.9616 9.48773 22.1225 9.71941C22.3723 10.0739 22.6497 10.4626 23.4666 10.7503H23.4696C23.511 10.7503 23.5417 10.7503 23.5693 10.7534C23.2949 10.5388 22.9195 10.1392 22.8581 9.54215C22.8198 9.21563 22.8413 8.93886 22.8689 8.66054V8.64655C22.9026 8.20652 22.9195 7.96241 22.616 7.80381C22.3463 7.66077 22.0137 7.71674 21.6612 7.77583C21.3332 7.83491 20.9808 7.894 20.639 7.8147C20.2666 7.72452 20.1057 7.4322 19.9478 7.14766C19.7731 6.83824 19.6122 6.55837 19.206 6.46352C18.9057 6.39355 18.6559 6.44953 18.3509 6.55992C18.3509 6.56303 18.3447 6.56614 18.3263 6.57081C18.265 6.59102 18.2037 6.61901 18.1378 6.64388C17.9968 6.70297 17.8819 6.74806 17.7578 6.79004C17.7516 6.79004 17.747 6.79315 17.744 6.79315C17.6551 6.82425 17.5524 6.85224 17.439 6.88022C17.3808 6.89111 17.37 6.89111 17.3639 6.89111C17.1923 6.92532 17.0221 6.93931 16.8474 6.93309C16.8367 7.21763 16.6313 7.45708 16.3555 7.72763C16.3754 7.7525 16.3938 7.77894 16.406 7.80381C16.9332 7.78671 17.6474 7.8458 18.2083 8.19875C18.9271 8.65277 20.3739 8.86579 20.6574 8.9031C20.7126 8.9031 20.757 8.90621 20.8045 8.91399V8.91554Z" fill="black"/>
<path d="M23.9759 10.7939C23.9759 10.7939 23.982 10.797 23.9866 10.797C24.1399 10.825 24.2778 10.8732 24.3973 10.9354C24.4004 10.9385 24.4035 10.9385 24.4081 10.9416C24.4663 10.9727 24.5215 11.0147 24.5583 11.0427C24.569 11.0489 24.5751 11.0567 24.5828 11.0629C24.9552 11.3925 25.2357 11.8574 25.3904 12.1591C25.3935 11.8854 25.3705 11.6739 25.3184 11.562C25.277 11.4858 25.1713 11.3428 25.0272 11.1593C24.6824 10.7146 24.2134 10.1082 24.1521 9.57643C24.1383 9.46603 24.1322 9.3432 24.1245 9.22192L24.1184 9.11774C24.0878 8.50046 24.0571 7.86763 23.5023 7.51157C22.9966 7.18815 22.405 7.18194 21.9728 7.17883H21.9529C21.7782 7.17883 21.6249 7.17883 21.5085 7.15861C21.2694 7.11352 21.0778 6.74968 20.851 6.32987L20.8372 6.30188C20.6257 5.90695 20.382 5.46226 20.074 5.20104C20.0709 5.20104 20.0678 5.19793 20.0632 5.19482C20.0249 5.18082 19.9881 5.16994 19.9544 5.16372C19.6985 5.13573 19.3736 5.27412 19.0855 5.39695C18.874 5.48713 18.7023 5.5571 18.5797 5.56332C18.5491 5.56332 18.5184 5.56332 18.4878 5.56643C18.1184 5.59442 17.3583 5.64573 16.6548 4.8372C16.5245 4.68793 16.3682 4.59775 16.1889 4.55888C16.1751 4.55577 16.1613 4.54799 16.1506 4.54178C16.1399 4.52778 16.1307 4.5169 16.1199 4.50757C16.0786 4.71903 15.9973 5.07976 15.9897 5.13573C15.9529 5.45293 15.9268 5.59597 15.9146 5.65039C15.91 5.67061 15.91 5.69082 15.9146 5.71103C15.9897 6.02201 16.287 6.18682 16.3897 6.2428C16.4142 6.25679 16.4311 6.26767 16.4449 6.27389L16.4556 6.28011L16.4586 6.28322C16.5782 6.35941 16.7636 6.48069 16.828 6.72792C17.3383 6.7559 17.7169 6.60353 18.0602 6.46825C18.1245 6.44337 18.1874 6.42005 18.2487 6.39517L18.2993 6.37807C18.5797 6.277 18.8878 6.1946 19.251 6.277C19.7368 6.38429 19.9345 6.73569 20.1092 7.04044C20.2563 7.31099 20.3897 7.55355 20.6809 7.62352C20.9889 7.6966 21.3199 7.64062 21.6111 7.58931C21.9835 7.52401 22.3667 7.45715 22.7054 7.6344C23.1299 7.85364 23.0993 8.21747 23.0609 8.67927C23.0364 8.93271 23.0165 9.20637 23.0502 9.5189C23.136 10.3414 23.9085 10.7581 23.9744 10.7923H23.9774L23.9759 10.7939Z" fill="black"/>
<path d="M25.6383 0H14.4873V0.943803L14.5256 0.960906L14.5425 0.967126C14.898 1.1335 15.226 1.38072 15.5831 1.74456C15.8053 1.97312 15.9831 2.26544 16.1026 2.60595L16.1134 2.63394L16.1195 2.66193C16.1885 2.95735 16.2191 3.27921 16.2114 3.61972C16.2084 3.89027 16.1777 4.14371 16.1425 4.35829C16.4061 4.39249 16.6252 4.51377 16.7954 4.70813C17.4344 5.44358 18.1287 5.39538 18.4613 5.37517C18.4812 5.37206 18.5026 5.37206 18.5195 5.36895H18.5609C18.6666 5.36584 18.8352 5.29276 19.013 5.21657C19.321 5.08441 19.6735 4.93514 19.977 4.97401C20.0214 4.97712 20.072 4.99422 20.1302 5.01599C20.1302 5.01599 20.1333 5.01599 20.1363 5.0191C20.1425 5.0191 20.1532 5.02221 20.1609 5.02999C20.1639 5.02999 20.167 5.02999 20.1716 5.0331C20.2635 5.07197 20.3632 5.13727 20.472 5.23056C20.5026 5.25544 20.5363 5.28187 20.5716 5.31453C20.5915 5.33474 20.616 5.35651 20.6406 5.37672L20.6712 5.40782C20.7708 5.50111 20.8658 5.59907 20.9578 5.69858L20.9854 5.72657C21.1386 5.88205 21.2827 6.03132 21.3685 6.07019C21.6291 6.19147 21.7685 6.21946 22.0904 6.14016C22.4536 6.04998 23.3149 6.008 23.6398 6.21635C23.8314 6.33763 24.1363 6.75744 24.5501 7.46957L24.5532 7.48045C24.659 7.52243 24.9256 7.65771 25.1969 8.00755C25.2521 8.08063 25.2965 8.15682 25.3241 8.24078L25.3272 8.24389C25.4712 8.35118 26.0996 8.84096 26.3295 9.28565C26.5624 9.74745 27.1601 11.0722 27.1601 11.7563C27.1601 11.7734 27.1601 11.7874 27.157 11.8014C27.1402 12.1964 27.0268 12.5789 26.9149 12.9474C26.8536 13.1448 26.7954 13.3361 26.7616 13.5102H26.5869C26.6038 13.333 26.6865 13.0422 26.731 12.8929C26.8398 12.5353 26.9532 12.1637 26.967 11.7921C26.967 11.7781 26.9701 11.7641 26.9701 11.7501C26.9701 11.1157 26.3708 9.79565 26.1593 9.37272C26.0122 9.08507 25.6459 8.75544 25.4099 8.55642C25.4482 8.76166 25.4574 8.98712 25.4712 9.22346L25.4743 9.25766C25.4881 9.52821 25.5019 9.79565 25.5463 10.0382C25.577 10.2123 25.6291 10.4409 25.6965 10.7317C25.8436 11.3738 26.0183 12.1404 26.049 12.7266C26.0597 12.8727 26.0551 13.0049 26.0459 13.1215C26.0291 13.2956 25.9816 13.4589 25.9049 13.6035C25.816 13.7916 25.6827 13.9502 25.5111 14.0762C25.4804 14.1011 25.439 14.1275 25.3946 14.1524C25.1279 14.3125 24.8168 14.3638 24.5226 14.3016C24.3953 14.2737 24.2865 14.2223 24.1915 14.1462C24.0505 14.0311 23.9494 13.8554 23.8942 13.6362C23.8329 13.7745 23.7716 13.9409 23.7578 14.1011C23.7517 14.1804 23.7517 14.2845 23.7992 14.3685C23.8099 14.3887 23.8237 14.4074 23.8375 14.4245C24.118 14.7479 24.7785 14.8785 25.0697 14.807H25.0804C25.0804 14.807 25.0835 14.8039 25.0865 14.8039C25.1111 14.7976 25.1371 14.8039 25.1586 14.8147C25.1831 14.8287 25.1969 14.8536 25.203 14.8769C25.2091 14.8909 25.2137 14.9283 25.1785 14.9671C25.1724 14.9702 25.1678 14.9733 25.1616 14.978C25.1555 14.9842 25.1417 14.992 25.131 14.9951C25.1249 14.9982 25.1111 14.9982 25.1034 14.9982C25.0206 15.0184 24.9226 15.0231 24.8091 15.0153C24.4398 14.9982 23.954 14.849 23.6934 14.5566C23.6459 14.5007 23.6107 14.4416 23.5908 14.3685C23.5632 14.2892 23.557 14.1944 23.5662 14.0871C23.58 13.9176 23.6352 13.7466 23.6965 13.6051C23.7793 13.4076 23.8712 13.2677 23.8712 13.2645L23.9218 13.1806C23.9356 13.1526 23.9693 13.1417 23.9969 13.1495C24.0275 13.1604 24.0475 13.1884 24.0475 13.2148V13.2179L24.0444 13.3221C24.0444 13.3641 24.0475 13.4745 24.0781 13.6035C24.1164 13.7559 24.1976 13.93 24.3693 14.0311C24.4245 14.07 24.4858 14.0933 24.5639 14.1104C24.78 14.1555 25.0053 14.1275 25.2137 14.0264C25.2781 13.9984 25.3409 13.9611 25.4022 13.916C25.5187 13.829 25.6137 13.7248 25.6858 13.6035C25.7777 13.4574 25.8329 13.2879 25.8528 13.0997C25.8636 12.9924 25.8636 12.8634 25.8559 12.725C25.8252 12.1559 25.6505 11.3894 25.5141 10.7954L25.4758 10.6322C25.4283 10.4129 25.3839 10.2263 25.3563 10.0693C25.3088 9.81586 25.295 9.54531 25.2812 9.28099C25.2643 8.89849 25.2398 8.57663 25.154 8.33407C25.1233 8.25011 25.0896 8.1817 25.0452 8.12572C24.8153 7.82719 24.6007 7.71213 24.518 7.67792C24.5118 7.67481 24.5042 7.6717 24.498 7.66393C24.4873 7.66082 24.4704 7.65771 24.4674 7.65304C24.4567 7.65304 24.4536 7.64993 24.4475 7.64993C24.4306 7.64371 24.4168 7.62972 24.4091 7.61106L24.3953 7.59085C24.0183 6.9347 23.698 6.48067 23.5371 6.3765C23.2766 6.20702 22.4735 6.24123 22.1348 6.32519C21.7931 6.41226 21.6045 6.39516 21.2904 6.249C21.1678 6.18992 21.0068 6.02354 20.8214 5.8323C20.8015 5.81208 20.78 5.78721 20.7601 5.76699C20.8459 5.91626 20.9317 6.07641 21.016 6.23501C21.2015 6.57863 21.3931 6.93936 21.5402 6.96735C21.6398 6.98445 21.7823 6.98445 21.954 6.98445H21.9708C22.426 6.98756 23.0513 6.99534 23.603 7.35295C24.2421 7.75877 24.2773 8.47401 24.3111 9.10529C24.3172 9.26544 24.3249 9.41004 24.3386 9.5562C24.3938 10.0289 24.8658 10.6353 25.177 11.038L25.1969 11.0629C25.3333 11.2401 25.439 11.3816 25.4881 11.4796C25.6291 11.7672 25.5739 12.3721 25.557 12.5524L25.5402 12.6628C25.5371 12.6939 25.5126 12.7188 25.4819 12.7219C25.4513 12.725 25.4237 12.7079 25.4099 12.6799L25.3716 12.5866C25.3716 12.5866 25.3685 12.5757 25.3685 12.5695C25.2996 12.4094 24.9747 11.6708 24.4628 11.2121C24.4567 11.209 24.4459 11.2012 24.4429 11.1981C24.4367 11.1919 24.4321 11.1873 24.4291 11.181C24.3157 11.094 24.1517 11.0255 23.9509 10.9805H23.9478C23.934 10.9836 23.9203 10.9805 23.9065 10.9742C23.9034 10.9773 23.9034 10.9742 23.9003 10.9742C23.9003 10.9742 23.8983 10.9732 23.8942 10.9711C23.7885 10.9571 23.6919 10.9462 23.5999 10.9462C23.5938 10.9462 23.5831 10.9462 23.5693 10.9431H23.4804C23.4804 10.9431 23.4666 10.9462 23.4605 10.9462C23.2107 10.9494 22.9272 10.9851 22.6222 11.0473C22.4168 11.0893 22.2666 11.1344 22.2191 11.1484C22.2084 11.1515 22.2022 11.1515 22.1992 11.1546C22.0904 11.1857 21.8436 11.2168 21.5524 11.2417C21.5417 11.2448 21.5356 11.2448 21.5279 11.2448C20.826 11.307 19.6061 11.349 19.0758 11.2168C18.9256 11.1779 18.754 11.1297 18.5931 11.0815C18.3632 11.0084 18.0628 10.9214 17.7578 10.8561C17.3272 10.7581 16.9609 10.7317 16.6329 10.7628H16.6084C16.5226 10.7737 16.4413 10.7877 16.3586 10.8079L16.2758 10.8281C16.2758 10.8281 16.2651 10.8312 16.259 10.8312C16.1593 10.8592 16.0674 10.8903 15.9816 10.9245C15.954 10.9354 15.9264 10.9276 15.9065 10.9074C15.8927 10.8934 15.8896 10.8763 15.8896 10.8592C15.8896 10.8421 15.8896 10.839 15.8957 10.8281C15.9019 10.8141 15.9065 10.8001 15.9095 10.7861C15.9095 10.7581 15.9264 10.741 15.9509 10.7301C16.0153 10.7021 16.0812 10.6819 16.1455 10.6648C16.1731 10.6539 16.2007 10.6477 16.2344 10.6399C16.2513 10.6368 16.2727 10.6291 16.2927 10.6228L16.3126 10.6197C16.3846 10.6057 16.4567 10.5917 16.5287 10.5855L16.6038 10.5746C16.9563 10.5358 17.3287 10.5637 17.7839 10.6617C17.8176 10.6726 17.8421 10.6757 17.8697 10.6819C18.144 10.7441 18.3969 10.8203 18.6222 10.8872L18.8137 10.9431C18.9226 10.9742 19.0252 11.0053 19.1218 11.0302C19.5157 11.1266 20.4076 11.1204 21.1065 11.0784C21.2536 11.0675 21.3931 11.0613 21.5203 11.0504C21.8206 11.0255 22.0613 10.9944 22.1425 10.9665C22.1486 10.9665 22.1563 10.9634 22.1624 10.9634L22.1655 10.9602C22.2068 10.9494 22.2881 10.926 22.4015 10.898C22.4567 10.8841 22.518 10.8701 22.59 10.8561L22.6482 10.8452C22.7065 10.8312 22.7708 10.8203 22.8367 10.8141C22.8429 10.811 22.8505 10.811 22.8567 10.8079C22.8842 10.8079 22.9118 10.8016 22.9425 10.797L22.9624 10.7939C22.9869 10.7908 23.013 10.7877 23.0406 10.783C22.4275 10.4922 22.1747 10.1299 21.9662 9.83141C21.8053 9.59818 21.6658 9.40071 21.3915 9.26855C21.2643 9.20635 21.1356 9.16126 21.0022 9.13327C20.9915 9.13327 20.9777 9.13016 20.9685 9.12706C20.8551 9.10995 20.757 9.09907 20.6636 9.09907H20.6605C20.2666 9.09907 19.8743 9.21724 19.4114 9.35251L19.1816 9.42248C18.2927 9.67903 17.344 9.65104 16.5885 9.34318C16.5379 9.32297 16.4827 9.29809 16.4275 9.26699C16.3417 9.35717 16.2421 9.41937 16.1578 9.46135C16.2022 9.73967 16.1333 10.0444 15.9693 10.2808C15.7532 10.5855 15.4007 10.7566 14.9808 10.7566C14.898 10.7566 14.8137 10.7503 14.7279 10.7394C14.6896 10.7363 14.6329 10.7255 14.4888 10.6912V13.6066H17.9923L17.9816 14.0917C17.8758 14.5115 17.7961 14.8381 17.79 14.9112C17.7793 14.9811 17.7762 15.0464 17.7762 15.1086C17.7762 15.7757 18.3233 15.8969 18.5808 15.8021C18.6084 15.7959 18.6528 15.7508 18.7693 15.757C19.0022 15.7741 18.9272 16.2359 19.2137 16.2748H19.2383C19.4329 16.2748 19.5386 15.9374 19.5463 15.9343C19.5463 15.9405 19.577 16.0415 19.6459 16.1146C19.6567 16.1255 19.6658 16.1348 19.6796 16.1457C19.7241 16.1846 19.7793 16.2079 19.8467 16.1908C19.8942 16.1846 19.9463 16.1566 20.0076 16.1037C20.0551 16.0649 20.1042 16.0104 20.1578 15.9374C20.213 15.8612 20.3463 15.9265 20.449 15.9887C20.5134 16.0275 20.9149 16.5298 21.1019 16.5189C21.1938 16.5127 21.2352 16.4458 21.3072 16.3354C21.3517 16.2623 21.6122 15.6761 22.2268 15.5689C22.3402 15.5486 22.7157 15.6279 22.8904 15.6482C22.6068 15.4927 22.3126 15.2206 22.1134 14.7292C22.1103 14.7183 22.1072 14.7012 22.1072 14.6904C22.1072 14.6515 22.1272 14.6173 22.1655 14.6002C22.216 14.58 22.2712 14.6033 22.2927 14.6515C22.5931 15.3994 23.4712 15.7104 23.6214 15.785C23.6444 15.7959 23.6643 15.8036 23.6904 15.8083C23.8789 15.8394 24.1042 15.8627 24.3417 15.8705C24.6084 15.8767 24.8919 15.8565 25.1662 15.7912C25.4084 15.701 25.6444 15.5689 25.8436 15.3714C26.1793 15.034 26.38 14.7432 26.5103 14.4587V14.4525C26.544 14.3405 26.5685 14.2208 26.5823 14.0902V14.0482C26.5854 14.0311 26.5854 14.0093 26.5854 13.9969V13.6051H27.8988V2.29187C27.8988 1.02621 26.8873 0.00155486 25.6413 0.00155486L25.6383 0Z" fill="black"/>
<path d="M15.7609 8.50511C15.7609 8.50511 15.8682 8.47401 15.9387 8.40249C15.9571 8.38694 15.9724 8.36517 15.9877 8.3434C15.9908 8.34029 15.9908 8.33718 15.9939 8.33407C16.0031 8.31231 16.0123 8.29365 16.0184 8.27188C16.0184 8.26877 16.0153 8.26566 16.0153 8.26255C16.0215 8.20968 16.0123 8.1506 15.9632 8.07908C15.9203 8.01999 15.859 7.95469 15.764 7.88005C15.6874 7.82719 15.7548 7.69036 15.8161 7.58463C15.8529 7.51932 16.3494 7.11195 16.3402 6.91915C16.3341 6.82586 16.2697 6.78543 16.1594 6.71079C16.0858 6.66726 15.5065 6.39982 15.3992 5.77477C15.3808 5.65971 15.3992 5.60373 15.4238 5.52288C15.4299 5.50733 15.4575 5.27721 15.4789 5.09996C15.3257 5.38916 15.0559 5.68769 14.5686 5.88983C14.5594 5.89294 14.541 5.89605 14.5318 5.89605C14.495 5.89605 14.4582 5.87428 14.4429 5.83696C14.4215 5.7841 14.446 5.72812 14.495 5.70946C15.2153 5.41093 15.5249 4.55575 15.6077 4.36917C15.6261 4.33185 15.6353 4.29454 15.6414 4.25411C15.672 4.06753 15.6966 3.84984 15.6996 3.62283C15.7057 3.34918 15.6843 3.05997 15.6199 2.78321C15.531 2.53443 15.3992 2.29498 15.2031 2.09285C14.872 1.75078 14.5839 1.54554 14.3019 1.41493C14.3019 1.41493 14.2999 1.41389 14.2958 1.41182C14.1854 1.38072 14.0659 1.35584 13.9372 1.34029H13.8973C13.8789 1.33718 13.8575 1.33718 13.8452 1.33718H13.4559V1.33407C13.4314 1.33718 13.3977 1.33407 13.3609 1.33096C13.1831 1.3092 12.8981 1.23145 12.751 1.18792C12.3954 1.07597 12.0276 0.960906 11.6628 0.948467C11.6475 0.948467 11.6353 0.945358 11.6199 0.945358C10.9916 0.945358 9.68889 1.55486 9.26897 1.76944C8.98391 1.9187 8.659 2.29187 8.46284 2.53132C8.66513 2.494 8.88889 2.48467 9.12184 2.46912L9.15556 2.46602C9.42222 2.45047 9.68889 2.43803 9.92797 2.39138C10.0996 2.36028 10.3264 2.31053 10.6146 2.239C11.249 2.08974 12.0092 1.91248 12.5885 1.88139C12.7326 1.86895 12.8644 1.87517 12.9808 1.8845C13.1525 1.90315 13.3119 1.9498 13.4559 2.02754C13.6429 2.11773 13.7992 2.25455 13.9249 2.4287C13.9464 2.4598 13.9739 2.50022 13.9985 2.54687C14.1579 2.81741 14.21 3.13461 14.1456 3.43314C14.118 3.56375 14.069 3.6757 13.9923 3.7721C13.8789 3.91515 13.7042 4.01777 13.4866 4.07375C13.6245 4.13905 13.79 4.20124 13.9464 4.21368C14.0261 4.2199 14.1303 4.2199 14.213 4.17326C14.2314 4.16082 14.2498 4.14838 14.2682 4.13283C14.587 3.84984 14.7157 3.17503 14.6452 2.87961V2.87028C14.6452 2.87028 14.6421 2.86717 14.6421 2.86406C14.633 2.83918 14.6421 2.8112 14.6513 2.78943C14.6667 2.76455 14.6881 2.75211 14.7126 2.74589C14.728 2.73656 14.7648 2.73345 14.8015 2.76766C14.8046 2.77699 14.8107 2.7801 14.8138 2.78632C14.8199 2.79254 14.8261 2.80809 14.8291 2.81741C14.8322 2.82363 14.8322 2.83918 14.8322 2.8454C14.8536 2.92936 14.8567 3.02888 14.8506 3.14394C14.8322 3.52021 14.6851 4.01466 14.3969 4.27899C14.3418 4.32874 14.2835 4.36295 14.213 4.38472C14.1333 4.41271 14.0414 4.41892 13.9341 4.4096C13.7655 4.39405 13.5969 4.33807 13.4559 4.27588C13.2628 4.19191 13.1249 4.09862 13.1218 4.09862L13.0391 4.04576C13.0115 4.03332 12.9992 3.99911 13.0084 3.97112C13.0176 3.94003 13.0452 3.91826 13.0728 3.91826H13.0759L13.1801 3.92137C13.2199 3.92137 13.3303 3.91826 13.4559 3.88716C13.6092 3.84984 13.7808 3.76588 13.8789 3.59174C13.9157 3.53576 13.9402 3.47357 13.9586 3.39271C14.0015 3.17192 13.9739 2.9418 13.8759 2.73034C13.8483 2.66504 13.8115 2.60284 13.7655 2.53754C13.6797 2.41937 13.5785 2.32297 13.4559 2.24833C13.3119 2.15504 13.1433 2.09907 12.9594 2.08041C12.8521 2.06797 12.7264 2.06797 12.5885 2.07419C12.0245 2.1084 11.2674 2.28565 10.6789 2.42248L10.5195 2.46291C10.3019 2.50955 10.118 2.5562 9.96169 2.58418C9.71035 2.63394 9.44368 2.64638 9.18314 2.66193C8.80613 2.67748 8.48736 2.70235 8.24521 2.78943C8.16245 2.82052 8.09502 2.85473 8.03985 2.90138C7.74559 3.13461 7.63218 3.3554 7.59847 3.43625C7.59234 3.44558 7.58927 3.4518 7.58314 3.45802C7.58008 3.46735 7.57701 3.48601 7.57395 3.48912C7.57395 3.50155 7.57088 3.50466 7.57088 3.51088C7.56169 3.52954 7.54943 3.54198 7.53103 3.5482L7.51264 3.56375C6.86284 3.94625 6.41226 4.27277 6.31111 4.43758C6.14253 4.70191 6.17625 5.51977 6.259 5.86495C6.34483 6.21324 6.32644 6.40604 6.18238 6.72634C6.12414 6.85073 5.95862 7.01555 5.77165 7.20213C5.75019 7.2239 5.72567 7.24567 5.70422 7.26433C5.85441 7.17725 6.01073 7.09018 6.17011 7.00311C6.51034 6.81653 6.8659 6.62061 6.89349 6.47135C6.91188 6.36872 6.91188 6.22257 6.91188 6.04842V6.03287C6.91494 5.56952 6.92107 4.93203 7.27356 4.37228C7.6751 3.71924 8.38314 3.68503 9.00843 3.65082C9.16475 3.64149 9.30881 3.63527 9.45287 3.62283C9.92184 3.56686 10.5226 3.08485 10.9211 2.76766L10.9456 2.749C11.1203 2.60906 11.2613 2.50022 11.3563 2.45047C11.6414 2.31053 12.2391 2.36339 12.4169 2.38205L12.5272 2.40071C12.5579 2.40382 12.5824 2.4287 12.5854 2.4598C12.5885 2.49089 12.5701 2.51888 12.5425 2.53132L12.4506 2.57175C12.4506 2.57175 12.4414 2.57486 12.4352 2.57486C12.2759 2.64327 11.5464 2.9729 11.0927 3.49534C11.0897 3.50466 11.0805 3.51399 11.0774 3.5171C11.0713 3.52332 11.0682 3.52954 11.0621 3.53265C10.9762 3.64771 10.9057 3.81253 10.8628 4.01777V4.02399C10.8659 4.03643 10.8628 4.05198 10.8536 4.06442C10.8598 4.06753 10.8536 4.06753 10.8536 4.07064C10.8536 4.07064 10.8526 4.07271 10.8506 4.07685C10.8383 4.1857 10.8261 4.28521 10.8261 4.3785C10.8261 4.38472 10.8261 4.39405 10.823 4.4096V4.49978C10.823 4.49978 10.8261 4.51222 10.8261 4.52155C10.8322 4.77343 10.8659 5.06264 10.9272 5.37361C10.9671 5.58196 11.013 5.73745 11.0253 5.7841C11.0314 5.79654 11.0314 5.80275 11.0345 5.80586C11.0651 5.91781 11.0958 6.16659 11.1203 6.46513C11.1234 6.47446 11.1234 6.48068 11.1234 6.4869C11.1847 7.20213 11.2245 8.44602 11.0958 8.98401C11.0559 9.13949 11.01 9.31364 10.9609 9.47534C10.8904 9.70857 10.8046 10.0164 10.7372 10.3274C10.6421 10.7659 10.6146 11.139 10.6452 11.4718V11.4967C10.6513 11.5589 10.6605 11.6211 10.6759 11.6833C10.7218 11.6895 10.7678 11.7019 10.8138 11.7112C10.8291 11.7143 10.8444 11.7206 10.8598 11.7268C11.1908 11.8481 11.4728 12.0222 11.6966 12.2492C11.9602 12.5104 12.1655 12.7654 12.3249 13.0391C12.3678 13.1075 12.4659 13.2941 12.5149 13.4869C12.5149 13.4962 12.518 13.5056 12.518 13.5118C12.5272 13.5553 12.5333 13.602 12.5364 13.6517H13.4559V10.0849L13.9372 10.0973C14.354 10.203 14.6759 10.2839 14.7464 10.2901C14.8169 10.3025 14.8812 10.3056 14.9425 10.3056C15.6015 10.3056 15.7241 9.749 15.6291 9.48778C15.623 9.4598 15.577 9.41315 15.5862 9.29498C15.6015 9.05864 16.0582 9.13638 16.0981 8.84407V8.81919C16.0981 8.62017 15.764 8.51133 15.7609 8.50511ZM5.31801 9.60595C5.31494 9.58418 5.31494 9.56242 5.31188 9.54687V9.50333C5.30881 9.3976 5.23525 9.22657 5.15862 9.0462C5.02989 8.73212 4.88276 8.37139 4.91954 8.06353C4.92261 8.01688 4.941 7.96402 4.95939 7.90493C4.95939 7.90493 4.95939 7.90182 4.96552 7.89871C4.96552 7.89249 4.96858 7.88005 4.97471 7.87383C4.97471 7.87072 4.97471 7.86761 4.97778 7.8645C5.01456 7.77121 5.08199 7.66859 5.17395 7.55664C5.19847 7.52554 5.22605 7.49134 5.25671 7.45713C5.2751 7.43536 5.29655 7.41048 5.31801 7.38561L5.34866 7.35451C5.44061 7.255 5.5387 7.1586 5.63678 7.06219L5.66437 7.03421C5.81762 6.87872 5.96782 6.73256 6.0046 6.64549C6.12414 6.38116 6.15172 6.23812 6.07203 5.91159C5.98314 5.54154 5.9433 4.66459 6.14866 4.33185C6.2682 4.13905 6.68506 3.82808 7.38697 3.40515L7.39923 3.40204C7.43908 3.2932 7.57395 3.02266 7.92031 2.749C7.99081 2.69303 8.06743 2.64638 8.15019 2.61839L8.15326 2.61528C8.26054 2.46912 8.74483 1.82852 9.18314 1.59529C9.63985 1.35895 10.9517 0.749445 11.6261 0.749445C11.6444 0.749445 11.6567 0.749445 11.672 0.752554C12.0644 0.771213 12.4414 0.883163 12.8061 0.998223C12.9992 1.06353 13.1893 1.12261 13.3609 1.15682C13.3916 1.16615 13.4253 1.16926 13.4559 1.17859V0H2.26513C1.01456 0 0 1.02932 0 2.29809V13.6517H3.00996C2.90268 13.1884 2.88736 13.1168 2.88123 13.0764C2.81686 12.5913 2.94866 12.2803 3.06513 12.1155C3.08659 12.0875 3.16015 11.9911 3.22146 11.9351C3.27969 11.8823 3.33487 11.845 3.37778 11.817C3.38084 11.8139 3.38697 11.8108 3.3931 11.8076C3.55556 11.7143 3.74253 11.6615 3.93257 11.6615C3.99694 11.6615 4.06437 11.6677 4.12567 11.6801C4.12874 11.6708 4.13487 11.6584 4.141 11.649C4.19004 11.5433 4.24828 11.4594 4.32184 11.3909C4.42605 11.2945 4.54866 11.2386 4.67739 11.223C4.70192 11.2168 4.72337 11.2168 4.74483 11.2168C5.38238 10.5917 5.33946 9.92936 5.31801 9.60595ZM6.32644 9.82363L6.31111 9.77388C6.20996 9.48778 6.1272 9.1737 6.20996 8.80364C6.31724 8.3092 6.6636 8.10706 6.96398 7.92981C7.23372 7.78054 7.4728 7.64371 7.5433 7.34829C7.61379 7.03421 7.55862 6.69836 7.50651 6.39982C7.44215 6.02044 7.37778 5.63172 7.55249 5.28654C7.77012 4.85429 8.12874 4.88538 8.58544 4.92581C8.83678 4.94758 9.10651 4.96935 9.41609 4.93514C10.2314 4.84807 10.6421 4.06131 10.6759 3.996V3.98978C10.6759 3.98978 10.6789 3.98356 10.6789 3.98045C10.7065 3.82497 10.7556 3.68503 10.8169 3.56375C10.8199 3.56064 10.8199 3.55442 10.823 3.55131C10.8536 3.49223 10.8966 3.43625 10.9241 3.39893C10.9303 3.3896 10.9364 3.38028 10.9456 3.37406C11.2705 2.99467 11.7303 2.70857 12.0276 2.55309C11.7579 2.54998 11.5494 2.57486 11.4391 2.62461C11.3625 2.66815 11.2215 2.77699 11.0406 2.92315C10.6023 3.27454 10.0015 3.75033 9.47433 3.81253C9.36399 3.82808 9.24444 3.8343 9.1249 3.84052L9.02069 3.84984C8.41073 3.88094 7.78544 3.91204 7.43295 4.4749C7.11418 4.99112 7.10498 5.5944 7.10192 6.03287V6.05153C7.10192 6.2319 7.10192 6.38738 7.08353 6.50555C7.03755 6.74811 6.67586 6.94402 6.26207 7.17414L6.23448 7.18969C5.84215 7.40426 5.40383 7.65304 5.14636 7.96402C5.14636 7.96713 5.1433 7.97334 5.14023 7.97645C5.1249 8.01377 5.11571 8.05109 5.10958 8.08841C5.08199 8.34962 5.21686 8.67925 5.33946 8.97157C5.42835 9.18614 5.49579 9.36028 5.50192 9.48778C5.50192 9.51888 5.50192 9.54998 5.50805 9.58107C5.5295 9.92315 5.57548 10.598 4.97778 11.2572C5.02989 11.2759 5.07586 11.3008 5.12184 11.3319C5.18927 11.307 5.25977 11.2945 5.3364 11.2945C5.50192 11.2945 5.6613 11.3598 5.81456 11.4873C6.09655 11.1919 6.34176 10.968 6.62989 10.968C6.63602 10.968 6.64521 10.968 6.65441 10.9711C6.62375 10.598 6.50728 10.2932 6.4 10.0164C6.37548 9.95113 6.35096 9.88894 6.32644 9.82363ZM10.823 9.25144C10.8536 9.13949 10.8843 9.03376 10.9088 8.93736C11.0069 8.53621 10.9977 7.62817 10.9579 6.91604C10.9487 6.76677 10.9395 6.62372 10.9303 6.49622C10.9057 6.18836 10.8751 5.9458 10.8475 5.86184C10.8475 5.85562 10.8444 5.84629 10.8444 5.84007L10.8414 5.83696C10.8322 5.79654 10.8077 5.71257 10.7801 5.59751C10.7648 5.54154 10.7525 5.47934 10.7372 5.40471L10.728 5.34562C10.7126 5.28654 10.7034 5.22123 10.6973 5.15593C10.6943 5.1466 10.6943 5.14038 10.6912 5.13416C10.6912 5.10617 10.682 5.07819 10.6789 5.04709L10.6759 5.02532C10.6728 5.00044 10.6697 4.97246 10.6667 4.94447C10.3785 5.56952 10.0199 5.82763 9.72567 6.03909C9.49579 6.20391 9.29962 6.34696 9.17088 6.62372C9.10651 6.75433 9.0636 6.88494 9.03602 7.02177C9.03602 7.0311 9.03295 7.04665 9.02989 7.05598C9.01149 7.17104 9.0023 7.27055 9.0023 7.36695V7.37006C9.0023 7.77121 9.11877 8.16926 9.25058 8.64194L9.32107 8.87517C9.57548 9.7801 9.54789 10.7441 9.24138 11.5153C9.21686 11.5775 9.18621 11.6459 9.14943 11.7175C9.28736 11.6801 9.42835 11.6522 9.57241 11.6366C9.57854 11.6366 9.59081 11.6366 9.60307 11.6335C9.64598 11.6304 9.71341 11.6273 9.77165 11.6242C9.8023 11.6242 9.82682 11.6211 9.83295 11.6211C9.84521 11.6211 9.8636 11.6179 9.87586 11.6179H9.97395C10.1487 11.6179 10.3172 11.6273 10.4797 11.6522C10.4766 11.6273 10.4736 11.6024 10.4705 11.5775L10.4613 11.4998C10.4215 11.1422 10.449 10.7628 10.5471 10.2994C10.5563 10.2652 10.5594 10.2403 10.5655 10.2123C10.6268 9.93247 10.7034 9.67437 10.7678 9.44425L10.823 9.25144ZM8.11341 9.86406C8.56092 9.13327 8.77241 7.65926 8.8092 7.37006C8.8092 7.31408 8.81226 7.26744 8.81839 7.22079C8.82146 7.15238 8.83065 7.08396 8.83985 7.00933C8.84291 7.00311 8.84291 6.99378 8.84598 6.98756C8.87663 6.82585 8.92567 6.6797 8.99004 6.53976C9.14943 6.21013 9.38544 6.0422 9.61533 5.87739C9.96475 5.6255 10.351 5.34251 10.636 4.50911V4.506C10.636 4.46557 10.636 4.43447 10.6391 4.40649C10.4245 4.68325 10.0322 5.06886 9.44061 5.13105C9.11877 5.16837 8.84291 5.1466 8.57012 5.11861H8.55479C8.11954 5.08441 7.8774 5.06886 7.72107 5.37672C7.58008 5.65349 7.63525 5.98934 7.69349 6.35007C7.75172 6.68281 7.80996 7.04354 7.73027 7.39183C7.64138 7.77121 7.35326 7.93292 7.07126 8.09462C6.76782 8.27188 6.48889 8.43669 6.39694 8.85029C6.32644 9.15504 6.38161 9.41004 6.49195 9.72101C6.49502 9.72101 6.49808 9.72723 6.50115 9.74589C6.52261 9.80809 6.55019 9.87028 6.57471 9.93558C6.63295 10.0786 6.67586 10.1968 6.71877 10.3243C6.71877 10.3305 6.72184 10.3336 6.72184 10.3367C6.75249 10.4269 6.78008 10.5327 6.80766 10.6477C6.81686 10.7068 6.81686 10.7161 6.81686 10.7223C6.83831 10.8187 6.85058 10.9151 6.85364 11.0147C7.02529 11.0862 7.12337 11.2292 7.18774 11.3225L7.20307 11.3474C7.20307 11.3474 7.22452 11.3816 7.24291 11.4189C7.25517 11.4438 7.27356 11.4749 7.29195 11.506C7.32261 11.5589 7.37778 11.6397 7.45441 11.7175C7.54023 11.8045 7.62912 11.8636 7.73027 11.9009C7.69349 11.3567 7.71801 10.5109 8.11341 9.86406ZM9.1341 8.92492C9.11571 8.8534 9.09425 8.78498 9.0728 8.71346C9.00536 8.48023 8.94406 8.26255 8.89502 8.04798C8.7908 8.61706 8.59464 9.45358 8.27586 9.96357C7.89579 10.5886 7.88046 11.4096 7.92031 11.9196C7.99694 11.9072 8.09196 11.8916 8.15939 11.8792C8.24215 11.8667 8.31877 11.8543 8.37701 11.845C8.3954 11.845 8.41073 11.8418 8.42912 11.8418C8.50881 11.8418 8.58238 11.8636 8.64981 11.904C8.72644 11.8667 8.80613 11.8325 8.88582 11.8014C8.95939 11.6739 9.02069 11.5558 9.0636 11.4407C9.35172 10.7099 9.37931 9.79254 9.1341 8.92492Z" fill="#4C6E55"/>
<path d="M16.3294 15.087C16.3432 15.0839 16.357 15.0839 16.3738 15.0839C16.6512 15.0839 17.0436 15.1881 17.4344 15.328C17.3869 15.1881 17.3623 15.0326 17.3623 14.8678C17.3623 14.7838 17.3685 14.6968 17.3792 14.6097C17.3823 14.5677 17.393 14.5024 17.4344 14.3345H14.5439V15.5115C14.7432 15.4773 14.9623 15.4073 15.1968 15.3343C15.56 15.2192 15.9386 15.1041 16.3294 15.087Z" fill="#6D22B3"/>
<path d="M27.0852 14.3359L27.0515 14.4059L27.0453 14.423C26.8798 14.7853 26.6362 15.1196 26.276 15.4819C26.0492 15.7089 25.7611 15.8892 25.4239 16.0105L25.3963 16.0214L25.3687 16.0276C25.0775 16.0976 24.7572 16.1287 24.4216 16.1209C23.7932 16.11 23.2599 15.9592 23.1067 15.9266C22.9442 15.8924 22.489 15.8286 22.4001 15.8146C22.3894 15.8131 22.3787 15.8146 22.368 15.8146C22.0507 15.8846 21.8837 16.1956 21.827 16.3013C21.8132 16.3262 21.7856 16.3713 21.7856 16.3713C21.6967 16.5143 21.545 16.7475 21.2093 16.7724C20.8967 16.7895 20.6469 16.5703 20.3588 16.2671C20.0814 16.4863 19.827 16.4614 19.6783 16.4132C19.6124 16.4583 19.548 16.4863 19.4867 16.5034C19.6645 16.6978 19.7994 16.8797 19.8499 16.9497L19.853 16.9528C19.9358 16.9808 20.0109 17.0259 20.0829 17.0818C20.4293 17.357 20.5641 17.6291 20.604 17.7364L20.6147 17.7395C21.3181 18.1609 21.7335 18.4703 21.8545 18.6662C22.0599 18.9974 22.0201 19.8744 21.9296 20.2444C21.8499 20.5725 21.8775 20.714 21.9986 20.9799C22.0369 21.0669 22.184 21.2131 22.3388 21.3701L22.3664 21.3981C22.466 21.4914 22.5626 21.5894 22.6545 21.6904L22.6852 21.7215C22.7051 21.7464 22.7266 21.7697 22.7465 21.7915C22.7771 21.8257 22.8047 21.8615 22.8293 21.8926C22.9212 22.0045 22.9871 22.1056 23.0254 22.1989C23.0285 22.202 23.0285 22.2051 23.0285 22.2098C23.0346 22.216 23.0392 22.2269 23.0392 22.2346C23.0423 22.2378 23.0423 22.2409 23.0423 22.2409C23.0622 22.3 23.0806 22.3528 23.0837 22.3979C23.122 22.7073 22.9733 23.0665 22.843 23.3806C22.768 23.5609 22.6959 23.732 22.6913 23.8408V23.8828C22.6883 23.8999 22.6883 23.9217 22.6852 23.9419C22.6653 24.2793 22.6162 24.9868 23.3442 25.6382C23.5404 25.8155 23.6599 26.0425 23.6936 26.3146C23.6998 26.3426 23.6829 26.3737 23.6553 26.3877C23.6446 26.3908 23.6354 26.3908 23.6277 26.3908C23.6078 26.3908 23.5863 26.3846 23.5725 26.3659C23.5557 26.3457 23.5342 26.3208 23.5066 26.296C23.5005 26.2851 23.4929 26.2711 23.4898 26.2571C23.4515 26.0767 23.3626 25.915 23.2155 25.7829C22.4155 25.0661 22.4676 24.2917 22.4952 23.9155C22.4982 23.8844 22.4982 23.8533 22.4982 23.8222C22.5044 23.6962 22.5733 23.5221 22.6637 23.306C22.7833 23.0136 22.9212 22.6825 22.8936 22.4212C22.8875 22.387 22.8768 22.3482 22.863 22.3093C22.8599 22.3062 22.8568 22.3031 22.8568 22.2984C22.5994 21.9843 22.1595 21.7371 21.7687 21.5225L21.7411 21.5085C21.3258 21.2784 20.9657 21.084 20.9212 20.8399C20.9013 20.7218 20.9013 20.5647 20.9013 20.3875V20.3673C20.8982 19.9288 20.8906 19.3255 20.5718 18.8108C20.2178 18.2464 19.594 18.2153 18.9825 18.1842L18.8798 18.178C18.7603 18.1718 18.6392 18.164 18.5304 18.15C18.0047 18.0878 17.404 17.6105 16.9657 17.2591C16.7833 17.1129 16.6423 17.0041 16.5672 16.9637C16.4568 16.9108 16.2484 16.8875 15.9771 16.8906C16.276 17.0476 16.7358 17.3322 17.0622 17.7131C17.0683 17.7193 17.076 17.7271 17.0821 17.738C17.1097 17.7769 17.1511 17.8313 17.1817 17.8919C17.1848 17.895 17.1848 17.8981 17.1879 17.9028C17.2492 18.0241 17.2982 18.164 17.3258 18.3211C17.3258 18.3242 17.3289 18.3273 17.3289 18.3319V18.335C17.3626 18.4019 17.7748 19.1887 18.5886 19.2757C18.8982 19.3099 19.1695 19.2897 19.4193 19.2649C19.876 19.226 20.2362 19.1949 20.4522 19.6271C20.627 19.9723 20.5626 20.3626 20.4967 20.742C20.4446 21.0374 20.3909 21.3764 20.463 21.6889C20.5319 21.9843 20.7725 22.1211 21.0392 22.2704C21.3411 22.4477 21.6875 22.6498 21.7948 23.1442C21.8775 23.5127 21.7948 23.8268 21.6952 24.1129L21.6783 24.1658C21.6538 24.228 21.6308 24.2917 21.6063 24.357C21.4622 24.7255 21.3013 25.1438 21.3519 25.7113C21.3519 25.7284 21.3457 25.7502 21.3319 25.7642C21.3212 25.7782 21.3013 25.7844 21.2844 25.7844C21.2783 25.7844 21.2676 25.7875 21.2538 25.7953C21.2476 25.7984 21.2339 25.7984 21.2262 25.7984C21.1879 25.7984 21.1603 25.7735 21.1572 25.7362C21.1327 25.5061 21.1434 25.2837 21.1879 25.0645C21.1879 25.0583 21.1879 25.0474 21.1986 24.9883C21.2262 24.8733 21.2538 24.7691 21.2844 24.6789C21.2844 24.6758 21.2875 24.6727 21.2875 24.6649C21.3289 24.539 21.3733 24.4208 21.4316 24.2777C21.4561 24.2109 21.4837 24.1487 21.5036 24.0865C21.5066 24.0694 21.5097 24.0616 21.5143 24.0616C21.6247 23.7522 21.6798 23.4972 21.6109 23.1909C21.5189 22.7757 21.24 22.6125 20.935 22.4352C20.653 22.2751 20.3649 22.1118 20.276 21.7324C20.1963 21.3841 20.2561 21.025 20.3143 20.6907C20.3726 20.3315 20.4277 19.9941 20.2867 19.7189C20.1289 19.4095 19.8883 19.4266 19.453 19.4608H19.4392C19.1649 19.4888 18.8906 19.509 18.5672 19.4717C17.9771 19.4095 17.5817 19.0254 17.3687 18.7471C17.3718 18.7751 17.3718 18.8062 17.3718 18.8482V18.8513C17.6568 19.6831 18.0415 19.9661 18.3909 20.2195C18.6208 20.3828 18.8584 20.5507 19.0162 20.8819C19.0821 21.0219 19.1296 21.168 19.1603 21.3282C19.1634 21.3344 19.1634 21.3453 19.1664 21.353C19.1771 21.4261 19.1833 21.4961 19.1863 21.5614C19.1925 21.6096 19.1971 21.6547 19.1971 21.7107C19.2354 21.9999 19.4438 23.4723 19.8944 24.2047C20.4293 25.0785 20.2852 26.3193 20.227 26.6816C20.2239 26.7127 20.1932 26.7375 20.1611 26.7375C20.1411 26.7375 20.1273 26.7344 20.0921 26.7267C20.0584 26.7158 20.0339 26.6816 20.04 26.6458C20.0952 26.3037 20.2316 25.1314 19.7273 24.3057C19.4086 23.7942 19.2124 22.9577 19.1097 22.3901C19.0622 22.6032 18.9994 22.8224 18.9319 23.0556C18.912 23.1256 18.8906 23.1956 18.8706 23.2686C18.627 24.1362 18.6545 25.0521 18.9427 25.7829C19.0178 25.9819 19.1388 26.1871 19.2967 26.4406C19.3105 26.4654 19.3105 26.4965 19.2936 26.5214C19.2798 26.5385 19.2599 26.5463 19.2385 26.5463H19.2185C19.1986 26.5401 19.1771 26.5323 19.1634 26.5292C19.1388 26.5292 19.1158 26.5183 19.1051 26.4981C18.9442 26.2431 18.8369 26.0378 18.7649 25.8575C18.4599 25.0878 18.4323 24.1238 18.6852 23.2173L18.7542 22.9841C18.8875 22.5145 19.0055 22.1134 19.0055 21.7122V21.7091C19.0055 21.6158 18.9948 21.5147 18.9779 21.3997C18.9748 21.3888 18.9718 21.3748 18.9718 21.3655C18.9442 21.2302 18.8998 21.098 18.8384 20.969C18.7082 20.6907 18.512 20.5476 18.2821 20.3844C17.9863 20.1713 17.6293 19.9148 17.3411 19.2913C17.3381 19.3193 17.335 19.3473 17.3304 19.3721L17.3273 19.3924C17.3243 19.4235 17.3166 19.4514 17.3166 19.4794C17.3135 19.4856 17.3135 19.4934 17.3105 19.4996C17.3044 19.5665 17.2936 19.6318 17.2798 19.6909L17.2691 19.75C17.2553 19.8231 17.2415 19.8852 17.2277 19.9412C17.2001 20.0563 17.1756 20.1402 17.1664 20.1822L17.1634 20.1853C17.1634 20.1853 17.1603 20.1993 17.1603 20.2056C17.1327 20.2895 17.1021 20.5336 17.0775 20.8399C17.0668 20.969 17.0607 21.112 17.0499 21.2613C17.0086 21.9719 17.0024 22.8815 17.0975 23.2811C17.122 23.379 17.1526 23.4832 17.1833 23.5952L17.2385 23.7895C17.3044 24.0196 17.3794 24.2777 17.4407 24.5561C17.4469 24.584 17.4515 24.6089 17.4607 24.6431C17.5572 25.1065 17.5848 25.4859 17.5465 25.845L17.5358 25.9212C17.5296 25.9943 17.5158 26.0674 17.5021 26.1405L17.499 26.1607C17.4929 26.1809 17.4852 26.2027 17.4821 26.2198C17.476 26.254 17.4683 26.282 17.4576 26.31C17.4407 26.3768 17.4193 26.4421 17.3917 26.509C17.381 26.5339 17.3641 26.551 17.3365 26.551C17.3227 26.5541 17.3089 26.5572 17.2952 26.5649C17.2844 26.5712 17.2752 26.5712 17.2645 26.5712C17.2476 26.5712 17.2308 26.5681 17.217 26.5541C17.1971 26.5338 17.1894 26.5059 17.2001 26.4779C17.2339 26.3908 17.266 26.2975 17.2921 26.1964C17.2921 26.1902 17.2952 26.1824 17.2952 26.1793L17.3151 26.0954C17.335 26.0114 17.3488 25.9275 17.3595 25.8404V25.8155C17.3902 25.4812 17.3626 25.108 17.2676 24.6696C17.2017 24.3602 17.1158 24.0538 17.0438 23.8191C16.9963 23.6558 16.9473 23.4817 16.9105 23.3277C16.7802 22.7882 16.8216 21.5443 16.8829 20.8306C16.8829 20.8244 16.8829 20.8166 16.886 20.8057C16.9105 20.5103 16.9411 20.2584 16.9718 20.148C16.9748 20.1449 16.9748 20.1371 16.9779 20.1278C16.9917 20.0796 17.0362 19.9257 17.0775 19.7173C17.1388 19.4079 17.1741 19.1187 17.1771 18.8637C17.1771 18.8575 17.1771 18.8497 17.1802 18.8435V18.7533C17.1771 18.7393 17.1771 18.7284 17.1771 18.7222C17.1771 18.6289 17.1664 18.531 17.1526 18.4221C17.1526 18.4221 17.1516 18.42 17.1496 18.4159C17.1496 18.4159 17.1465 18.4128 17.1496 18.4097C17.1434 18.3957 17.1388 18.3817 17.1434 18.3677V18.3646C17.099 18.1593 17.03 17.9914 16.9442 17.8764C16.9381 17.8733 16.9335 17.8701 16.9273 17.8624C16.9243 17.8593 16.9166 17.8484 16.9135 17.8422C16.4599 17.3197 15.7289 16.9885 15.571 16.9186C15.5649 16.9186 15.5572 16.9155 15.5542 16.9155L15.4622 16.8766C15.4346 16.8626 15.4178 16.8346 15.4208 16.8035C15.4239 16.7724 15.4484 16.7475 15.4791 16.7444L15.5894 16.7273C15.7672 16.7102 16.3649 16.6542 16.6499 16.7973C16.7465 16.8455 16.8875 16.9543 17.0622 17.0927L17.0867 17.1129C17.4852 17.4301 18.086 17.9106 18.5519 17.9665C18.6959 17.9805 18.84 17.9868 18.9978 17.9945C19.6231 18.0287 20.3296 18.0645 20.7312 18.716C21.0852 19.2773 21.0913 19.9148 21.0944 20.3766V20.3937C21.0944 20.5678 21.0944 20.714 21.1112 20.8151C21.1388 20.9643 21.4959 21.1602 21.8362 21.3484C21.994 21.4354 22.1519 21.5225 22.299 21.6096C22.2791 21.5894 22.2545 21.5676 22.2331 21.5474C22.0446 21.3593 21.8791 21.196 21.8208 21.0701C21.6768 20.7498 21.6599 20.5585 21.7457 20.2102C21.8285 19.865 21.8622 19.0472 21.6936 18.7829C21.5909 18.6196 21.1404 18.2915 20.4921 17.909L20.4722 17.895C20.4553 17.8888 20.4415 17.8748 20.4339 17.8562C20.4339 17.8499 20.4308 17.8453 20.4308 17.8359C20.4277 17.8328 20.4247 17.8157 20.4201 17.8048C20.4139 17.7986 20.4093 17.7908 20.4063 17.7846C20.3725 17.7007 20.2591 17.4814 19.9634 17.2482C19.9082 17.2031 19.8392 17.1673 19.758 17.1362C19.5174 17.0492 19.1986 17.0243 18.8201 17.0072C18.5595 16.9932 18.2913 16.9792 18.0415 16.931C17.8867 16.903 17.7013 16.8579 17.4852 16.8097L17.3243 16.7709C16.7373 16.6309 15.9787 16.4537 15.4162 16.4226C15.2783 16.4163 15.1526 16.4163 15.0453 16.4257C14.8599 16.4459 14.6913 16.5019 14.5473 16.5967C14.4277 16.6698 14.3235 16.7677 14.2377 16.8859C14.1932 16.9481 14.1549 17.0119 14.1273 17.0772C14.0277 17.2902 14.0001 17.5187 14.0446 17.7395C14.0614 17.8204 14.086 17.8826 14.1243 17.9386C14.2239 18.1127 14.3955 18.1967 14.5473 18.234C14.6745 18.2651 14.7848 18.2682 14.8247 18.2682L14.9273 18.2651H14.9304C14.958 18.2651 14.9856 18.2853 14.9963 18.3179C15.0024 18.3459 14.9932 18.3801 14.9657 18.3941L14.8829 18.447C14.8829 18.447 14.7419 18.5403 14.5457 18.6243C14.4047 18.6864 14.2362 18.7424 14.0691 18.7564C13.9634 18.7673 13.8699 18.7595 13.7917 18.7315C13.7197 18.7113 13.6614 18.6756 13.6063 18.6274C13.3181 18.363 13.171 17.8686 13.1526 17.4923C13.1465 17.3773 13.1496 17.2762 13.1695 17.1922C13.1695 17.186 13.1695 17.172 13.1725 17.1642C13.1756 17.1534 13.1833 17.1394 13.1894 17.1331C13.1925 17.1269 13.1955 17.1223 13.2001 17.116C13.2385 17.0818 13.2752 17.0849 13.289 17.0912C13.3135 17.0974 13.3365 17.1114 13.3503 17.1362C13.3611 17.1565 13.3672 17.1844 13.3611 17.2093C13.3611 17.2124 13.3611 17.2155 13.358 17.2155V17.2264C13.286 17.5219 13.4162 18.1951 13.735 18.4797C13.7519 18.4936 13.7687 18.5076 13.7902 18.5185C13.8729 18.5667 13.9756 18.5667 14.0538 18.5605C14.2116 18.5465 14.3771 18.4843 14.5135 18.4206C14.2975 18.3646 14.1227 18.2604 14.0093 18.1174C13.9342 18.0194 13.8821 17.909 13.8545 17.78C13.7932 17.4799 13.8438 17.1642 14.0017 16.8921C14.0262 16.847 14.0538 16.8051 14.0768 16.774C14.2009 16.5998 14.3588 16.4645 14.5442 16.3728C14.6883 16.2966 14.8492 16.2469 15.0208 16.2298C15.1373 16.2189 15.2676 16.2158 15.4116 16.2267C15.9925 16.2578 16.7511 16.435 17.3856 16.5858C17.6737 16.6558 17.9005 16.7071 18.0722 16.7398C18.3128 16.7849 18.5764 16.7988 18.8446 16.8128L18.8783 16.8159C19.1112 16.8299 19.335 16.8408 19.5373 16.8781C19.4545 16.7771 19.3519 16.6511 19.2354 16.533H19.2216C18.8844 16.4879 18.7266 16.2546 18.6407 16.0774C18.3664 16.1225 18.0645 16.0525 17.83 15.8861C17.7197 15.8053 17.6277 15.7089 17.5557 15.5938C17.1235 15.4259 16.6775 15.2906 16.3787 15.2906C16.3649 15.2906 16.3511 15.2937 16.3373 15.2937C15.9695 15.3077 15.6032 15.4228 15.2492 15.5347C15.0714 15.5907 14.6821 15.6949 14.5427 15.6809V15.684H14.1549C14.1411 15.684 14.1212 15.684 14.1028 15.6871H14.0614C13.9373 15.7011 13.8208 15.726 13.7151 15.754C13.7151 15.754 13.713 15.755 13.7089 15.7571C13.7089 15.7571 13.7028 15.7602 13.6982 15.7602C13.4162 15.8924 13.1281 16.0976 12.7955 16.4397C12.5994 16.6418 12.4691 16.8813 12.3802 17.1285C12.3143 17.4068 12.2944 17.696 12.3005 17.9681C12.3051 18.1469 12.3189 18.3179 12.3388 18.4734C12.3526 18.5854 12.3802 18.6911 12.4247 18.7953C12.5442 19.0767 12.8614 19.7888 13.5051 20.0547C13.5526 20.0749 13.5771 20.1309 13.5572 20.1838C13.5404 20.2227 13.5051 20.2429 13.4683 20.2429C13.4576 20.2429 13.4407 20.2398 13.43 20.2366C12.9427 20.0345 12.6745 19.7344 12.5197 19.4468C12.5396 19.624 12.6193 20.0081 12.5994 20.1231C12.4936 20.7498 11.9128 21.0141 11.8407 21.0607C11.7304 21.1338 11.666 21.1758 11.6584 21.2691C11.6476 21.4603 12.1457 21.8677 12.184 21.9346C12.2453 22.0387 12.3112 22.1756 12.2362 22.23C11.6599 22.6685 12.2362 22.8566 12.2392 22.8535C12.2362 22.8597 11.876 22.9748 11.9021 23.1909C11.9404 23.4832 12.3971 23.407 12.4139 23.6434C12.4201 23.7615 12.3756 23.8066 12.3695 23.8346C12.2699 24.1207 12.4216 24.7582 13.2522 24.6385C13.3243 24.6323 13.6476 24.5514 14.063 24.4441L14.5442 24.4332V28.0001H25.735C26.9856 28.0001 28.0001 26.9708 28.0001 25.702V14.3484H27.0837L27.0852 14.3359Z" fill="#6D22B3"/>
<path d="M13.4555 14.3359V15.4057C13.2317 15.5021 12.9835 15.6607 12.6953 15.9219C12.6555 15.6047 12.5635 15.2968 12.4716 14.9983C12.398 14.7589 12.3306 14.5381 12.2969 14.3359H13.4555Z" fill="#FFC222"/>
<path d="M13.0605 25.083C12.6498 25.083 12.3096 24.9182 12.1042 24.6228C11.9387 24.3865 11.8743 24.0755 11.9295 23.8018C11.8743 23.7769 11.813 23.7427 11.7517 23.6992C11.6261 23.609 11.5065 23.4629 11.4759 23.2359C11.4605 23.1239 11.4667 22.956 11.5831 22.788C11.5831 22.7849 11.5801 22.7787 11.5801 22.7756C11.531 22.6295 11.5034 22.3745 11.7395 22.0884C11.5617 21.9173 11.4115 21.7587 11.3226 21.5939C11.2552 21.4789 11.2215 21.3576 11.2276 21.2301C11.2521 20.9129 11.4697 20.7698 11.5985 20.6828C11.6015 20.6797 11.6444 20.6548 11.6659 20.6423C11.7762 20.5801 12.1134 20.3967 12.1747 20.0359V20.0297C12.1747 20.0204 12.1716 20.0111 12.1686 20.0017C12.1686 20.0017 11.9632 19.1186 11.9019 18.6335C11.8958 18.6459 11.8897 18.6583 11.8835 18.6708C11.764 18.904 11.531 19.1497 11.3165 19.3456C11.246 19.414 11.1755 19.4762 11.1111 19.5291C11.0743 19.5633 11.0375 19.5912 11.0038 19.6161L10.9977 19.6223C10.9609 19.6503 10.9333 19.6752 10.9088 19.6908C10.8966 19.7001 10.8874 19.7094 10.8782 19.7156L10.8751 19.7187C10.8659 19.7498 10.8536 19.7778 10.8383 19.8058C10.8261 19.8369 10.8077 19.868 10.7862 19.896C10.777 19.9147 10.7648 19.9333 10.7494 19.952C10.682 20.0391 10.6146 20.1137 10.5471 20.1759C10.354 20.3656 10.1824 20.4495 10.1027 20.4806L10.0996 20.4931C10.0475 20.5801 9.99847 20.6672 9.94942 20.745C9.91571 20.8009 9.88199 20.8538 9.85134 20.9036C9.78697 21.0062 9.72873 21.0995 9.6705 21.1834C9.63985 21.2239 9.61226 21.2643 9.58774 21.3016C9.48046 21.454 9.38544 21.569 9.30575 21.6499C9.26284 21.6934 9.22299 21.7245 9.18621 21.7494C8.85824 21.9578 7.99387 21.9173 7.62912 21.8271C7.30728 21.7463 7.16628 21.7743 6.90575 21.8956C6.81992 21.936 6.67586 22.0852 6.52261 22.2407L6.49502 22.2687C6.44904 22.3216 6.4 22.3713 6.35096 22.418C6.30498 22.4677 6.25594 22.5144 6.2069 22.561L6.17624 22.5921C6.15172 22.6139 6.1272 22.6357 6.10575 22.6543C6.07203 22.6854 6.03831 22.7134 6.00766 22.7383C5.89732 22.8316 5.79617 22.9 5.70421 22.9373C5.70115 22.9404 5.69808 22.9404 5.69502 22.9404C5.68889 22.9466 5.67663 22.9529 5.6705 22.9529C5.66743 22.956 5.66437 22.956 5.66437 22.956C5.60613 22.9746 5.55402 22.9933 5.50805 22.9964C5.2046 23.0337 4.84904 22.8845 4.53946 22.7538C4.36169 22.6761 4.1931 22.6046 4.08889 22.5984H4.04598C4.03065 22.5952 4.0092 22.5952 3.98774 22.5921C3.6567 22.5704 2.95785 22.5237 2.31724 23.2607C2.14253 23.4598 1.91877 23.581 1.64904 23.6152C1.63065 23.6215 1.60613 23.6121 1.5908 23.5935C1.58467 23.5904 1.58161 23.5841 1.57854 23.5779C1.57548 23.5686 1.57548 23.5562 1.57548 23.5499C1.57548 23.5282 1.58161 23.5095 1.6 23.494C1.61839 23.4784 1.64291 23.4566 1.66743 23.4287C1.67663 23.4224 1.69195 23.4131 1.70421 23.41C1.88506 23.3727 2.04138 23.2825 2.17318 23.1332C2.87816 22.3216 3.64138 22.3745 4.01226 22.4024C4.04291 22.4056 4.07356 22.4056 4.10421 22.4056C4.22989 22.4118 4.40153 22.4802 4.61303 22.5704C4.90115 22.6948 5.22605 22.8316 5.48352 22.8036C5.52031 22.7974 5.55709 22.7881 5.59387 22.7725C5.59693 22.7694 5.60307 22.7663 5.60613 22.7663C5.64598 22.7321 5.68276 22.6979 5.71954 22.6606C5.7931 22.5828 5.86054 22.4988 5.92797 22.4087C6.05977 22.2252 6.17931 22.0168 6.28966 21.8147C6.31724 21.7618 6.34483 21.7121 6.37241 21.6623L6.38467 21.6343C6.61149 21.2145 6.8046 20.8476 7.04368 20.804C7.16015 20.7823 7.31341 20.7823 7.49119 20.7823H7.50958C7.94176 20.7792 8.5364 20.7698 9.04521 20.4464C9.11571 20.4029 9.17701 20.3531 9.22912 20.3003C9.25671 20.2754 9.28123 20.2474 9.30575 20.2194C9.41916 20.0904 9.50038 19.9364 9.54329 19.7685C9.56475 19.6876 9.58621 19.6068 9.6 19.5228C9.64291 19.302 9.65211 19.0657 9.66437 18.8356L9.6705 18.7299C9.67663 18.6086 9.68582 18.4873 9.69808 18.3753C9.70115 18.3411 9.70728 18.31 9.71341 18.2758C9.72873 18.2074 9.74713 18.139 9.77165 18.0706C9.88199 17.7596 10.0904 17.4362 10.3019 17.147C10.3969 17.0195 10.4889 16.8982 10.5778 16.7863C10.6575 16.6837 10.728 16.5935 10.7801 16.5188C10.7954 16.4971 10.8138 16.4753 10.8261 16.4535C10.8444 16.4255 10.8567 16.4007 10.869 16.382C10.8812 16.3571 10.8904 16.3229 10.8996 16.2856C10.9027 16.2669 10.9088 16.2483 10.9119 16.2265C10.9149 16.2079 10.918 16.183 10.9211 16.1612C10.9241 16.1363 10.9272 16.1115 10.9303 16.0866C10.9303 16.0617 10.9333 16.0337 10.9364 16.0088C10.9395 15.9404 10.9395 15.8658 10.9395 15.7849C10.7862 16.0866 10.5042 16.553 10.1303 16.8858C10.1241 16.892 10.1149 16.8982 10.1057 16.9044C10.069 16.9324 10.0138 16.976 9.95555 17.0071C9.95249 17.0102 9.94636 17.0102 9.94329 17.0133C9.82375 17.0755 9.68582 17.1252 9.53257 17.1532C9.5295 17.1532 9.52644 17.1563 9.52337 17.1563H9.51724C9.45287 17.1905 8.67739 17.6104 8.59157 18.4344C8.56705 18.6521 8.57012 18.848 8.58238 19.0315C8.58544 19.075 8.58851 19.1155 8.59157 19.1559C8.5977 19.1963 8.60077 19.2367 8.60383 19.2772C8.6069 19.3114 8.6069 19.3425 8.60996 19.3705C8.61303 19.4016 8.61609 19.4327 8.61609 19.4606C8.62529 19.6099 8.62835 19.7467 8.60383 19.868C8.59157 19.924 8.57318 19.98 8.54866 20.0328C8.5272 20.0764 8.50268 20.1168 8.46896 20.151C8.45977 20.1665 8.44751 20.179 8.43218 20.1914C8.38314 20.2412 8.32184 20.2847 8.24521 20.3251C7.90498 20.5024 7.52184 20.4371 7.14789 20.3718C6.85364 20.3189 6.52261 20.2629 6.21303 20.3345C5.92184 20.406 5.78697 20.6486 5.63985 20.9222C5.46513 21.227 5.2659 21.5784 4.77854 21.6872C4.41379 21.7712 4.10421 21.6872 3.82222 21.5877L3.77318 21.569C3.70881 21.5442 3.64751 21.5193 3.58314 21.4944C3.21839 21.3482 2.80766 21.1865 2.24674 21.2394C2.23142 21.2394 2.20996 21.2301 2.1977 21.2176C2.18238 21.2052 2.17625 21.1865 2.17625 21.1679C2.17625 21.1648 2.17625 21.1617 2.17318 21.1554C2.17318 21.1554 2.17216 21.1534 2.17011 21.1492C2.17011 21.1492 2.17011 21.143 2.16705 21.1368C2.16398 21.1306 2.16398 21.115 2.16398 21.1088C2.16398 21.0901 2.17011 21.0746 2.18238 21.0622C2.19157 21.0497 2.2069 21.0404 2.22529 21.0404C2.44904 21.0155 2.66973 21.0248 2.88736 21.0715C2.89349 21.0715 2.90268 21.0715 2.96092 21.0808C3.07433 21.1088 3.17854 21.1368 3.26743 21.1679C3.2705 21.1679 3.27356 21.171 3.27969 21.171C3.40536 21.2145 3.52184 21.2581 3.66284 21.3171C3.7272 21.342 3.78851 21.37 3.84981 21.3918C3.859 21.3949 3.86513 21.3949 3.8682 21.3949C3.87433 21.398 3.87433 21.4011 3.87433 21.4011C4.18084 21.5131 4.43218 21.569 4.73257 21.5006C4.93487 21.4509 5.07893 21.3576 5.19234 21.2363C5.24751 21.1772 5.29962 21.1088 5.34559 21.0373C5.36705 21.0031 5.38851 20.9657 5.41303 20.9284C5.43755 20.8911 5.459 20.8538 5.48046 20.8134C5.49885 20.7792 5.52031 20.7418 5.5387 20.7076C5.6 20.5988 5.66437 20.4962 5.74406 20.406C5.84828 20.2847 5.98314 20.1883 6.17011 20.1448C6.51341 20.0639 6.86897 20.123 7.19693 20.1821C7.55249 20.2412 7.88352 20.2972 8.15632 20.1541C8.18391 20.1386 8.20843 20.1261 8.22989 20.1075C8.25134 20.0919 8.2728 20.0764 8.29119 20.0577C8.32797 20.0235 8.35556 19.9862 8.37395 19.9458C8.44751 19.7965 8.43218 19.5912 8.41073 19.3083V19.2958C8.39234 19.1217 8.38008 18.9506 8.38008 18.7641C8.38008 18.6521 8.38621 18.5371 8.40153 18.4096C8.42299 18.2136 8.4751 18.0364 8.54866 17.8809C8.57318 17.8311 8.60077 17.7814 8.62835 17.7347C8.64368 17.7068 8.659 17.6819 8.67739 17.657C8.74789 17.5575 8.82146 17.4704 8.89502 17.3927C8.96858 17.3149 9.04521 17.2465 9.11264 17.1936C9.08506 17.1968 9.05441 17.1968 9.01456 17.1968H9.01149C8.44751 17.3958 8.13793 17.6414 7.92031 17.8933C7.88046 17.94 7.84368 17.9835 7.80996 18.0302C7.79157 18.0519 7.77318 18.0768 7.75785 18.0986C7.7272 18.1421 7.69349 18.1888 7.66284 18.2323C7.50038 18.4655 7.33487 18.705 7.00996 18.8667C6.87203 18.932 6.72797 18.9817 6.56858 19.0128C6.56245 19.0159 6.55326 19.0159 6.54713 19.0191C6.47356 19.0284 6.40613 19.0377 6.3387 19.0408C6.29272 19.047 6.24674 19.0502 6.19157 19.0502C5.90651 19.0906 4.45364 19.302 3.73333 19.7592C2.87203 20.3003 1.64904 20.1541 1.29349 20.095C1.26284 20.0919 1.23831 20.0608 1.23831 20.0297C1.23831 20.0204 1.23831 20.0111 1.24138 19.9986C1.24138 19.9955 1.24138 19.9893 1.24444 19.9831C1.24751 19.9769 1.25057 19.9675 1.25057 19.9582C1.25364 19.9551 1.25364 19.9489 1.2567 19.9458C1.25977 19.9364 1.2659 19.9271 1.2751 19.9209C1.29042 19.9084 1.30881 19.9022 1.3272 19.9084C1.66437 19.9644 2.81992 20.1012 3.63525 19.5912C3.95709 19.3829 4.41379 19.2274 4.84598 19.1155C4.91954 19.0968 4.9931 19.0781 5.0636 19.0626C5.14329 19.0408 5.22299 19.0253 5.30268 19.0066C5.37931 18.9911 5.45287 18.9755 5.52337 18.9631C5.31188 18.9164 5.09732 18.8511 4.86743 18.7827C4.79693 18.761 4.7295 18.7423 4.659 18.7205C3.80383 18.4717 2.89962 18.4997 2.17931 18.792C1.98314 18.8698 1.78084 18.9911 1.5295 19.1528C1.50498 19.1652 1.47433 19.1652 1.45287 19.1497C1.43448 19.1341 1.42835 19.1124 1.42835 19.0937V19.0719C1.43142 19.0626 1.43448 19.0502 1.43755 19.0408C1.44061 19.0315 1.44368 19.0222 1.44674 19.0159C1.44674 19.0035 1.44981 18.9911 1.45287 18.9817C1.459 18.9693 1.46513 18.9631 1.47433 18.9569H1.47739C1.72874 18.792 1.92797 18.6863 2.10575 18.6117C2.8659 18.3007 3.81609 18.2727 4.70805 18.5308L4.93793 18.6024C5.40383 18.7361 5.79617 18.8542 6.19157 18.8542H6.19464C6.28965 18.8542 6.38774 18.8449 6.50115 18.8294C6.51341 18.8231 6.5226 18.82 6.53487 18.82C6.66973 18.792 6.79847 18.7485 6.9272 18.6863C7.13257 18.5868 7.2613 18.45 7.38391 18.2883C7.42375 18.2354 7.4636 18.1794 7.50345 18.1203C7.55556 18.0457 7.61073 17.968 7.6751 17.8871C7.7364 17.8063 7.80996 17.7254 7.89272 17.6414C8.05824 17.4735 8.27586 17.3118 8.58238 17.1657C8.55479 17.1626 8.5272 17.1594 8.50268 17.1563L8.48123 17.1532C8.45057 17.1501 8.42299 17.1408 8.3954 17.1408C8.38927 17.1377 8.38314 17.1377 8.37395 17.1346C8.30958 17.1283 8.24521 17.119 8.18697 17.1035L8.12874 17.0941C8.05517 17.0786 7.99387 17.0661 7.9387 17.0506C7.82529 17.0226 7.74253 17.0008 7.70268 16.9884L7.69962 16.9853C7.69962 16.9853 7.68429 16.9822 7.67816 16.9822C7.5954 16.9542 7.35632 16.9231 7.05287 16.8982C6.9272 16.8889 6.78621 16.8796 6.63908 16.8702C5.93716 16.8298 5.04215 16.8205 4.64674 16.92C4.55172 16.9449 4.44751 16.976 4.33716 17.0071L4.14713 17.063C3.92031 17.1283 3.6659 17.2061 3.39004 17.2683C3.36245 17.2745 3.33793 17.2776 3.30421 17.2869C2.84751 17.3865 2.47356 17.4144 2.12107 17.374L2.04444 17.3647C1.97395 17.3585 1.90038 17.3429 1.82988 17.3305L1.80843 17.3274C1.78697 17.3211 1.76858 17.3118 1.75019 17.3087C1.71648 17.3025 1.68889 17.2963 1.6613 17.2838C1.59693 17.2683 1.5295 17.2465 1.46513 17.2185C1.44061 17.2092 1.42529 17.1905 1.42529 17.1625C1.41916 17.1501 1.41609 17.1346 1.40996 17.1221C1.40383 17.1097 1.40383 17.1004 1.40383 17.091C1.40383 17.0817 1.40383 17.0724 1.4069 17.063C1.40996 17.0537 1.41609 17.0475 1.42222 17.0413C1.44368 17.0195 1.4682 17.0133 1.49579 17.0226C1.58161 17.0599 1.67356 17.091 1.77471 17.119C1.78084 17.119 1.78697 17.1221 1.79004 17.1221L1.8728 17.1408C1.95556 17.1625 2.03831 17.1781 2.12414 17.1874H2.14866C2.47663 17.2185 2.84444 17.1905 3.27663 17.0941C3.58314 17.0257 3.88659 16.9387 4.11648 16.8671C4.27586 16.8174 4.44751 16.7707 4.60077 16.7303C5.13103 16.5997 6.35709 16.6401 7.06207 16.7023C7.0682 16.7023 7.07433 16.7023 7.08352 16.7054C7.37778 16.7303 7.62299 16.7614 7.73333 16.7925C7.7364 16.7987 7.74253 16.7987 7.75479 16.8018C7.80077 16.8143 7.95402 16.8609 8.15939 16.9013C8.4659 16.9635 8.75096 17.0008 8.99923 17.004C9.00843 17.004 9.01456 17.004 9.02069 17.0071H9.10958C9.1249 17.004 9.1341 17.004 9.14023 17.004C9.23218 17.004 9.33027 16.9915 9.43755 16.9791C9.43755 16.9791 9.43959 16.978 9.44368 16.976C9.44368 16.976 9.44674 16.9729 9.44981 16.976C9.46207 16.9666 9.47739 16.9635 9.48965 16.9666H9.49578C9.69808 16.9231 9.86054 16.8516 9.97395 16.7645C9.97701 16.7583 9.98314 16.7552 9.98927 16.749C9.99234 16.7458 10.0015 16.7396 10.0107 16.7334C10.3326 16.4473 10.5808 16.0493 10.7372 15.7538C10.7831 15.6637 10.823 15.5859 10.8536 15.5206C10.8843 15.4553 10.9057 15.4056 10.918 15.3745L10.9211 15.3713C10.9211 15.3713 10.9241 15.3589 10.9241 15.3558L10.9609 15.2625C10.9732 15.2345 11.0008 15.2159 11.0314 15.219C11.0467 15.219 11.059 15.2283 11.0713 15.2376C11.0835 15.247 11.0897 15.2625 11.0927 15.2781L11.108 15.39C11.1111 15.4242 11.1172 15.4677 11.1203 15.5237C11.1264 15.6108 11.1326 15.7196 11.1326 15.8347C11.1326 15.9498 11.1295 16.0741 11.1142 16.1861C11.0988 16.2918 11.0774 16.3913 11.0406 16.466C11.0038 16.5406 10.9333 16.637 10.8444 16.7583C10.8138 16.7987 10.7831 16.8422 10.7494 16.8858L10.728 16.9076C10.5716 17.1097 10.3755 17.3647 10.21 17.6259C10.1701 17.6912 10.1303 17.7565 10.0935 17.8249C10.0199 17.9555 9.96169 18.0861 9.9249 18.2136C9.91571 18.2447 9.90651 18.2758 9.90038 18.3069C9.89425 18.338 9.89119 18.366 9.88812 18.3971C9.88199 18.4717 9.87586 18.5433 9.86973 18.6179C9.86667 18.6925 9.8636 18.7703 9.86054 18.848C9.85134 18.9973 9.84521 19.1497 9.82682 19.302C9.82069 19.3518 9.81456 19.4047 9.80843 19.4544C9.77165 19.697 9.71034 19.9364 9.5908 20.1479C9.5295 20.2536 9.45594 20.3531 9.36092 20.4433C9.29655 20.5024 9.22605 20.5584 9.14636 20.6081C8.59464 20.9657 7.96628 20.972 7.50958 20.9782H7.49425C7.32261 20.9782 7.17854 20.9782 7.07739 20.9937C7.04061 21 7.00383 21.0279 6.96092 21.0715C6.94866 21.0839 6.93946 21.0964 6.9272 21.1088C6.81073 21.2456 6.67893 21.4913 6.55326 21.7276C6.46743 21.8893 6.38161 22.0479 6.29579 22.2003C6.31418 22.1785 6.33563 22.1537 6.35709 22.1319C6.541 21.9422 6.70345 21.7743 6.82605 21.7152C7.14176 21.569 7.3318 21.5504 7.6751 21.6375C8.01533 21.7214 8.82146 21.7556 9.08199 21.5877C9.10345 21.5753 9.12797 21.5535 9.15249 21.5317C9.17701 21.5068 9.2046 21.4789 9.23218 21.4446C9.26284 21.4104 9.29349 21.3731 9.3272 21.3296C9.37624 21.2643 9.43142 21.1865 9.48965 21.1026C9.54789 21.0186 9.60919 20.9253 9.67356 20.8227C9.71647 20.7543 9.75939 20.6828 9.80536 20.605C9.85134 20.5304 9.90038 20.4495 9.94636 20.3687L9.95862 20.3469C9.96475 20.3283 9.97701 20.3158 9.9954 20.3065C10.0015 20.3065 10.0046 20.3034 10.0169 20.3034C10.0199 20.3003 10.0383 20.2972 10.0475 20.294C10.0536 20.2878 10.0598 20.2847 10.069 20.2816C10.1487 20.2443 10.3663 20.1292 10.5962 19.8307C10.6421 19.7747 10.6759 19.7063 10.7065 19.6223C10.7586 19.47 10.7893 19.2834 10.8077 19.075C10.8138 19.0128 10.8199 18.9475 10.823 18.8791C10.8291 18.8138 10.8322 18.7423 10.8352 18.6708C10.8398 18.5806 10.8444 18.4826 10.8475 18.3971C10.8536 18.2758 10.8659 18.1561 10.8828 18.0364C10.8904 17.9835 10.8981 17.9307 10.9088 17.8809C10.9303 17.7627 10.9609 17.6259 10.9946 17.4735C11.0069 17.4238 11.0192 17.3709 11.0314 17.3149L11.0682 17.1532C11.1019 17.004 11.1387 16.8454 11.1755 16.6805C11.2674 16.2669 11.3533 15.8223 11.3931 15.4398C11.4023 15.362 11.4084 15.2874 11.4115 15.2159C11.4146 15.1132 11.4176 15.0199 11.4115 14.9329C11.4146 14.9018 11.4115 14.8707 11.4084 14.8396C11.4023 14.7929 11.3962 14.7463 11.3839 14.7028C11.3747 14.6592 11.3655 14.6157 11.3502 14.5721C11.3226 14.4882 11.2858 14.4104 11.2398 14.3358C11.1663 14.2145 11.0713 14.1088 10.9548 14.0217C10.8904 13.9751 10.8291 13.9378 10.7648 13.9098C10.5563 13.8103 10.3295 13.7823 10.1119 13.8258C10.0322 13.8445 9.97088 13.8693 9.91571 13.9067C9.8728 13.9315 9.83908 13.9595 9.80536 13.9937C9.75632 14.0435 9.71954 14.0995 9.68889 14.1586C9.6613 14.2176 9.63985 14.2767 9.62452 14.3358C9.59387 14.4633 9.5908 14.5753 9.5908 14.6157L9.59387 14.7214V14.7245C9.59387 14.7245 9.59387 14.7401 9.5908 14.7463C9.58467 14.7587 9.57854 14.7712 9.56628 14.7805C9.56015 14.7836 9.55096 14.7867 9.54176 14.7898C9.51418 14.7992 9.48046 14.7867 9.4682 14.7587L9.41609 14.6779C9.41609 14.6779 9.32414 14.5348 9.24138 14.3358C9.18008 14.1928 9.1249 14.0217 9.10958 13.8507C9.10038 13.7418 9.10651 13.6486 9.1341 13.5677C9.15555 13.4962 9.18927 13.4371 9.23831 13.3811C9.49885 13.0888 9.98621 12.9395 10.3571 12.9209C10.4705 12.9147 10.5686 12.9178 10.6513 12.9395C10.6575 12.9395 10.6728 12.9395 10.6789 12.9426C10.6881 12.9458 10.7034 12.952 10.7096 12.9582C10.7157 12.9613 10.7188 12.9675 10.728 12.9706C10.7494 12.9955 10.7556 13.0204 10.7556 13.0391C10.7556 13.0484 10.7556 13.0546 10.7525 13.0608C10.7494 13.0733 10.7433 13.0888 10.7341 13.0981C10.728 13.1075 10.7188 13.1168 10.7065 13.123C10.6851 13.1323 10.6575 13.1417 10.6329 13.1323C10.6299 13.1323 10.6268 13.1323 10.6268 13.1292H10.6176C10.3264 13.0577 9.6613 13.1883 9.38238 13.5117C9.36705 13.5304 9.35479 13.549 9.34559 13.5677C9.3272 13.5988 9.31494 13.633 9.30881 13.6672C9.29655 13.7263 9.29962 13.7885 9.30268 13.8383C9.30575 13.8787 9.31188 13.9191 9.32107 13.9595C9.33946 14.0373 9.36705 14.1181 9.39464 14.1959C9.40996 14.2332 9.42529 14.2705 9.44061 14.3047C9.49578 14.0839 9.59693 13.9067 9.73793 13.7916C9.83295 13.7139 9.94329 13.6641 10.072 13.6361C10.3663 13.5708 10.6789 13.6237 10.9456 13.7854C10.9916 13.8103 11.0314 13.8383 11.0621 13.86C11.105 13.8911 11.1448 13.9253 11.1847 13.9626C11.2215 13.9968 11.2582 14.0342 11.292 14.0746C11.3226 14.115 11.3533 14.1554 11.3839 14.199C11.4115 14.2425 11.4391 14.2892 11.4605 14.3358C11.4789 14.3731 11.4943 14.4104 11.5096 14.4478C11.5402 14.5255 11.5647 14.6064 11.5801 14.6903C11.5893 14.7307 11.5954 14.7743 11.5985 14.8178C11.6107 14.9391 11.6138 15.0697 11.6046 15.2159C11.5954 15.362 11.5801 15.5206 11.5556 15.6854C11.4851 16.1799 11.3594 16.7365 11.249 17.2185C11.1785 17.5108 11.1295 17.741 11.0989 17.9151C11.0529 18.1577 11.0406 18.4282 11.0253 18.6988L11.0222 18.733C11.0161 18.8511 11.01 18.9662 11.0008 19.0781C10.9916 19.1901 10.9793 19.2989 10.9609 19.4016C11.0192 19.3518 11.0866 19.2958 11.1571 19.2305C11.1908 19.1994 11.2276 19.1652 11.2644 19.131C11.2766 19.1217 11.2889 19.1092 11.3011 19.0968V19.0937C11.4667 18.932 11.6261 18.7516 11.7119 18.5837C11.7517 18.5028 11.8069 18.394 11.8651 18.2603C11.8529 18.1141 11.8498 17.968 11.8498 17.8249C11.8498 17.8249 11.8498 17.8218 11.8529 17.8218C11.8529 17.5295 11.8897 17.2403 11.9693 16.9853C11.9693 16.9791 11.9724 16.9729 11.9755 16.9666C12.0981 16.6215 12.2667 16.3416 12.4904 16.1177C12.4996 16.1084 12.5088 16.099 12.518 16.0928C12.518 16.0897 12.5211 16.0897 12.5211 16.0897C12.5119 15.9715 12.4506 15.645 12.4383 15.5984C12.4169 15.4957 12.3096 15.1319 12.2851 15.051C12.2789 15.0293 12.2023 14.7339 12.1931 14.7028C12.141 14.4369 12.1425 13.8709 12.092 13.5926C12.0628 13.4697 11.9939 13.3345 11.951 13.2598C11.8222 13.0422 11.6475 12.8152 11.3931 12.5633C11.1939 12.3642 10.9579 12.2305 10.7126 12.1403C10.4398 12.075 10.1548 12.0533 9.88506 12.0595H9.88199C9.85441 12.0626 9.68276 12.0688 9.62759 12.075H9.61839C9.33027 12.075 9.04981 12.1606 8.80153 12.3114C8.69579 12.3751 8.56092 12.4451 8.42605 12.5508C8.38621 12.5788 8.34636 12.6099 8.30958 12.6441C8.26973 12.6752 8.23295 12.7125 8.19617 12.7467C8.16245 12.7809 8.08889 12.8618 8.08582 12.8649C8.05517 12.9022 8.02452 12.9426 7.9908 12.9862C7.98774 12.9893 7.93257 13.0795 7.90498 13.1261C7.90192 13.1292 7.85287 13.2319 7.83142 13.2847C7.82835 13.294 7.82222 13.3003 7.81609 13.3096C7.78851 13.3376 7.74559 13.3531 7.70268 13.3345C7.6659 13.3189 7.64444 13.2847 7.64444 13.2443C7.64444 13.235 7.64751 13.2163 7.65057 13.207C7.7272 13.0204 7.81609 12.8649 7.91111 12.7374C7.94483 12.6939 7.97548 12.6534 8.0092 12.6192C8.04291 12.5788 8.07969 12.5446 8.11341 12.5135C8.21762 12.4171 8.32184 12.3425 8.42912 12.2834C8.25441 12.3052 7.87739 12.386 7.76398 12.3642C7.49425 12.3145 7.29502 12.1777 7.14789 12.0284C7.04368 11.9258 6.96705 11.8138 6.91801 11.7299C6.89655 11.6956 6.84751 11.6024 6.84138 11.593C6.76782 11.4842 6.72797 11.4158 6.63601 11.4096C6.44598 11.4002 6.04444 11.904 5.98008 11.9413C5.87586 12.0066 5.741 12.0719 5.68889 11.9942C5.25364 11.4096 5.06973 11.9942 5.0728 11.9973C5.06973 11.9973 5.04215 11.9102 4.99004 11.8263C4.97778 11.8045 4.96245 11.7858 4.94713 11.7641C4.89502 11.6988 4.82452 11.6459 4.7387 11.6583C4.68659 11.6646 4.64674 11.6863 4.61303 11.7174C4.57931 11.7485 4.55479 11.7889 4.53333 11.8356C4.4659 11.9786 4.43831 12.1652 4.29425 12.1745C4.17778 12.1839 4.1318 12.1372 4.10421 12.131C3.97548 12.0844 3.77931 12.0906 3.61073 12.1901C3.57701 12.2119 3.54329 12.2336 3.51264 12.2616C3.49732 12.2741 3.43908 12.3425 3.42682 12.3611C3.32567 12.5042 3.2705 12.7219 3.31341 13.0266C3.31648 13.0701 3.49425 13.7947 3.50651 13.8476L3.51571 14.3358H0V16.6277C0 16.6277 0 16.6323 0 16.6339V25.7967C0 27.0064 0.96705 27.9875 2.15939 27.9875H13.4559V25.0364C13.3732 25.055 13.1402 25.083 13.0605 25.083Z" fill="#FFC222"/>
<path d="M39.5345 20.3534V23.889H37.6827V21.1671H33.8518V23.889H32V14.9844H35.4035C38.4814 14.9844 39.3921 16.191 39.3921 17.7998C39.3921 19.2403 38.6238 20.0634 36.6296 20.1429V20.3534H39.5345ZM35.4035 19.4648C37.0569 19.4648 37.5402 19.1748 37.5402 18.0617C37.5402 16.9486 37.0569 16.6867 35.4035 16.6867H33.8518V19.4648H35.4035Z" fill="black"/>
<path d="M40.8164 20.5123C40.8164 18.5855 42.0577 17.145 44.3624 17.145C46.667 17.145 47.9083 18.5855 47.9083 20.5123C47.9083 22.4392 46.667 23.889 44.3624 23.889C42.0577 23.889 40.8164 22.4345 40.8164 20.5123ZM46.0565 20.5123C46.0565 19.2028 45.6139 18.8474 44.3624 18.8474C43.1108 18.8474 42.6682 19.2028 42.6682 20.5123C42.6682 21.8218 43.1108 22.1866 44.3624 22.1866C45.6139 22.1866 46.0565 21.8218 46.0565 20.5123Z" fill="black"/>
<path d="M55.3916 18.375L51.7998 22.1866H55.3916V23.889H48.9102V22.659L52.5019 18.8474H48.9102V17.145H55.3916V18.375Z" fill="black"/>
<path d="M67.5004 23.889H65.6486V18.8474H63.2982V23.889H61.4464V18.8474H59.096V23.889H57.2441V17.145H67.5004V23.889Z" fill="black"/>
<path d="M68.7822 20.5123C68.7822 18.5855 70.0236 17.145 72.3282 17.145C74.6328 17.145 75.8741 18.5855 75.8741 20.5123C75.8741 22.4392 74.6328 23.889 72.3282 23.889C70.0236 23.889 68.7822 22.4345 68.7822 20.5123ZM74.0223 20.5123C74.0223 19.2028 73.5797 18.8474 72.3282 18.8474C71.0767 18.8474 70.6341 19.2028 70.6341 20.5123C70.6341 21.8218 71.0767 22.1866 72.3282 22.1866C73.5797 22.1866 74.0223 21.8218 74.0223 20.5123Z" fill="black"/>
<path d="M83.7498 17.145L81.4859 23.889H78.637L76.373 17.145H78.3368L79.9444 22.0276H80.1734L81.781 17.145H83.7448H83.7498Z" fill="black"/>
<path d="M91.9143 17.145V25.9842H85.9315V24.2818H90.0625V22.514C89.6351 22.9443 88.9381 23.2342 88.0834 23.2342C85.845 23.2342 84.9648 22.0183 84.9648 20.2224V17.145H86.8167V20.1569C86.8167 21.2045 87.3305 21.5319 88.4396 21.5319C89.5486 21.5319 90.0625 21.2045 90.0625 20.1569V17.145H91.9143Z" fill="black"/>
<path d="M34.2875 4.10291V6.93374H38.8438V9.03665H34.2875V12.9998H32V2H39.8807V4.10291H34.2875Z" fill="black"/>
<path d="M48.3643 9.63751H42.8026C42.9974 10.4463 43.5756 10.8969 45.2284 10.8969C45.7563 10.8969 46.5481 10.8969 47.761 10.637V12.7052C46.391 12.9941 45.7186 12.9941 45.0524 12.9941C40.9864 12.9941 40.4082 10.3597 40.4082 8.83448C40.4082 6.52359 41.5017 4.66333 44.4177 4.66333C47.3337 4.66333 48.3581 6.39649 48.3581 8.66116V9.63174L48.3643 9.63751ZM42.7146 8.01989H46.0579C45.9888 7.09554 45.4798 6.77201 44.3863 6.77201C43.2928 6.77201 42.8214 7.14176 42.7146 8.01989Z" fill="black"/>
<path d="M62.8824 12.9999H60.5948V6.7721H57.6914V12.9999H55.4039V6.7721H52.5004V12.9999H50.2129V4.66919H62.8824V12.9999Z" fill="black"/>
</g>
<defs>
<clipPath id="clip0_72_515">
<rect width="92" height="28" fill="white"/>
</clipPath>
</defs>
</svg>
