<svg width="90" height="90" viewBox="0 0 90 90" fill="none" xmlns="http://www.w3.org/2000/svg">
<path d="M53.1368 29.2715C53.2698 29.3365 53.4127 29.3965 53.5457 29.4514C55.856 30.386 58.7477 30.476 61.4866 29.6863C61.7181 29.6214 61.9398 29.5514 62.1565 29.4864C62.8954 29.2615 63.5851 29.0616 64.2551 28.9067C62.4619 28.5718 59.8265 27.9371 58.2058 26.8976C56.5999 25.893 54.5752 25.6681 53.0137 25.7031C53.2009 26.2479 53.122 26.7276 53.0235 27.0525C53.3881 27.5973 53.4078 28.157 53.3634 28.5268C53.3289 28.8167 53.2403 29.0616 53.1319 29.2765L53.1368 29.2715Z" fill="black"/>
<path d="M66.8718 28.6571C67.0787 28.6671 67.3004 28.6921 67.5319 28.7221C67.5516 28.7321 67.5861 28.7321 67.6107 28.7421C68.1181 28.842 68.5762 28.9969 69.0196 29.2119C70.0639 29.7266 70.591 30.4963 71.1082 31.2409C71.9112 32.3804 72.8028 33.6299 75.4284 34.5545H75.4383C75.5713 34.5545 75.6698 34.5545 75.7585 34.5645C74.8767 33.8748 73.6698 32.5904 73.4728 30.6712C73.3496 29.6217 73.4186 28.7321 73.5072 27.8375V27.7925C73.6156 26.3781 73.6698 25.5935 72.6944 25.0837C71.8274 24.6239 70.7585 24.8038 69.6255 24.9937C68.5713 25.1836 67.4383 25.3736 66.3398 25.1187C65.1427 24.8288 64.6255 23.8892 64.1181 22.9746C63.5565 21.9801 63.0393 21.0805 61.7338 20.7756C60.7683 20.5507 59.9654 20.7306 58.9851 21.0855C58.9851 21.0955 58.9654 21.1055 58.9063 21.1204C58.7092 21.1854 58.5122 21.2754 58.3004 21.3553C57.8471 21.5453 57.4777 21.6902 57.0787 21.8251C57.059 21.8251 57.0442 21.8351 57.0343 21.8351C56.7486 21.9351 56.4186 22.025 56.054 22.115C55.8669 22.15 55.8324 22.15 55.8127 22.15C55.2609 22.2599 54.7141 22.3049 54.1526 22.2849C54.1181 23.1995 53.458 23.9692 52.5713 24.8388C52.6353 24.9188 52.6944 25.0037 52.7339 25.0837C54.4284 25.0287 56.724 25.2186 58.527 26.3531C60.8373 27.8125 65.4875 28.4972 66.3989 28.6171C66.5762 28.6171 66.7191 28.6271 66.8718 28.6521V28.6571Z" fill="black"/>
<path d="M77.065 34.6947C77.065 34.6947 77.0847 34.7047 77.0995 34.7047C77.5921 34.7946 78.0354 34.9496 78.4197 35.1495C78.4295 35.1595 78.4394 35.1595 78.4542 35.1695C78.6413 35.2694 78.8187 35.4044 78.9369 35.4943C78.9714 35.5143 78.9911 35.5393 79.0157 35.5593C80.2128 36.6188 81.1143 38.1131 81.6118 39.0827C81.6216 38.2031 81.5478 37.5234 81.3803 37.1636C81.2473 36.9187 80.9074 36.4589 80.4443 35.8691C79.3359 34.4398 77.8285 32.4906 77.6315 30.7814C77.5872 30.4266 77.5675 30.0317 77.5428 29.6419L77.5231 29.3071C77.4246 27.3229 77.3261 25.2888 75.5428 24.1444C73.9172 23.1048 72.0157 23.0848 70.6266 23.0748H70.5625C70.001 23.0748 69.5083 23.0748 69.134 23.0099C68.3655 22.8649 67.7497 21.6954 67.0207 20.346L66.9763 20.2561C66.2965 18.9866 65.5133 17.5573 64.5231 16.7177C64.5133 16.7177 64.5034 16.7077 64.4886 16.6977C64.3655 16.6527 64.2473 16.6177 64.1389 16.5977C63.3162 16.5077 62.2719 16.9526 61.3458 17.3474C60.666 17.6372 60.1143 17.8621 59.7202 17.8821C59.6216 17.8821 59.5231 17.8821 59.4246 17.8921C58.2374 17.9821 55.7941 18.147 53.533 15.5482C53.1143 15.0684 52.6118 14.7785 52.0354 14.6536C51.9911 14.6436 51.9468 14.6186 51.9123 14.5986C51.8778 14.5536 51.8482 14.5186 51.8138 14.4886C51.6808 15.1683 51.4197 16.3278 51.395 16.5077C51.2768 17.5273 51.1931 17.9871 51.1537 18.162C51.1389 18.227 51.1389 18.292 51.1537 18.3569C51.395 19.3565 52.3507 19.8862 52.6808 20.0662C52.7596 20.1111 52.8138 20.1461 52.8581 20.1661L52.8926 20.1861L52.9024 20.1961C53.2867 20.441 53.8827 20.8308 54.0896 21.6255C55.73 21.7154 56.9468 21.2257 58.0502 20.7908C58.2571 20.7109 58.4591 20.6359 58.6561 20.556L58.8187 20.501C59.7202 20.1761 60.7103 19.9112 61.8778 20.1761C63.4394 20.521 64.0748 21.6505 64.6364 22.63C65.1093 23.4996 65.5379 24.2793 66.4739 24.5042C67.464 24.7391 68.528 24.5592 69.464 24.3942C70.6611 24.1843 71.8926 23.9694 72.9812 24.5392C74.3458 25.2439 74.2473 26.4133 74.1241 27.8977C74.0453 28.7123 73.9812 29.5919 74.0896 30.5965C74.3655 33.2403 76.8482 34.5797 77.0601 34.6897H77.0699L77.065 34.6947Z" fill="black"/>
<path d="M82.4088 0H46.5664V3.03365L46.6896 3.08863L46.7437 3.10862C47.8866 3.64338 48.9408 4.43803 50.0886 5.60751C50.8029 6.34218 51.3743 7.28176 51.7585 8.37628L51.793 8.46624L51.8127 8.5562C52.0344 9.50578 52.1329 10.5403 52.1083 11.6348C52.0984 12.5044 51.9999 13.3191 51.8866 14.0088C52.7339 14.1187 53.4383 14.5086 53.9851 15.1333C56.0393 17.4972 58.2708 17.3423 59.3398 17.2773C59.4038 17.2673 59.4728 17.2673 59.527 17.2573H59.66C59.9999 17.2473 60.5418 17.0124 61.1132 16.7675C62.1034 16.3427 63.2364 15.863 64.2117 15.9879C64.3546 15.9979 64.5171 16.0529 64.7043 16.1228C64.7043 16.1228 64.7142 16.1228 64.724 16.1328C64.7437 16.1328 64.7782 16.1428 64.8029 16.1678C64.8127 16.1678 64.8226 16.1678 64.8373 16.1778C65.1329 16.3028 65.4531 16.5127 65.8029 16.8125C65.9014 16.8925 66.0098 16.9775 66.1231 17.0824C66.1871 17.1474 66.2659 17.2173 66.3447 17.2823L66.4433 17.3823C66.7635 17.6821 67.0689 17.997 67.3644 18.3169L67.4531 18.4068C67.9457 18.9066 68.4088 19.3864 68.6846 19.5113C69.5221 19.9012 69.9703 19.9911 71.0048 19.7362C72.1723 19.4464 74.9408 19.3114 75.9851 19.9811C76.6009 20.3709 77.5812 21.7203 78.9112 24.0093L78.9211 24.0443C79.261 24.1793 80.1181 24.6141 80.9901 25.7386C81.1674 25.9735 81.3103 26.2183 81.3989 26.4882L81.4088 26.4982C81.8718 26.8431 83.8915 28.4174 84.6304 29.8467C85.3792 31.3311 87.3004 35.5892 87.3004 37.7882C87.3004 37.8432 87.3004 37.8882 87.2905 37.9331C87.2364 39.2026 86.8718 40.432 86.5122 41.6165C86.3152 42.2512 86.128 42.8659 86.0196 43.4257H85.458C85.5122 42.856 85.7782 41.9214 85.9211 41.4416C86.2708 40.2921 86.6354 39.0976 86.6797 37.9032C86.6797 37.8582 86.6896 37.8132 86.6896 37.7682C86.6896 35.7291 84.7635 31.486 84.0836 30.1266C83.6107 29.202 82.4334 28.1425 81.6748 27.5028C81.7979 28.1625 81.8275 28.8872 81.8718 29.6468L81.8817 29.7568C81.926 30.6264 81.9703 31.486 82.1132 32.2657C82.2117 32.8254 82.3792 33.5601 82.596 34.4947C83.0689 36.5588 83.6304 39.0227 83.729 40.9068C83.7635 41.3766 83.7487 41.8014 83.7191 42.1763C83.6649 42.736 83.5122 43.2608 83.2659 43.7256C82.9802 44.3303 82.5516 44.8401 81.9999 45.2449C81.9014 45.3249 81.7684 45.4098 81.6255 45.4898C80.7684 46.0046 79.7684 46.1695 78.8226 45.9696C78.4137 45.8796 78.0639 45.7147 77.7585 45.4698C77.3053 45.1 76.9802 44.5352 76.8029 43.8305C76.6058 44.2753 76.4088 44.8101 76.3644 45.3249C76.3447 45.5797 76.3447 45.9146 76.4974 46.1845C76.5319 46.2494 76.5763 46.3094 76.6206 46.3644C77.5221 47.4039 79.6452 47.8237 80.5812 47.5938H80.6157C80.6157 47.5938 80.6255 47.5839 80.6354 47.5839C80.7142 47.5639 80.7979 47.5839 80.8669 47.6188C80.9457 47.6638 80.9901 47.7438 81.0098 47.8187C81.0295 47.8637 81.0442 47.9837 80.9309 48.1086C80.9112 48.1186 80.8965 48.1286 80.8767 48.1436C80.857 48.1636 80.8127 48.1886 80.7782 48.1986C80.7585 48.2086 80.7142 48.2086 80.6896 48.2086C80.4235 48.2735 80.1083 48.2885 79.7437 48.2635C78.5566 48.2086 76.995 47.7288 76.1575 46.7892C76.0048 46.6093 75.8915 46.4194 75.8275 46.1845C75.7388 45.9296 75.7191 45.6247 75.7487 45.2799C75.793 44.7351 75.9703 44.1854 76.1674 43.7306C76.4334 43.0958 76.729 42.646 76.729 42.6361L76.8915 42.3662C76.9359 42.2762 77.0442 42.2412 77.1329 42.2662C77.2314 42.3012 77.2955 42.3912 77.2955 42.4761V42.4861L77.2856 42.821C77.2856 42.9559 77.2955 43.3107 77.394 43.7256C77.5171 44.2153 77.7782 44.7751 78.33 45.1C78.5073 45.2249 78.7043 45.2999 78.9556 45.3548C79.6502 45.4998 80.3743 45.4098 81.0442 45.085C81.2511 44.995 81.4531 44.8751 81.6502 44.7301C82.0245 44.4502 82.33 44.1154 82.5615 43.7256C82.8571 43.2558 83.0344 42.711 83.0984 42.1063C83.1329 41.7614 83.1329 41.3466 83.1083 40.9018C83.0098 39.0726 82.4482 36.6087 82.0098 34.6996L81.8866 34.1748C81.7339 33.4701 81.591 32.8704 81.5024 32.3656C81.3497 31.551 81.3053 30.6814 81.261 29.8317C81.2068 28.6023 81.128 27.5677 80.8521 26.7881C80.7536 26.5182 80.6452 26.2983 80.5024 26.1184C79.7635 25.1588 79.0738 24.789 78.8078 24.679C78.7881 24.669 78.7635 24.659 78.7438 24.6341C78.7093 24.6241 78.6551 24.6141 78.6452 24.5991C78.6107 24.5991 78.6009 24.5891 78.5812 24.5891C78.527 24.5691 78.4827 24.5241 78.458 24.4641L78.4137 24.3992C77.2019 22.2901 76.1723 20.8307 75.6551 20.4959C74.8176 19.9511 72.2364 20.0611 71.1477 20.331C70.0492 20.6108 69.4433 20.5559 68.4334 20.0861C68.0393 19.8962 67.5221 19.3614 66.926 18.7467C66.862 18.6817 66.793 18.6017 66.729 18.5368C67.0048 19.0165 67.2807 19.5313 67.5516 20.0411C68.1477 21.1456 68.7635 22.3051 69.2364 22.395C69.5566 22.45 70.0147 22.45 70.5664 22.45H70.6206C72.0836 22.46 74.0935 22.485 75.8669 23.6345C77.9211 24.9389 78.0344 27.2379 78.1428 29.267C78.1625 29.7818 78.1871 30.2466 78.2314 30.7163C78.4088 32.2357 79.926 34.1848 80.926 35.4792L80.9901 35.5592C81.4285 36.1289 81.7684 36.5837 81.926 36.8986C82.3792 37.8232 82.2019 39.7673 82.1477 40.3471L82.0935 40.7019C82.0836 40.8019 82.0048 40.8818 81.9063 40.8918C81.8078 40.9018 81.7191 40.8468 81.6748 40.7569L81.5516 40.457C81.5516 40.457 81.5418 40.422 81.5418 40.402C81.3201 39.8873 80.2758 37.5133 78.6304 36.039C78.6107 36.029 78.5763 36.004 78.5664 35.994C78.5467 35.974 78.5319 35.959 78.5221 35.939C78.1575 35.6592 77.6304 35.4393 76.9851 35.2943H76.9753C76.9309 35.3043 76.8866 35.2943 76.8423 35.2743C76.8324 35.2843 76.8324 35.2743 76.8226 35.2743C76.8226 35.2743 76.816 35.271 76.8029 35.2643C76.463 35.2193 76.1526 35.1844 75.857 35.1844C75.8373 35.1844 75.8029 35.1844 75.7585 35.1744H75.4728C75.4728 35.1744 75.4285 35.1844 75.4088 35.1844C74.6058 35.1944 73.6945 35.3093 72.7142 35.5092C72.0541 35.6442 71.5713 35.7891 71.4186 35.8341C71.3841 35.8441 71.3644 35.8441 71.3546 35.8541C71.0048 35.954 70.2117 36.054 69.2758 36.1339C69.2413 36.1439 69.2216 36.1439 69.1969 36.1439C66.9408 36.3438 63.0196 36.4788 61.3152 36.054C60.8324 35.929 60.2807 35.7741 59.7635 35.6192C59.0245 35.3843 58.059 35.1044 57.0787 34.8945C55.6945 34.5796 54.5171 34.4947 53.463 34.5946H53.3841C53.1083 34.6296 52.8472 34.6746 52.5812 34.7396L52.3152 34.8045C52.3152 34.8045 52.2807 34.8145 52.261 34.8145C51.9408 34.9045 51.6452 35.0044 51.3694 35.1144C51.2807 35.1494 51.192 35.1244 51.128 35.0594C51.0836 35.0144 51.0738 34.9595 51.0738 34.9045C51.0738 34.8495 51.0738 34.8395 51.0935 34.8045C51.1132 34.7596 51.128 34.7146 51.1378 34.6696C51.1378 34.5796 51.192 34.5247 51.2708 34.4897C51.4777 34.3997 51.6896 34.3347 51.8965 34.2798C51.9851 34.2448 52.0738 34.2248 52.1822 34.1998C52.2364 34.1898 52.3053 34.1648 52.3694 34.1448L52.4334 34.1348C52.6649 34.0899 52.8965 34.0449 53.128 34.0249L53.3694 33.9899C54.5024 33.865 55.6994 33.9549 57.1625 34.2698C57.2708 34.3048 57.3497 34.3147 57.4383 34.3347C58.3201 34.5346 59.1329 34.7795 59.857 34.9944L60.4728 35.1744C60.8226 35.2743 61.1526 35.3743 61.463 35.4542C62.729 35.7641 65.596 35.7441 67.8423 35.6092C68.3152 35.5742 68.7635 35.5542 69.1723 35.5192C70.1378 35.4393 70.9112 35.3393 71.1723 35.2493C71.192 35.2493 71.2167 35.2393 71.2364 35.2393L71.2462 35.2293C71.3792 35.1944 71.6403 35.1194 72.0048 35.0294C72.1822 34.9845 72.3792 34.9395 72.6107 34.8945L72.7979 34.8595C72.9851 34.8145 73.192 34.7795 73.4038 34.7596C73.4235 34.7496 73.4482 34.7496 73.4679 34.7396C73.5566 34.7396 73.6452 34.7196 73.7437 34.7046L73.8078 34.6946C73.8866 34.6846 73.9703 34.6746 74.059 34.6596C72.0886 33.725 71.2758 32.5605 70.6058 31.601C70.0886 30.8513 69.6403 30.2166 68.7585 29.7918C68.3497 29.5918 67.9359 29.4469 67.5073 29.357C67.4728 29.357 67.4285 29.347 67.3989 29.337C67.0344 29.282 66.7191 29.247 66.4186 29.247H66.4088C65.1428 29.247 63.8817 29.6268 62.394 30.0616L61.6551 30.2865C58.7979 31.1112 55.7487 31.0212 53.3201 30.0317C53.1575 29.9667 52.9802 29.8867 52.8029 29.7868C52.527 30.0766 52.2068 30.2765 51.9359 30.4115C52.0787 31.3061 51.857 32.2857 51.33 33.0453C50.6354 34.0249 49.5024 34.5746 48.1526 34.5746C47.8866 34.5746 47.6157 34.5546 47.3398 34.5197C47.2167 34.5097 47.0344 34.4747 46.5713 34.3647V43.7356H57.8324L57.7979 45.2949C57.458 46.6443 57.2019 47.6938 57.1822 47.9287C57.1477 48.1536 57.1378 48.3635 57.1378 48.5634C57.1378 50.7075 58.8965 51.0973 59.724 50.7924C59.8127 50.7724 59.9556 50.6275 60.33 50.6475C61.0787 50.7025 60.8373 52.1868 61.7585 52.3117H61.8373C62.463 52.3117 62.8029 51.2272 62.8275 51.2172C62.8275 51.2372 62.926 51.5621 63.1477 51.797C63.1822 51.832 63.2117 51.8619 63.2561 51.8969C63.3989 52.0219 63.5763 52.0968 63.793 52.0419C63.9457 52.0219 64.1132 51.9319 64.3103 51.762C64.463 51.6371 64.6206 51.4621 64.793 51.2272C64.9703 50.9823 65.3989 51.1922 65.729 51.3922C65.9359 51.5171 67.2265 53.1314 67.8275 53.0964C68.1231 53.0764 68.2561 52.8615 68.4876 52.5067C68.6304 52.2718 69.4679 50.3876 71.4433 50.0428C71.8078 49.9778 73.0147 50.2327 73.5763 50.2976C72.6649 49.7979 71.7191 48.9233 71.0787 47.344C71.0689 47.309 71.059 47.254 71.059 47.219C71.059 47.0941 71.1231 46.9841 71.2462 46.9291C71.4088 46.8642 71.5861 46.9391 71.6551 47.0941C72.6206 49.498 75.4433 50.4976 75.926 50.7374C75.9999 50.7724 76.0639 50.7974 76.1477 50.8124C76.7536 50.9124 77.4777 50.9873 78.2413 51.0123C79.0984 51.0323 80.0098 50.9673 80.8915 50.7574C81.6699 50.4676 82.4285 50.0428 83.0689 49.408C84.1477 48.3235 84.793 47.3889 85.2117 46.4743V46.4544C85.3201 46.0945 85.3989 45.7097 85.4433 45.2899V45.1549C85.4531 45.1 85.4531 45.03 85.4531 44.99V43.7306H89.6748V7.36673C89.6748 3.29853 86.4235 0.00499778 82.4186 0.00499778L82.4088 0Z" fill="black"/>
<path d="M50.6601 27.3378C50.6601 27.3378 51.0049 27.2379 51.2315 27.008C51.2906 26.958 51.3399 26.888 51.3892 26.8181C51.399 26.8081 51.399 26.7981 51.4089 26.7881C51.4384 26.7181 51.468 26.6582 51.4877 26.5882C51.4877 26.5782 51.4778 26.5682 51.4778 26.5582C51.4975 26.3883 51.468 26.1984 51.3103 25.9685C51.1724 25.7785 50.9754 25.5686 50.67 25.3287C50.4236 25.1588 50.6404 24.719 50.8374 24.3792C50.9557 24.1693 52.5517 22.8598 52.5222 22.2401C52.5025 21.9402 52.2956 21.8103 51.9409 21.5704C51.7044 21.4305 49.8424 20.5709 49.4975 18.5617C49.4384 18.1919 49.4975 18.012 49.5764 17.7521C49.5961 17.7021 49.6847 16.9625 49.7537 16.3927C49.2611 17.3223 48.3941 18.2819 46.8276 18.9316C46.798 18.9416 46.7389 18.9516 46.7094 18.9516C46.5911 18.9516 46.4729 18.8816 46.4236 18.7617C46.3547 18.5917 46.4335 18.4118 46.5911 18.3518C48.9064 17.3923 49.9015 14.6435 50.1675 14.0438C50.2266 13.9238 50.2562 13.8039 50.2759 13.6739C50.3744 13.0742 50.4532 12.3745 50.4631 11.6448C50.4828 10.7652 50.4138 9.83563 50.2069 8.94602C49.9212 8.14638 49.4975 7.37672 48.867 6.72701C47.803 5.6275 46.8768 4.96779 45.9704 4.54798C45.9704 4.54798 45.9639 4.54465 45.9507 4.53798C45.5961 4.43803 45.2118 4.35806 44.798 4.30808H44.67C44.6108 4.29809 44.5419 4.29809 44.5025 4.29809H43.2512V4.28809C43.1724 4.29809 43.064 4.28809 42.9458 4.2781C42.3744 4.20813 41.4581 3.95824 40.9852 3.8183C39.8424 3.45846 38.6601 3.08863 37.4877 3.04864C37.4384 3.04864 37.399 3.03865 37.3498 3.03865C35.33 3.03865 31.1429 4.99778 29.7931 5.68747C28.8768 6.16726 27.8325 7.36673 27.202 8.13638C27.8522 8.01644 28.5714 7.98645 29.3202 7.93647L29.4286 7.92648C30.2857 7.8765 31.1429 7.83652 31.9113 7.68658C32.4631 7.58663 33.1921 7.4267 34.1182 7.1968C36.1576 6.71701 38.601 6.14727 40.4631 6.04731C40.9261 6.00733 41.3498 6.02732 41.7241 6.05731C42.2759 6.11728 42.7882 6.26721 43.2512 6.5171C43.8522 6.80697 44.3547 7.24678 44.7586 7.80653C44.8276 7.90649 44.9163 8.03643 44.9951 8.18636C45.5074 9.05597 45.6749 10.0755 45.468 11.0351C45.3793 11.4549 45.2217 11.8147 44.9754 12.1246C44.6108 12.5844 44.0493 12.9143 43.3498 13.0942C43.7931 13.3041 44.3251 13.504 44.8276 13.544C45.0837 13.564 45.4187 13.564 45.6847 13.414C45.7438 13.3741 45.803 13.3341 45.8621 13.2841C46.8867 12.3745 47.3005 10.2055 47.0739 9.25589V9.2259C47.0739 9.2259 47.064 9.2159 47.064 9.20591C47.0345 9.12594 47.064 9.03598 47.0936 8.96601C47.1429 8.88605 47.2118 8.84607 47.2906 8.82608C47.3399 8.79609 47.4581 8.78609 47.5764 8.89605C47.5862 8.92603 47.6059 8.93603 47.6158 8.95602C47.6355 8.97601 47.6552 9.02599 47.665 9.05597C47.6749 9.07597 47.6749 9.12594 47.6749 9.14593C47.7438 9.41581 47.7537 9.73567 47.734 10.1055C47.6749 11.315 47.202 12.9043 46.2759 13.7539C46.0985 13.9138 45.9113 14.0238 45.6847 14.0937C45.4286 14.1837 45.133 14.2037 44.7882 14.1737C44.2463 14.1237 43.7044 13.9438 43.2512 13.7439C42.6305 13.474 42.1872 13.1741 42.1773 13.1741L41.9113 13.0042C41.8227 12.9642 41.7832 12.8543 41.8128 12.7643C41.8424 12.6644 41.931 12.5944 42.0197 12.5944H42.0296L42.3645 12.6044C42.4926 12.6044 42.8473 12.5944 43.2512 12.4944C43.7438 12.3745 44.2956 12.1046 44.6108 11.5449C44.7291 11.3649 44.8079 11.165 44.867 10.9052C45.0049 10.1955 44.9163 9.4558 44.601 8.7761C44.5123 8.56619 44.3941 8.36628 44.2463 8.15637C43.9704 7.77654 43.6453 7.46668 43.2512 7.22679C42.7882 6.92692 42.2463 6.747 41.6552 6.68703C41.3103 6.64705 40.9064 6.64705 40.4631 6.66704C38.6502 6.77699 36.2168 7.34673 34.3251 7.78654L33.8128 7.91648C33.1133 8.06641 32.5222 8.21635 32.0197 8.30631C31.2118 8.46624 30.3547 8.50622 29.5172 8.5562C28.3054 8.60618 27.2808 8.68614 26.5025 8.96601C26.2365 9.06597 26.0197 9.17592 25.8424 9.32585C24.8966 10.0755 24.532 10.7852 24.4236 11.0451C24.4039 11.0751 24.3941 11.0951 24.3744 11.1151C24.3645 11.145 24.3547 11.205 24.3448 11.215C24.3448 11.255 24.335 11.265 24.335 11.285C24.3054 11.345 24.266 11.3849 24.2069 11.4049L24.1478 11.4549C22.0591 12.6844 20.6108 13.7339 20.2857 14.2637C19.7438 15.1133 19.8522 17.7421 20.1182 18.8516C20.3941 19.9711 20.335 20.5908 19.8719 21.6204C19.6847 22.0202 19.1527 22.55 18.5517 23.1497C18.4828 23.2197 18.4039 23.2896 18.335 23.3496C18.8177 23.0697 19.3202 22.7899 19.8325 22.51C20.9261 21.9103 22.069 21.2805 22.1576 20.8008C22.2167 20.4709 22.2167 20.0011 22.2167 19.4414V19.3914C22.2266 17.902 22.2463 15.853 23.3793 14.0538C24.67 11.9547 26.9458 11.8447 28.9557 11.7348C29.4581 11.7048 29.9212 11.6848 30.3842 11.6448C31.8916 11.4649 33.8227 9.91559 35.1035 8.89605L35.1823 8.83607C35.7438 8.38627 36.197 8.03643 36.5025 7.8765C37.4187 7.4267 39.3399 7.59662 39.9113 7.6566L40.266 7.71657C40.3645 7.72657 40.4434 7.80653 40.4532 7.90649C40.4631 8.00644 40.4039 8.0964 40.3153 8.13638L40.0197 8.26633C40.0197 8.26633 39.9901 8.27632 39.9704 8.27632C39.4581 8.49622 37.1133 9.55575 35.6552 11.235C35.6453 11.265 35.6158 11.295 35.6059 11.305C35.5862 11.325 35.5764 11.345 35.5567 11.355C35.2808 11.7248 35.0542 12.2546 34.9163 12.9143V12.9343C34.9261 12.9742 34.9163 13.0242 34.8867 13.0642C34.9064 13.0742 34.8867 13.0742 34.8867 13.0842C34.8867 13.0842 34.8834 13.0908 34.8769 13.1042C34.8374 13.454 34.798 13.7739 34.798 14.0737C34.798 14.0937 34.798 14.1237 34.7882 14.1737V14.4636C34.7882 14.4636 34.798 14.5036 34.798 14.5335C34.8177 15.3432 34.9261 16.2728 35.1232 17.2723C35.2512 17.942 35.399 18.4418 35.4384 18.5917C35.4581 18.6317 35.4581 18.6517 35.468 18.6617C35.5665 19.0215 35.665 19.8212 35.7438 20.7808C35.7537 20.8108 35.7537 20.8307 35.7537 20.8507C35.9507 23.1497 36.0788 27.1479 35.665 28.8772C35.5369 29.3769 35.3892 29.9367 35.2315 30.4565C35.0049 31.2061 34.7291 32.1957 34.5123 33.1952C34.2069 34.6046 34.1182 35.8041 34.2167 36.8736V36.9536C34.2365 37.1535 34.266 37.3534 34.3153 37.5533C34.4631 37.5733 34.6108 37.6133 34.7586 37.6433C34.8079 37.6533 34.8571 37.6733 34.9064 37.6932C35.9704 38.0831 36.8768 38.6428 37.5961 39.3725C38.4434 40.2121 39.1034 41.0318 39.6158 41.9114C39.7537 42.1313 40.069 42.731 40.2266 43.3507C40.2266 43.3807 40.2365 43.4107 40.2365 43.4307C40.266 43.5706 40.2857 43.7206 40.2956 43.8805H43.2512V32.4156L44.798 32.4556C46.1379 32.7954 47.1724 33.0553 47.399 33.0753C47.6256 33.1153 47.8325 33.1253 48.0296 33.1253C50.1478 33.1253 50.5419 31.3361 50.2365 30.4964C50.2168 30.4065 50.069 30.2565 50.0985 29.8767C50.1478 29.1171 51.6158 29.3669 51.7438 28.4274V28.3474C51.7438 27.7077 50.6699 27.3578 50.6601 27.3378ZM17.0936 30.8763C17.0837 30.8063 17.0837 30.7363 17.0739 30.6864V30.5464C17.064 30.2066 16.8276 29.6568 16.5813 29.0771C16.1675 28.0675 15.6946 26.908 15.8128 25.9185C15.8227 25.7685 15.8818 25.5986 15.9409 25.4087C15.9409 25.4087 15.9409 25.3987 15.9606 25.3887C15.9606 25.3687 15.9704 25.3287 15.9901 25.3088C15.9901 25.2988 15.9901 25.2888 16 25.2788C16.1182 24.9789 16.335 24.649 16.6305 24.2892C16.7094 24.1892 16.798 24.0793 16.8966 23.9693C16.9557 23.8994 17.0246 23.8194 17.0936 23.7394L17.1921 23.6395C17.4877 23.3196 17.803 23.0098 18.1182 22.6999L18.2069 22.61C18.6995 22.1102 19.1823 21.6404 19.3005 21.3605C19.6847 20.5109 19.7734 20.0511 19.5172 19.0016C19.2315 17.8121 19.1034 14.9933 19.7635 13.9238C20.1478 13.3041 21.4877 12.3045 23.7438 10.9451L23.7833 10.9351C23.9113 10.5853 24.3448 9.71568 25.4581 8.83607C25.6847 8.65615 25.931 8.50622 26.197 8.41626L26.2069 8.40626C26.5517 7.93647 28.1084 5.87739 29.5172 5.12772C30.9852 4.36806 35.202 2.40893 37.3695 2.40893C37.4286 2.40893 37.468 2.40893 37.5172 2.41892C38.7783 2.4789 39.9901 2.83874 41.1626 3.20857C41.7832 3.41848 42.3941 3.6084 42.9458 3.71835C43.0443 3.74833 43.1527 3.75833 43.2512 3.78832V0H7.28079C3.26108 0 0 3.30853 0 7.38672V43.8805H9.67488C9.33005 42.3912 9.28079 42.1613 9.26108 42.0313C9.05419 40.472 9.47783 39.4725 9.85222 38.9427C9.92118 38.8527 10.1576 38.5429 10.3547 38.3629C10.5419 38.193 10.7192 38.0731 10.8571 37.9831C10.867 37.9731 10.8867 37.9631 10.9064 37.9531C11.4286 37.6533 12.0296 37.4833 12.6404 37.4833C12.8473 37.4833 13.064 37.5033 13.2611 37.5433C13.2709 37.5133 13.2906 37.4733 13.3103 37.4434C13.468 37.1035 13.6552 36.8336 13.8916 36.6137C14.2266 36.3039 14.6207 36.1239 15.0345 36.074C15.1133 36.054 15.1823 36.054 15.2512 36.054C17.3005 34.0449 17.1626 31.9158 17.0936 30.8763ZM20.335 31.576L20.2857 31.416C19.9606 30.4964 19.6946 29.4869 19.9606 28.2974C20.3054 26.7081 21.4187 26.0584 22.3842 25.4887C23.2512 25.0089 24.0197 24.5691 24.2463 23.6195C24.4729 22.6099 24.2956 21.5304 24.1281 20.5709C23.9212 19.3514 23.7143 18.102 24.2759 16.9924C24.9754 15.6031 26.1281 15.703 27.5961 15.833C28.4039 15.9029 29.2709 15.9729 30.266 15.8629C32.8867 15.5831 34.2069 13.0542 34.3153 12.8443V12.8243C34.3153 12.8243 34.3251 12.8043 34.3251 12.7943C34.4138 12.2945 34.5714 11.8447 34.7685 11.4549C34.7783 11.4449 34.7783 11.4249 34.7882 11.4149C34.8867 11.225 35.0246 11.0451 35.1133 10.9251C35.133 10.8952 35.1527 10.8652 35.1823 10.8452C36.2266 9.62572 37.7044 8.70613 38.6601 8.20635C37.7931 8.19636 37.1232 8.27632 36.7685 8.43625C36.5222 8.57619 36.069 8.92603 35.4877 9.39582C34.0788 10.5253 32.1478 12.0546 30.4532 12.2546C30.0985 12.3045 29.7143 12.3245 29.33 12.3445L28.9951 12.3745C27.0345 12.4745 25.0246 12.5744 23.8916 14.3836C22.867 16.0429 22.8374 17.982 22.8276 19.3914V19.4514C22.8276 20.0311 22.8276 20.5309 22.7685 20.9107C22.6207 21.6904 21.4581 22.3201 20.1281 23.0597L20.0394 23.1097C18.7783 23.7994 17.3695 24.5991 16.5419 25.5986C16.5419 25.6086 16.532 25.6286 16.5222 25.6386C16.4729 25.7586 16.4433 25.8785 16.4236 25.9984C16.335 26.8381 16.7685 27.8976 17.1626 28.8372C17.4483 29.5269 17.665 30.0866 17.6847 30.4964C17.6847 30.5964 17.6847 30.6964 17.7044 30.7963C17.7734 31.8958 17.9212 34.0649 16 36.1839C16.1675 36.2439 16.3153 36.3239 16.4631 36.4238C16.6798 36.3438 16.9064 36.3039 17.1527 36.3039C17.6847 36.3039 18.197 36.5138 18.6897 36.9236C19.5961 35.974 20.3842 35.2543 21.3103 35.2543C21.33 35.2543 21.3596 35.2543 21.3892 35.2643C21.2906 34.0649 20.9163 33.0853 20.5714 32.1957C20.4926 31.9858 20.4138 31.7859 20.335 31.576ZM34.7882 29.7368C34.8867 29.3769 34.9852 29.0371 35.064 28.7272C35.3793 27.4378 35.3498 24.5191 35.2217 22.2301C35.1921 21.7503 35.1626 21.2905 35.133 20.8807C35.0542 19.8912 34.9557 19.1115 34.867 18.8416C34.867 18.8216 34.8571 18.7916 34.8571 18.7717L34.8473 18.7617C34.8177 18.6317 34.7389 18.3618 34.6502 17.992C34.601 17.8121 34.5616 17.6122 34.5123 17.3723L34.4828 17.1824C34.4335 16.9924 34.4039 16.7825 34.3842 16.5726C34.3744 16.5426 34.3744 16.5227 34.3645 16.5027C34.3645 16.4127 34.335 16.3227 34.3251 16.2228L34.3153 16.1528C34.3054 16.0729 34.2956 15.9829 34.2857 15.8929C33.3596 17.902 32.2069 18.7317 31.2611 19.4114C30.5222 19.9411 29.8916 20.4009 29.4778 21.2905C29.2709 21.7104 29.133 22.1302 29.0443 22.57C29.0443 22.6 29.0345 22.6499 29.0246 22.6799C28.9655 23.0498 28.936 23.3696 28.936 23.6795V23.6895C28.936 24.9789 29.3103 26.2583 29.734 27.7777L29.9606 28.5273C30.7783 31.436 30.6897 34.5346 29.7044 37.0135C29.6256 37.2135 29.5271 37.4334 29.4089 37.6633C29.8522 37.5433 30.3054 37.4534 30.7685 37.4034C30.7882 37.4034 30.8276 37.4034 30.867 37.3934C31.0049 37.3834 31.2217 37.3734 31.4089 37.3634C31.5074 37.3634 31.5862 37.3534 31.6059 37.3534C31.6453 37.3534 31.7044 37.3434 31.7438 37.3434H32.0591C32.6207 37.3434 33.1626 37.3734 33.6847 37.4534C33.6749 37.3734 33.665 37.2934 33.6552 37.2135L33.6256 36.9636C33.4975 35.8141 33.5862 34.5946 33.9015 33.1053C33.931 32.9953 33.9409 32.9154 33.9606 32.8254C34.1576 31.9258 34.4039 31.0962 34.6108 30.3565L34.7882 29.7368ZM26.0788 31.7059C27.5172 29.357 28.197 24.6191 28.3153 23.6895C28.3153 23.5096 28.3251 23.3596 28.3448 23.2097C28.3547 22.9898 28.3842 22.7699 28.4138 22.53C28.4236 22.51 28.4236 22.48 28.4335 22.46C28.532 21.9402 28.6897 21.4705 28.8966 21.0207C29.4089 19.9611 30.1675 19.4214 30.9064 18.8916C32.0296 18.082 33.2709 17.1724 34.1872 14.4936V14.4836C34.1872 14.3536 34.1872 14.2537 34.197 14.1637C33.5074 15.0533 32.2463 16.2928 30.3448 16.4927C29.3103 16.6126 28.4236 16.5426 27.5468 16.4527H27.4975C26.0985 16.3427 25.3202 16.2928 24.8177 17.2823C24.3645 18.1719 24.5419 19.2514 24.7291 20.4109C24.9163 21.4805 25.1034 22.6399 24.8473 23.7594C24.5616 24.9789 23.6355 25.4987 22.7291 26.0184C21.7537 26.5882 20.8571 27.1179 20.5616 28.4474C20.335 29.4269 20.5123 30.2466 20.867 31.2461C20.8768 31.2461 20.8867 31.2661 20.8966 31.3261C20.9655 31.526 21.0542 31.7259 21.133 31.9358C21.3202 32.3956 21.4581 32.7754 21.5961 33.1852C21.5961 33.2052 21.6059 33.2152 21.6059 33.2252C21.7044 33.5151 21.7931 33.855 21.8818 34.2248C21.9113 34.4147 21.9113 34.4447 21.9113 34.4647C21.9803 34.7745 22.0197 35.0844 22.0296 35.4043C22.5813 35.6342 22.8966 36.094 23.1034 36.3938L23.1527 36.4738C23.1527 36.4738 23.2217 36.5837 23.2808 36.7037C23.3202 36.7836 23.3793 36.8836 23.4384 36.9836C23.5369 37.1535 23.7143 37.4134 23.9606 37.6633C24.2365 37.9431 24.5222 38.133 24.8473 38.253C24.7291 36.5038 24.8079 33.785 26.0788 31.7059ZM29.3596 28.6873C29.3005 28.4574 29.2315 28.2374 29.1626 28.0076C28.9458 27.2579 28.7488 26.5582 28.5911 25.8685C28.2562 27.6977 27.6256 30.3865 26.601 32.0258C25.3793 34.0349 25.33 36.6737 25.4581 38.313C25.7044 38.273 26.0099 38.223 26.2266 38.183C26.4926 38.143 26.7389 38.1031 26.9261 38.0731C26.9852 38.0731 27.0345 38.0631 27.0936 38.0631C27.3498 38.0631 27.5862 38.133 27.803 38.263C28.0493 38.143 28.3054 38.0331 28.5616 37.9331C28.798 37.5233 28.9951 37.1435 29.133 36.7737C30.0591 34.4247 30.1478 31.476 29.3596 28.6873Z" fill="#4C6E55"/>
<path d="M52.487 48.494C52.5313 48.484 52.5756 48.484 52.6298 48.484C53.5214 48.484 54.7825 48.8189 56.0387 49.2687C55.886 48.8189 55.8072 48.3191 55.8072 47.7893C55.8072 47.5194 55.8269 47.2396 55.8613 46.9597C55.8712 46.8247 55.9057 46.6148 56.0387 46.0751H46.748V49.8584C47.3884 49.7484 48.0929 49.5235 48.8466 49.2886C50.0141 48.9188 51.2308 48.549 52.487 48.494Z" fill="white"/>
<path d="M87.0594 46.0802L86.951 46.3051L86.9313 46.3601C86.3993 47.5246 85.6161 48.5991 84.4584 49.7636C83.7294 50.4932 82.8033 51.073 81.7195 51.4628L81.6308 51.4978L81.5422 51.5178C80.6062 51.7427 79.5767 51.8426 78.4978 51.8177C76.4781 51.7827 74.7638 51.2979 74.2712 51.1929C73.7491 51.083 72.286 50.8781 72.0003 50.8331C71.9658 50.8281 71.9313 50.8331 71.8969 50.8331C70.8771 51.058 70.3402 52.0575 70.1579 52.3974C70.1136 52.4774 70.0249 52.6223 70.0249 52.6223C69.7392 53.0821 69.2515 53.8318 68.1727 53.9117C67.1678 53.9667 66.3648 53.262 65.4387 52.2874C64.5471 52.9921 63.7294 52.9122 63.2515 52.7572C63.0397 52.9022 62.8328 52.9921 62.6358 53.0471C63.2072 53.6718 63.6407 54.2566 63.8033 54.4815L63.8131 54.4915C64.0791 54.5814 64.3205 54.7264 64.552 54.9063C65.6653 55.7909 66.0988 56.6655 66.2269 57.0103L66.2614 57.0203C68.5225 58.3747 69.8574 59.3693 70.2466 59.999C70.9067 61.0635 70.7786 63.8823 70.488 65.0718C70.2318 66.1263 70.3205 66.5811 70.7097 67.4357C70.8328 67.7156 71.3057 68.1854 71.8033 68.6902L71.8919 68.7801C72.2121 69.08 72.5225 69.3948 72.818 69.7197L72.9166 69.8196C72.9806 69.8996 73.0496 69.9746 73.1136 70.0445C73.2121 70.1545 73.3008 70.2695 73.3796 70.3694C73.6752 70.7292 73.887 71.0541 74.0102 71.354C74.02 71.364 74.02 71.374 74.02 71.389C74.0397 71.4089 74.0545 71.4439 74.0545 71.4689C74.0643 71.4789 74.0643 71.4889 74.0643 71.4889C74.1284 71.6788 74.1875 71.8488 74.1973 71.9937C74.3205 72.9882 73.8427 74.1427 73.4239 75.1523C73.1826 75.732 72.951 76.2818 72.9363 76.6316V76.7666C72.9264 76.8215 72.9264 76.8915 72.9166 76.9565C72.8525 78.041 72.6949 80.315 75.0348 82.4091C75.6653 82.9788 76.0496 83.7085 76.1579 84.5831C76.1776 84.6731 76.1235 84.773 76.0348 84.818C76.0003 84.828 75.9707 84.828 75.9461 84.828C75.8821 84.828 75.8131 84.808 75.7688 84.748C75.7146 84.683 75.6456 84.6031 75.557 84.5231C75.5372 84.4881 75.5126 84.4431 75.5028 84.3982C75.3796 83.8184 75.0939 83.2987 74.621 82.8739C72.0496 80.5699 72.217 78.081 72.3057 76.8715C72.3156 76.7716 72.3156 76.6716 72.3156 76.5717C72.3353 76.1668 72.557 75.6071 72.8476 74.9124C73.2318 73.9728 73.6752 72.9083 73.5865 72.0686C73.5668 71.9587 73.5323 71.8338 73.488 71.7088C73.4781 71.6988 73.4683 71.6888 73.4683 71.6738C72.6407 70.6643 71.2269 69.8696 69.9707 69.1799L69.8821 69.135C68.5471 68.3953 67.3895 67.7706 67.2466 66.9859C67.1826 66.6061 67.1826 66.1013 67.1826 65.5316V65.4666C67.1727 64.0572 67.1481 62.1181 66.1234 60.4638C64.9855 58.6496 62.9806 58.5497 61.0151 58.4497L60.685 58.4297C60.3008 58.4097 59.9116 58.3847 59.5619 58.3398C57.8722 58.1398 55.9412 56.6055 54.5323 55.476C53.9461 55.0062 53.4929 54.6564 53.2515 54.5264C52.8968 54.3565 52.2269 54.2816 51.355 54.2916C52.3156 54.7963 53.7934 55.7109 54.8427 56.9354C54.8624 56.9554 54.887 56.9804 54.9067 57.0153C54.9954 57.1403 55.1284 57.3152 55.2269 57.5101C55.2368 57.5201 55.2368 57.5301 55.2466 57.5451C55.4436 57.9349 55.6013 58.3847 55.69 58.8895C55.69 58.8995 55.6998 58.9095 55.6998 58.9245V58.9345C55.8082 59.1494 57.1333 61.6783 59.7491 61.9581C60.7441 62.0681 61.6161 62.0031 62.419 61.9232C63.887 61.7982 65.0446 61.6983 65.7392 63.0876C66.3008 64.1972 66.0939 65.4516 65.8821 66.671C65.7146 67.6206 65.5422 68.7101 65.7737 69.7147C65.9954 70.6643 66.7688 71.1041 67.6259 71.5839C68.5964 72.1536 69.7097 72.8033 70.0545 74.3926C70.3205 75.5771 70.0545 76.5866 69.7343 77.5062L69.6801 77.6762C69.6013 77.8761 69.5274 78.081 69.4486 78.2909C68.9855 79.4754 68.4683 80.8198 68.6308 82.644C68.6308 82.6989 68.6111 82.7689 68.5668 82.8139C68.5323 82.8589 68.4683 82.8788 68.4141 82.8788C68.3944 82.8788 68.3599 82.8888 68.3156 82.9138C68.2959 82.9238 68.2515 82.9238 68.2269 82.9238C68.1037 82.9238 68.0151 82.8439 68.0052 82.7239C67.9264 81.9842 67.9609 81.2696 68.1037 80.5649C68.1037 80.5449 68.1038 80.5099 68.1382 80.32C68.2269 79.9502 68.3156 79.6153 68.4141 79.3254C68.4141 79.3154 68.4239 79.3054 68.4239 79.2804C68.5569 78.8756 68.6998 78.4958 68.887 78.036C68.9658 77.8211 69.0545 77.6212 69.1185 77.4213C69.1284 77.3663 69.1382 77.3413 69.153 77.3413C69.5077 76.3468 69.685 75.5271 69.4634 74.5425C69.1678 73.2081 68.2712 72.6834 67.2909 72.1136C66.3845 71.5989 65.4584 71.0741 65.1727 69.8546C64.9166 68.7351 65.1087 67.5807 65.2959 66.5061C65.4831 65.3516 65.6604 64.2671 65.2072 63.3825C64.6998 62.388 63.9264 62.4429 62.5274 62.5529H62.4831C61.6013 62.6428 60.7195 62.7078 59.6801 62.5879C57.7836 62.388 56.5126 61.1535 55.8279 60.2589C55.8377 60.3489 55.8377 60.4488 55.8377 60.5838V60.5938C56.754 63.2676 57.9904 64.1772 59.1136 64.9918C59.8525 65.5166 60.6161 66.0563 61.1235 67.1209C61.3353 67.5707 61.488 68.0404 61.5865 68.5552C61.5964 68.5752 61.5964 68.6102 61.6062 68.6352C61.6407 68.8701 61.6604 69.095 61.6702 69.3049C61.69 69.4598 61.7047 69.6047 61.7047 69.7847C61.8279 70.7143 62.4978 75.4471 63.9461 77.8011C65.6653 80.6099 65.2023 84.5981 65.0151 85.7626C65.0052 85.8625 64.9067 85.9425 64.8033 85.9425C64.7392 85.9425 64.6949 85.9325 64.5816 85.9075C64.4732 85.8725 64.3944 85.7626 64.4141 85.6476C64.5914 84.5481 65.0299 80.7798 63.4092 78.126C62.3845 76.4817 61.754 73.7929 61.4239 71.9687C61.2712 72.6534 61.0693 73.3581 60.8525 74.1077C60.7885 74.3326 60.7195 74.5575 60.6555 74.7924C59.8722 77.5812 59.9609 80.5249 60.887 82.8739C61.1284 83.5136 61.5175 84.1733 62.0249 84.9879C62.0693 85.0679 62.0693 85.1678 62.0151 85.2478C61.9707 85.3028 61.9067 85.3278 61.8377 85.3278H61.7737C61.7097 85.3078 61.6407 85.2828 61.5964 85.2728C61.5175 85.2728 61.4437 85.2378 61.4092 85.1728C60.8919 84.3532 60.5471 83.6935 60.3156 83.1137C59.3353 80.6398 59.2466 77.5412 60.0594 74.6275L60.2811 73.8779C60.7097 72.3685 61.089 71.0791 61.089 69.7897V69.7797C61.089 69.4798 61.0545 69.1549 61.0003 68.7851C60.9904 68.7501 60.9806 68.7051 60.9806 68.6752C60.8919 68.2404 60.7491 67.8155 60.552 67.4007C60.1333 66.5061 59.5028 66.0463 58.7638 65.5216C57.8131 64.8369 56.6653 64.0122 55.7392 62.0081C55.7294 62.0981 55.7195 62.188 55.7047 62.268L55.6949 62.333C55.685 62.4329 55.6604 62.5229 55.6604 62.6129C55.6505 62.6328 55.6505 62.6578 55.6407 62.6778C55.621 62.8927 55.5865 63.1026 55.5422 63.2926L55.5077 63.4825C55.4634 63.7174 55.419 63.9173 55.3747 64.0972C55.286 64.467 55.2072 64.7369 55.1776 64.8719L55.1678 64.8818C55.1678 64.8818 55.1579 64.9268 55.1579 64.9468C55.0693 65.2167 54.9707 66.0013 54.8919 66.9859C54.8574 67.4007 54.8377 67.8605 54.8033 68.3403C54.6702 70.6243 54.6505 73.548 54.956 74.8324C55.0348 75.1473 55.1333 75.4821 55.2318 75.842L55.4092 76.4667C55.621 77.2064 55.8624 78.036 56.0594 78.9306C56.0791 79.0206 56.0939 79.1005 56.1235 79.2105C56.4338 80.6998 56.5225 81.9193 56.3993 83.0738L56.3648 83.3187C56.3451 83.5536 56.3008 83.7884 56.2565 84.0233L56.2466 84.0883C56.2269 84.1533 56.2023 84.2233 56.1924 84.2782C56.1727 84.3882 56.1481 84.4781 56.1136 84.5681C56.0594 84.783 55.9904 84.9929 55.9018 85.2078C55.8673 85.2878 55.8131 85.3428 55.7244 85.3428C55.6801 85.3527 55.6358 85.3627 55.5914 85.3877C55.5569 85.4077 55.5274 85.4077 55.4929 85.4077C55.4387 85.4077 55.3845 85.3977 55.3402 85.3527C55.2762 85.2878 55.2515 85.1978 55.286 85.1079C55.3944 84.828 55.4978 84.5281 55.5816 84.2033C55.5816 84.1833 55.5914 84.1583 55.5914 84.1483L55.6555 83.8784C55.7195 83.6085 55.7638 83.3386 55.7983 83.0588V82.9788C55.8968 81.9043 55.8082 80.7048 55.5028 79.2954C55.2909 78.3009 55.0151 77.3163 54.7836 76.5617C54.6308 76.0369 54.4732 75.4771 54.355 74.9824C53.9363 73.2481 54.0693 69.2499 54.2663 66.9559C54.2663 66.9359 54.2663 66.9109 54.2762 66.876C54.355 65.9264 54.4535 65.1167 54.552 64.7619C54.5619 64.7519 54.5619 64.7269 54.5717 64.6969C54.6161 64.542 54.7589 64.0472 54.8919 63.3775C55.089 62.383 55.2023 61.4534 55.2121 60.6337C55.2121 60.6137 55.2121 60.5888 55.222 60.5688V60.2789C55.2121 60.2339 55.2121 60.1989 55.2121 60.1789C55.2121 59.8791 55.1776 59.5642 55.1333 59.2144C55.1333 59.2144 55.13 59.2077 55.1235 59.1944C55.1235 59.1944 55.1136 59.1844 55.1235 59.1744C55.1037 59.1294 55.089 59.0844 55.1037 59.0394V59.0294C54.9609 58.3697 54.7392 57.83 54.4634 57.4601C54.4436 57.4501 54.4289 57.4402 54.4092 57.4152C54.3993 57.4052 54.3747 57.3702 54.3648 57.3502C52.9067 55.6709 50.5569 54.6064 50.0496 54.3815C50.0299 54.3815 50.0052 54.3715 49.9954 54.3715L49.6998 54.2466C49.6111 54.2016 49.557 54.1116 49.5668 54.0117C49.5767 53.9117 49.6555 53.8318 49.754 53.8218L50.1087 53.7668C50.6801 53.7118 52.6013 53.5319 53.5175 53.9917C53.8279 54.1466 54.2811 54.4965 54.8427 54.9413L54.9215 55.0062C56.2023 56.0258 58.1333 57.5701 59.6308 57.75C60.0939 57.795 60.5569 57.815 61.0643 57.84C63.0742 57.9499 65.3451 58.0649 66.6358 60.1589C67.7737 61.9631 67.7934 64.0122 67.8033 65.4966V65.5515C67.8033 66.1113 67.8033 66.5811 67.8574 66.9059C67.9461 67.3857 69.0939 68.0155 70.1875 68.6202C70.6949 68.9001 71.2023 69.1799 71.6752 69.4598C71.6111 69.3948 71.5323 69.3249 71.4634 69.2599C70.8574 68.6552 70.3254 68.1304 70.1382 67.7256C69.6752 66.696 69.621 66.0813 69.8969 64.9618C70.1629 63.8523 70.2712 61.2235 69.7294 60.3739C69.3993 59.8491 67.951 58.7946 65.8673 57.5651L65.8033 57.5201C65.7491 57.5001 65.7047 57.4551 65.6801 57.3952C65.6801 57.3752 65.6702 57.3602 65.6702 57.3302C65.6604 57.3202 65.6505 57.2652 65.6358 57.2302C65.6161 57.2103 65.6013 57.1853 65.5914 57.1653C65.4831 56.8954 65.1185 56.1907 64.1678 55.441C63.9904 55.2961 63.7688 55.1812 63.5077 55.0812C62.7343 54.8013 61.7097 54.7214 60.4929 54.6664C59.6555 54.6214 58.7934 54.5764 57.9904 54.4215C57.4929 54.3315 56.8968 54.1866 56.2023 54.0317L55.685 53.9067C53.7983 53.4569 51.3599 52.8872 49.552 52.7872C49.1087 52.7672 48.7047 52.7672 48.3599 52.7972C47.7638 52.8622 47.222 53.0421 46.7589 53.347C46.3747 53.5819 46.0397 53.8967 45.7638 54.2766C45.621 54.4765 45.4978 54.6814 45.4092 54.8913C45.089 55.576 45.0003 56.3107 45.1432 57.0203C45.1973 57.2802 45.2762 57.4801 45.3993 57.6601C45.7195 58.2198 46.2712 58.4897 46.7589 58.6096C47.1678 58.7096 47.5225 58.7196 47.6505 58.7196L47.9806 58.7096H47.9904C48.0791 58.7096 48.1678 58.7746 48.2023 58.8795C48.222 58.9695 48.1924 59.0794 48.1037 59.1244L47.8377 59.2943C47.8377 59.2943 47.3845 59.5942 46.754 59.8641C46.3008 60.064 45.7589 60.2439 45.222 60.2889C44.8821 60.3239 44.5816 60.2989 44.3303 60.2089C44.0988 60.144 43.9116 60.029 43.7343 59.8741C42.8082 59.0245 42.3353 57.4352 42.2762 56.2257C42.2565 55.8559 42.2663 55.531 42.3303 55.2611C42.3303 55.2411 42.3303 55.1961 42.3402 55.1712C42.3501 55.1362 42.3747 55.0912 42.3944 55.0712C42.4042 55.0512 42.4141 55.0362 42.4289 55.0162C42.552 54.9063 42.6702 54.9163 42.7146 54.9363C42.7934 54.9563 42.8673 55.0012 42.9116 55.0812C42.9461 55.1462 42.9658 55.2361 42.9461 55.3161C42.9461 55.3261 42.9461 55.3361 42.9363 55.3361V55.3711C42.7047 56.3207 43.1235 58.4847 44.1481 59.3993C44.2023 59.4443 44.2565 59.4892 44.3254 59.5242C44.5914 59.6792 44.9215 59.6792 45.1727 59.6592C45.6801 59.6142 46.2121 59.4143 46.6505 59.2094C45.956 59.0294 45.3944 58.6946 45.0299 58.2348C44.7885 57.9199 44.621 57.5651 44.5323 57.1503C44.3353 56.1857 44.4978 55.1712 45.0052 54.2965C45.084 54.1516 45.1727 54.0167 45.2466 53.9167C45.6456 53.357 46.153 52.9222 46.7491 52.6273C47.2121 52.3824 47.7294 52.2225 48.2811 52.1675C48.6555 52.1325 49.0742 52.1225 49.5372 52.1575C51.4042 52.2575 53.8427 52.8272 55.8821 53.312C56.8082 53.5369 57.5372 53.7018 58.089 53.8068C58.8624 53.9517 59.7097 53.9967 60.5717 54.0417L60.6801 54.0517C61.4289 54.0966 62.1481 54.1316 62.7983 54.2516C62.5323 53.9267 62.2023 53.5219 61.8279 53.1421H61.7835C60.6998 52.9971 60.1924 52.2475 59.9166 51.6777C59.0348 51.8227 58.0643 51.5977 57.3106 51.063C56.956 50.8031 56.6604 50.4932 56.4289 50.1234C55.0397 49.5836 53.6062 49.1488 52.6456 49.1488C52.6013 49.1488 52.5569 49.1588 52.5126 49.1588C51.3303 49.2038 50.153 49.5737 49.0151 49.9335C48.4436 50.1134 47.1924 50.4483 46.7441 50.4033V50.4133H45.4978C45.4535 50.4133 45.3895 50.4133 45.3303 50.4233H45.1973C44.7983 50.4683 44.4239 50.5482 44.084 50.6382C44.084 50.6382 44.0775 50.6415 44.0643 50.6482C44.0643 50.6482 44.0446 50.6582 44.0299 50.6582C43.1235 51.083 42.1973 51.7427 41.1284 52.8422C40.4978 53.4919 40.0791 54.2616 39.7934 55.0562C39.5816 55.9508 39.5175 56.8804 39.5372 57.755C39.552 58.3298 39.5964 58.8795 39.6604 59.3793C39.7047 59.7391 39.7934 60.079 39.9363 60.4138C40.3205 61.3184 41.3402 63.6074 43.4092 64.462C43.5619 64.527 43.6407 64.7069 43.5767 64.8768C43.5225 65.0018 43.4092 65.0668 43.2909 65.0668C43.2565 65.0668 43.2023 65.0568 43.1678 65.0468C41.6013 64.3971 40.7392 63.4325 40.2417 62.5079C40.3057 63.0776 40.5619 64.3121 40.4978 64.6819C40.1579 66.696 38.2909 67.5457 38.0594 67.6956C37.7047 67.9305 37.4978 68.0654 37.4732 68.3653C37.4387 68.98 39.0397 70.2894 39.1629 70.5044C39.3599 70.8392 39.5717 71.279 39.3303 71.4539C37.4781 72.8633 39.3303 73.468 39.3402 73.458C39.3303 73.478 38.1727 73.8479 38.2565 74.5425C38.3796 75.4821 39.8476 75.2372 39.9018 75.9969C39.9215 76.3767 39.7786 76.5217 39.7589 76.6116C39.4387 77.5312 39.9264 79.5803 42.5964 79.1955C42.8279 79.1755 43.8673 78.9156 45.2023 78.5708L46.7491 78.5358V90.0007H82.7195C86.7392 90.0007 90.0003 86.6922 90.0003 82.614V46.1202H87.0545L87.0594 46.0802Z" fill="white"/>
<path d="M43.2495 46.0798V49.5183C42.5303 49.8282 41.7323 50.3379 40.8062 51.1776C40.6781 50.158 40.3825 49.1685 40.087 48.2089C39.8505 47.4392 39.6338 46.7295 39.5254 46.0798H43.2495Z" fill="#FFC222"/>
<path d="M41.9803 80.624C40.6601 80.624 39.5665 80.0942 38.9064 79.1446C38.3744 78.385 38.1675 77.3854 38.3448 76.5058C38.1675 76.4258 37.9704 76.3159 37.7734 76.1759C37.3695 75.8861 36.9852 75.4163 36.8867 74.6866C36.8374 74.3268 36.8571 73.787 37.2315 73.2472C37.2315 73.2373 37.2217 73.2173 37.2217 73.2073C37.064 72.7375 36.9754 71.9178 37.734 70.9982C37.1626 70.4485 36.6798 69.9387 36.3941 69.409C36.1773 69.0391 36.069 68.6493 36.0887 68.2395C36.1675 67.2199 36.867 66.7601 37.2808 66.4803C37.2906 66.4703 37.4286 66.3903 37.4975 66.3503C37.8522 66.1504 38.936 65.5607 39.133 64.4012V64.3812C39.133 64.3512 39.1232 64.3212 39.1133 64.2912C39.1133 64.2912 38.4532 61.4525 38.2562 59.8932C38.2365 59.9332 38.2168 59.9732 38.197 60.0131C37.8128 60.7628 37.064 61.5525 36.3744 62.1822C36.1478 62.4021 35.9212 62.602 35.7143 62.7719C35.5961 62.8819 35.4778 62.9718 35.3695 63.0518L35.3498 63.0718C35.2315 63.1617 35.1429 63.2417 35.064 63.2917C35.0246 63.3217 34.9951 63.3517 34.9655 63.3716L34.9557 63.3816C34.9261 63.4816 34.8867 63.5716 34.8374 63.6615C34.798 63.7615 34.7389 63.8614 34.6699 63.9514C34.6404 64.0114 34.601 64.0713 34.5517 64.1313C34.335 64.4112 34.1182 64.6511 33.9015 64.851C33.2808 65.4607 32.7291 65.7306 32.4729 65.8305L32.4631 65.8705C32.2956 66.1504 32.1379 66.4303 31.9803 66.6802C31.8719 66.8601 31.7635 67.03 31.665 67.1899C31.4581 67.5198 31.2709 67.8197 31.0837 68.0895C30.9852 68.2195 30.8966 68.3494 30.8177 68.4694C30.4729 68.9592 30.1675 69.329 29.9113 69.5889C29.7734 69.7288 29.6453 69.8288 29.5271 69.9087C28.4729 70.5784 25.6946 70.4485 24.5222 70.1586C23.4877 69.8987 23.0345 69.9887 22.197 70.3785C21.9212 70.5085 21.4581 70.9883 20.9655 71.488L20.8768 71.578C20.7291 71.7479 20.5714 71.9078 20.4138 72.0578C20.266 72.2177 20.1084 72.3676 19.9507 72.5176L19.8522 72.6175C19.7734 72.6875 19.6946 72.7575 19.6256 72.8174C19.5172 72.9174 19.4089 73.0074 19.3103 73.0873C18.9557 73.3872 18.6305 73.6071 18.335 73.727C18.3251 73.737 18.3153 73.737 18.3054 73.737C18.2857 73.757 18.2463 73.777 18.2266 73.777C18.2167 73.787 18.2069 73.787 18.2069 73.787C18.0197 73.847 17.8522 73.907 17.7044 73.917C16.7291 74.0369 15.5862 73.5571 14.5911 73.1373C14.0197 72.8874 13.4778 72.6575 13.1429 72.6375H13.0049C12.9557 72.6275 12.8867 72.6275 12.8177 72.6175C11.7537 72.5476 9.50739 72.3976 7.44828 74.7666C6.8867 75.4063 6.16749 75.7961 5.30049 75.9061C5.24138 75.9261 5.16256 75.8961 5.1133 75.8361C5.0936 75.8261 5.08374 75.8061 5.07389 75.7861C5.06404 75.7561 5.06404 75.7162 5.06404 75.6962C5.06404 75.6262 5.08374 75.5662 5.14286 75.5162C5.20197 75.4663 5.28079 75.3963 5.35961 75.3063C5.38916 75.2863 5.43842 75.2564 5.47783 75.2464C6.05911 75.1264 6.56158 74.8365 6.98522 74.3568C9.25123 71.7479 11.7044 71.9178 12.8966 72.0078C12.9951 72.0178 13.0936 72.0178 13.1921 72.0178C13.5961 72.0378 14.1478 72.2577 14.8276 72.5476C15.7537 72.9474 16.798 73.3872 17.6256 73.2972C17.7438 73.2772 17.8621 73.2473 17.9803 73.1973C17.9901 73.1873 18.0099 73.1773 18.0197 73.1773C18.1478 73.0673 18.266 72.9574 18.3842 72.8374C18.6207 72.5875 18.8374 72.3177 19.0542 72.0278C19.4778 71.4381 19.8621 70.7684 20.2167 70.1186C20.3054 69.9487 20.3941 69.7888 20.4828 69.6289L20.5222 69.5389C21.2512 68.1895 21.8719 67.01 22.6404 66.8701C23.0148 66.8001 23.5074 66.8001 24.0788 66.8001H24.1379C25.5271 66.7901 27.4384 66.7601 29.0739 65.7206C29.3005 65.5807 29.4975 65.4207 29.665 65.2508C29.7537 65.1708 29.8325 65.0809 29.9113 64.9909C30.2759 64.5761 30.5369 64.0813 30.6749 63.5416C30.7438 63.2817 30.8128 63.0218 30.8571 62.7519C30.9951 62.0422 31.0246 61.2826 31.064 60.5429L31.0837 60.2031C31.1034 59.8132 31.133 59.4234 31.1724 59.0636C31.1823 58.9536 31.202 58.8537 31.2217 58.7437C31.2709 58.5238 31.33 58.3039 31.4089 58.084C31.7635 57.0844 32.4335 56.0449 33.1133 55.1153C33.4187 54.7055 33.7143 54.3157 34 53.9558C34.2562 53.626 34.4828 53.3361 34.6502 53.0962C34.6995 53.0262 34.7586 52.9563 34.798 52.8863C34.8571 52.7963 34.8966 52.7164 34.936 52.6564C34.9754 52.5764 35.0049 52.4665 35.0345 52.3465C35.0443 52.2866 35.064 52.2266 35.0739 52.1566C35.0837 52.0967 35.0936 52.0167 35.1035 51.9467C35.1133 51.8668 35.1232 51.7868 35.133 51.7068C35.133 51.6269 35.1429 51.5369 35.1527 51.4569C35.1626 51.237 35.1626 50.9971 35.1626 50.7373C34.6699 51.7068 33.7635 53.2062 32.5616 54.2757C32.5419 54.2957 32.5123 54.3157 32.4828 54.3357C32.3645 54.4256 32.1872 54.5656 32 54.6655C31.9901 54.6755 31.9704 54.6755 31.9606 54.6855C31.5764 54.8854 31.133 55.0453 30.6404 55.1353C30.6305 55.1353 30.6207 55.1453 30.6108 55.1453H30.5911C30.3842 55.2552 27.8916 56.6046 27.6158 59.2535C27.5369 59.9532 27.5468 60.5829 27.5862 61.1726C27.5961 61.3126 27.6059 61.4425 27.6158 61.5724C27.6355 61.7024 27.6453 61.8323 27.6552 61.9623C27.665 62.0722 27.665 62.1722 27.6749 62.2621C27.6847 62.3621 27.6946 62.462 27.6946 62.552C27.7241 63.0318 27.734 63.4716 27.6552 63.8614C27.6158 64.0413 27.5567 64.2213 27.4778 64.3912C27.4089 64.5311 27.33 64.6611 27.2217 64.771C27.1921 64.821 27.1527 64.861 27.1034 64.901C26.9458 65.0609 26.7488 65.2008 26.5025 65.3308C25.4089 65.9005 24.1773 65.6906 22.9754 65.4807C22.0296 65.3108 20.9655 65.1309 19.9704 65.3608C19.0345 65.5907 18.601 66.3703 18.1281 67.2499C17.5665 68.2295 16.9261 69.359 15.3596 69.7088C14.1872 69.9787 13.1921 69.7088 12.2857 69.389L12.1281 69.329C11.9212 69.249 11.7241 69.1691 11.5172 69.0891C10.3448 68.6193 9.02463 68.0995 7.22167 68.2695C7.17241 68.2695 7.10345 68.2395 7.06404 68.1995C7.01478 68.1595 6.99507 68.0995 6.99507 68.0396C6.99507 68.0296 6.99507 68.0196 6.98522 67.9996C6.98522 67.9996 6.98194 67.9929 6.97537 67.9796C6.97537 67.9796 6.97537 67.9596 6.96552 67.9396C6.95567 67.9196 6.95567 67.8696 6.95567 67.8496C6.95567 67.7897 6.97537 67.7397 7.01478 67.6997C7.04433 67.6597 7.0936 67.6298 7.15271 67.6298C7.87192 67.5498 8.58128 67.5798 9.28079 67.7297C9.30049 67.7297 9.33005 67.7297 9.51724 67.7597C9.88177 67.8497 10.2167 67.9396 10.5025 68.0396C10.5123 68.0396 10.5222 68.0496 10.5419 68.0496C10.9458 68.1895 11.3202 68.3294 11.7734 68.5194C11.9803 68.5993 12.1773 68.6893 12.3744 68.7592C12.4039 68.7692 12.4236 68.7692 12.4335 68.7692C12.4532 68.7792 12.4532 68.7892 12.4532 68.7892C13.4384 69.1491 14.2463 69.329 15.2118 69.1091C15.8621 68.9492 16.3251 68.6493 16.6897 68.2595C16.867 68.0696 17.0345 67.8497 17.1823 67.6198C17.2512 67.5098 17.3202 67.3899 17.399 67.2699C17.4778 67.15 17.5468 67.03 17.6158 66.9001C17.6749 66.7901 17.7438 66.6702 17.803 66.5602C18 66.2104 18.2069 65.8805 18.4631 65.5907C18.798 65.2008 19.2315 64.891 19.8325 64.751C20.936 64.4911 22.0788 64.6811 23.133 64.871C24.2759 65.0609 25.3399 65.2408 26.2167 64.781C26.3054 64.731 26.3842 64.6911 26.4532 64.6311C26.5222 64.5811 26.5911 64.5311 26.6502 64.4712C26.7685 64.3612 26.8571 64.2413 26.9163 64.1113C27.1527 63.6315 27.1034 62.9718 27.0345 62.0622V62.0222C26.9754 61.4625 26.936 60.9127 26.936 60.313C26.936 59.9532 26.9557 59.5833 27.0049 59.1735C27.0739 58.5438 27.2414 57.974 27.4778 57.4743C27.5567 57.3143 27.6453 57.1544 27.734 57.0045C27.7833 56.9145 27.8325 56.8345 27.8916 56.7546C28.1182 56.4347 28.3547 56.1549 28.5911 55.905C28.8276 55.6551 29.0739 55.4352 29.2906 55.2652C29.202 55.2752 29.1034 55.2752 28.9754 55.2752H28.9655C27.1527 55.915 26.1576 56.7046 25.4581 57.5142C25.33 57.6642 25.2118 57.8041 25.1034 57.9541C25.0443 58.024 24.9852 58.104 24.936 58.174C24.8374 58.3139 24.7291 58.4638 24.6305 58.6038C24.1084 59.3534 23.5764 60.1231 22.532 60.6429C22.0887 60.8528 21.6256 61.0127 21.1133 61.1126C21.0936 61.1226 21.064 61.1226 21.0443 61.1326C20.8079 61.1626 20.5911 61.1926 20.3744 61.2026C20.2266 61.2226 20.0788 61.2326 19.9015 61.2326C18.9852 61.3625 14.3153 62.0422 12 63.5116C9.23153 65.2508 5.30049 64.781 4.15764 64.5911C4.05911 64.5811 3.9803 64.4812 3.9803 64.3812C3.9803 64.3512 3.9803 64.3212 3.99015 64.2812C3.99015 64.2712 3.99015 64.2513 4 64.2313C4.00985 64.2113 4.0197 64.1813 4.0197 64.1513C4.02956 64.1413 4.02956 64.1213 4.03941 64.1113C4.04926 64.0813 4.06897 64.0513 4.09852 64.0313C4.14778 63.9914 4.2069 63.9714 4.26601 63.9914C5.34975 64.1713 9.06404 64.6111 11.6847 62.9718C12.7192 62.3021 14.1872 61.8023 15.5764 61.4425C15.8128 61.3825 16.0493 61.3226 16.2759 61.2726C16.532 61.2026 16.7882 61.1526 17.0443 61.0927C17.2906 61.0427 17.5271 60.9927 17.7537 60.9527C17.0739 60.8028 16.3842 60.5929 15.6453 60.373C15.4187 60.303 15.202 60.243 14.9754 60.1731C12.2266 59.3734 9.3202 59.4634 7.00493 60.403C6.37438 60.6529 5.72414 61.0427 4.91626 61.5624C4.83744 61.6024 4.73892 61.6024 4.66995 61.5525C4.61084 61.5025 4.59113 61.4325 4.59113 61.3725V61.3026C4.60099 61.2726 4.61084 61.2326 4.62069 61.2026C4.63054 61.1726 4.64039 61.1426 4.65025 61.1226C4.65025 61.0827 4.6601 61.0427 4.66995 61.0127C4.68965 60.9727 4.70936 60.9527 4.73892 60.9327H4.74877C5.55665 60.403 6.19704 60.0631 6.76847 59.8232C9.21182 58.8237 12.266 58.7337 15.133 59.5633L15.8719 59.7932C17.3695 60.223 18.6305 60.6029 19.9015 60.6029H19.9113C20.2167 60.6029 20.532 60.5729 20.8966 60.5229C20.936 60.5029 20.9655 60.4929 21.0049 60.4929C21.4384 60.403 21.8522 60.263 22.266 60.0631C22.9261 59.7433 23.3399 59.3035 23.734 58.7837C23.8621 58.6138 23.9901 58.4338 24.1182 58.2439C24.2857 58.004 24.4631 57.7541 24.67 57.4943C24.867 57.2344 25.1034 56.9745 25.3695 56.7046C25.9015 56.1648 26.601 55.6451 27.5862 55.1753C27.4975 55.1653 27.4089 55.1553 27.33 55.1453L27.2611 55.1353C27.1626 55.1253 27.0739 55.0953 26.9852 55.0953C26.9655 55.0853 26.9458 55.0853 26.9163 55.0753C26.7094 55.0553 26.5025 55.0254 26.3153 54.9754L26.1281 54.9454C25.8916 54.8954 25.6946 54.8554 25.5172 54.8055C25.1527 54.7155 24.8867 54.6455 24.7586 54.6055L24.7488 54.5955C24.7488 54.5955 24.6995 54.5855 24.6798 54.5855C24.4138 54.4956 23.6453 54.3956 22.67 54.3157C22.266 54.2857 21.8128 54.2557 21.3399 54.2257C19.0837 54.0958 16.2069 54.0658 14.936 54.3856C14.6305 54.4656 14.2956 54.5656 13.9409 54.6655L13.33 54.8454C12.601 55.0553 11.7833 55.3052 10.8966 55.5051C10.8079 55.5251 10.7291 55.5351 10.6207 55.5651C9.15271 55.885 7.95074 55.9749 6.81773 55.845L6.57143 55.815C6.34483 55.795 6.10837 55.745 5.88177 55.705L5.81281 55.6951C5.74384 55.6751 5.68473 55.6451 5.62562 55.6351C5.51724 55.6151 5.42857 55.5951 5.3399 55.5551C5.13301 55.5051 4.91626 55.4352 4.70936 55.3452C4.63054 55.3152 4.58128 55.2552 4.58128 55.1653C4.56158 55.1253 4.55172 55.0753 4.53202 55.0353C4.51232 54.9954 4.51232 54.9654 4.51232 54.9354C4.51232 54.9054 4.51232 54.8754 4.52217 54.8454C4.53202 54.8154 4.55172 54.7955 4.57143 54.7755C4.64039 54.7055 4.71921 54.6855 4.80788 54.7155C5.08374 54.8354 5.37931 54.9354 5.70443 55.0254C5.72414 55.0254 5.74384 55.0353 5.7537 55.0353L6.0197 55.0953C6.28571 55.1653 6.55172 55.2153 6.82759 55.2453H6.9064C7.96059 55.3452 9.14286 55.2553 10.532 54.9454C11.5172 54.7255 12.4926 54.4456 13.2315 54.2157C13.7438 54.0558 14.2956 53.9058 14.7882 53.7759C16.4926 53.3561 20.4335 53.486 22.6995 53.6859C22.7192 53.6859 22.7389 53.6859 22.7685 53.6959C23.7143 53.7759 24.5025 53.8759 24.8571 53.9758C24.867 53.9958 24.8867 53.9958 24.9261 54.0058C25.0739 54.0458 25.5665 54.1957 26.2266 54.3257C27.2118 54.5256 28.1281 54.6455 28.9261 54.6555C28.9557 54.6555 28.9754 54.6555 28.9951 54.6655H29.2808C29.33 54.6555 29.3596 54.6555 29.3793 54.6555C29.6749 54.6555 29.9901 54.6155 30.335 54.5756C30.335 54.5756 30.3415 54.5722 30.3547 54.5656C30.3547 54.5656 30.3645 54.5556 30.3744 54.5656C30.4138 54.5356 30.4631 54.5256 30.5025 54.5356H30.5222C31.1724 54.3956 31.6946 54.1657 32.0591 53.8859C32.069 53.8659 32.0887 53.8559 32.1084 53.8359C32.1182 53.8259 32.1478 53.8059 32.1773 53.7859C33.2118 52.8663 34.0098 51.5869 34.5123 50.6373C34.6601 50.3474 34.7882 50.0975 34.8867 49.8876C34.9852 49.6777 35.0542 49.5178 35.0936 49.4178L35.1035 49.4078C35.1035 49.4078 35.1133 49.3679 35.1133 49.3579L35.2315 49.058C35.2709 48.968 35.3596 48.9081 35.4581 48.9181C35.5074 48.9181 35.5468 48.9481 35.5862 48.978C35.6256 49.008 35.6453 49.058 35.6552 49.108L35.7044 49.4678C35.7143 49.5778 35.734 49.7177 35.7438 49.8976C35.7635 50.1775 35.7833 50.5273 35.7833 50.8972C35.7833 51.267 35.7734 51.6668 35.7241 52.0267C35.6749 52.3665 35.6059 52.6864 35.4877 52.9263C35.3695 53.1662 35.1429 53.476 34.8571 53.8659C34.7586 53.9958 34.6601 54.1357 34.5517 54.2757L34.4828 54.3457C33.9803 54.9954 33.3498 55.815 32.8177 56.6546C32.6897 56.8645 32.5616 57.0744 32.4434 57.2943C32.2069 57.7142 32.0197 58.134 31.9015 58.5438C31.8719 58.6437 31.8424 58.7437 31.8227 58.8437C31.803 58.9436 31.7931 59.0336 31.7833 59.1335C31.7635 59.3734 31.7438 59.6033 31.7241 59.8432C31.7143 60.0831 31.7044 60.333 31.6946 60.5829C31.665 61.0627 31.6453 61.5525 31.5862 62.0422C31.5665 62.2022 31.5468 62.3721 31.5271 62.532C31.4089 63.3117 31.2118 64.0813 30.8276 64.761C30.6305 65.1009 30.3941 65.4207 30.0887 65.7106C29.8818 65.9005 29.6552 66.0804 29.399 66.2404C27.6256 67.3899 25.6059 67.4098 24.1379 67.4298H24.0887C23.5369 67.4298 23.0739 67.4298 22.7488 67.4798C22.6305 67.4998 22.5123 67.5898 22.3744 67.7297C22.335 67.7697 22.3054 67.8097 22.266 67.8496C21.8916 68.2895 21.468 69.0791 21.064 69.8388C20.7882 70.3585 20.5123 70.8683 20.2365 71.3581C20.2956 71.2881 20.3645 71.2082 20.4335 71.1382C21.0246 70.5285 21.5468 69.9887 21.9409 69.7988C22.9557 69.329 23.5665 69.269 24.67 69.5489C25.7635 69.8188 28.3547 69.9287 29.1921 69.389C29.2611 69.349 29.3399 69.279 29.4187 69.209C29.4975 69.1291 29.5862 69.0391 29.6749 68.9292C29.7734 68.8192 29.8719 68.6993 29.9803 68.5593C30.1379 68.3494 30.3153 68.0995 30.5025 67.8297C30.6897 67.5598 30.8867 67.2599 31.0936 66.9301C31.2315 66.7102 31.3695 66.4803 31.5172 66.2304C31.665 65.9905 31.8227 65.7306 31.9704 65.4707L32.0099 65.4007C32.0296 65.3408 32.069 65.3008 32.1281 65.2708C32.1478 65.2708 32.1576 65.2608 32.197 65.2608C32.2069 65.2508 32.266 65.2408 32.2956 65.2308C32.3153 65.2108 32.335 65.2008 32.3645 65.1908C32.6207 65.0709 33.3202 64.7011 34.0591 63.7415C34.2069 63.5616 34.3153 63.3417 34.4138 63.0718C34.5813 62.582 34.6798 61.9823 34.7389 61.3126C34.7586 61.1126 34.7783 60.9027 34.7882 60.6828C34.8079 60.4729 34.8177 60.243 34.8276 60.0131C34.8424 59.7233 34.8571 59.4084 34.867 59.1335C34.8867 58.7437 34.9261 58.3589 34.9803 57.974C35.0049 57.8041 35.0296 57.6342 35.064 57.4743C35.133 57.0944 35.2315 56.6546 35.3399 56.1648C35.3793 56.0049 35.4187 55.835 35.4581 55.6551L35.5764 55.1353C35.6847 54.6555 35.803 54.1457 35.9212 53.616C36.2167 52.2866 36.4926 50.8572 36.6207 49.6278C36.6502 49.3779 36.67 49.138 36.6798 48.9081C36.6897 48.5782 36.6995 48.2783 36.6798 47.9985C36.6897 47.8985 36.6798 47.7986 36.67 47.6986C36.6502 47.5487 36.6305 47.3987 36.5911 47.2588C36.5616 47.1189 36.532 46.9789 36.4828 46.839C36.3941 46.5691 36.2759 46.3192 36.1281 46.0793C35.8916 45.6895 35.5862 45.3497 35.2118 45.0698C35.0049 44.9198 34.8079 44.7999 34.601 44.7099C33.931 44.3901 33.202 44.3001 32.5025 44.4401C32.2463 44.5 32.0493 44.58 31.8719 44.6999C31.734 44.7799 31.6256 44.8699 31.5172 44.9798C31.3596 45.1397 31.2414 45.3197 31.1429 45.5096C31.0542 45.6995 30.9852 45.8894 30.936 46.0793C30.8374 46.4891 30.8276 46.849 30.8276 46.9789L30.8374 47.3188V47.3288C30.8374 47.3288 30.8374 47.3787 30.8276 47.3987C30.8079 47.4387 30.7882 47.4787 30.7488 47.5087C30.7291 47.5187 30.6995 47.5287 30.67 47.5387C30.5813 47.5687 30.4729 47.5287 30.4335 47.4387L30.266 47.1788C30.266 47.1788 29.9704 46.719 29.7044 46.0793C29.5074 45.6195 29.33 45.0698 29.2808 44.52C29.2512 44.1702 29.2709 43.8703 29.3596 43.6104C29.4286 43.3805 29.5369 43.1906 29.6946 43.0107C30.532 42.0711 32.0985 41.5913 33.2906 41.5313C33.6552 41.5114 33.9704 41.5214 34.2365 41.5913C34.2562 41.5913 34.3054 41.5913 34.3251 41.6013C34.3547 41.6113 34.4039 41.6313 34.4236 41.6513C34.4433 41.6613 34.4532 41.6813 34.4828 41.6913C34.5517 41.7712 34.5714 41.8512 34.5714 41.9112C34.5714 41.9412 34.5714 41.9612 34.5616 41.9811C34.5517 42.0211 34.532 42.0711 34.5025 42.1011C34.4828 42.1311 34.4532 42.1611 34.4138 42.1811C34.3448 42.211 34.2562 42.241 34.1773 42.211C34.1675 42.211 34.1576 42.211 34.1576 42.2011H34.1281C33.1921 41.9712 31.0542 42.391 30.1576 43.4305C30.1084 43.4905 30.069 43.5505 30.0394 43.6104C29.9803 43.7104 29.9409 43.8203 29.9212 43.9303C29.8818 44.1202 29.8916 44.3201 29.9015 44.48C29.9113 44.61 29.931 44.7399 29.9606 44.8699C30.0197 45.1198 30.1084 45.3796 30.197 45.6295C30.2463 45.7495 30.2956 45.8694 30.3448 45.9794C30.5222 45.2697 30.8473 44.6999 31.3005 44.3301C31.6059 44.0802 31.9606 43.9203 32.3744 43.8303C33.3202 43.6204 34.3251 43.7903 35.1823 44.3101C35.33 44.3901 35.4581 44.48 35.5567 44.55C35.6946 44.65 35.8227 44.7599 35.9507 44.8799C36.069 44.9898 36.1872 45.1098 36.2956 45.2397C36.3941 45.3696 36.4926 45.4996 36.5911 45.6395C36.6798 45.7795 36.7685 45.9294 36.8374 46.0793C36.8966 46.1993 36.9458 46.3192 36.9951 46.4392C37.0936 46.6891 37.1724 46.9489 37.2217 47.2188C37.2512 47.3488 37.2709 47.4887 37.2808 47.6286C37.3202 48.0185 37.3301 48.4383 37.3005 48.9081C37.2709 49.3779 37.2217 49.8876 37.1429 50.4174C36.9163 52.0067 36.5123 53.7959 36.1576 55.3452C35.931 56.2848 35.7734 57.0245 35.6749 57.5842C35.5271 58.3639 35.4877 59.2335 35.4384 60.1031L35.4286 60.213C35.4089 60.5929 35.3892 60.9627 35.3596 61.3226C35.33 61.6824 35.2906 62.0322 35.2315 62.3621C35.4187 62.2022 35.6355 62.0222 35.8621 61.8123C35.9704 61.7124 36.0887 61.6024 36.2069 61.4925C36.2463 61.4625 36.2857 61.4225 36.3251 61.3825V61.3725C36.8571 60.8528 37.3695 60.273 37.6453 59.7333C37.7734 59.4734 37.9507 59.1235 38.1379 58.6937C38.0985 58.2239 38.0887 57.7541 38.0887 57.2943C38.0887 57.2943 38.0887 57.2843 38.0985 57.2843C38.0985 56.3448 38.2167 55.4152 38.4729 54.5955C38.4729 54.5756 38.4828 54.5556 38.4926 54.5356C38.8867 53.4261 39.4286 52.5265 40.1478 51.8068C40.1773 51.7768 40.2069 51.7468 40.2365 51.7268C40.2365 51.7168 40.2463 51.7168 40.2463 51.7168C40.2167 51.337 40.0197 50.2875 39.9803 50.1375C39.9113 49.8077 39.5665 48.6382 39.4877 48.3783C39.468 48.3083 39.2217 47.3588 39.1921 47.2588C39.0246 46.4042 39.0296 44.585 38.867 43.6904C38.7734 43.2956 38.5517 42.8608 38.4138 42.6209C38 41.9212 37.4384 41.1915 36.6207 40.3819C35.9803 39.7421 35.2217 39.3123 34.4335 39.0225C33.5567 38.8126 32.6404 38.7426 31.7734 38.7626H31.7635C31.6749 38.7726 31.1232 38.7926 30.9458 38.8126H30.9163C29.9901 38.8126 29.0887 39.0874 28.2906 39.5722C27.9507 39.7771 27.5172 40.002 27.0837 40.3419C26.9557 40.4318 26.8276 40.5318 26.7094 40.6417C26.5813 40.7417 26.4631 40.8616 26.3448 40.9716C26.2365 41.0816 26 41.3414 25.9901 41.3514C25.8916 41.4714 25.7931 41.6013 25.6847 41.7413C25.6749 41.7512 25.4975 42.0411 25.4089 42.1911C25.399 42.2011 25.2414 42.5309 25.1724 42.7008C25.1626 42.7308 25.1429 42.7508 25.1232 42.7808C25.0345 42.8708 24.8966 42.9207 24.7586 42.8608C24.6404 42.8108 24.5714 42.7008 24.5714 42.5709C24.5714 42.5409 24.5813 42.4809 24.5911 42.4509C24.8374 41.8512 25.1232 41.3514 25.4286 40.9416C25.5369 40.8017 25.6355 40.6717 25.7438 40.5618C25.8522 40.4318 25.9704 40.3219 26.0788 40.2219C26.4138 39.9121 26.7488 39.6722 27.0936 39.4823C26.532 39.5522 25.3202 39.8121 24.9557 39.7421C24.0887 39.5822 23.4483 39.1424 22.9754 38.6626C22.6404 38.3328 22.3941 37.9729 22.2365 37.7031C22.1675 37.5931 22.0099 37.2932 21.9901 37.2632C21.7537 36.9134 21.6256 36.6935 21.33 36.6735C20.7192 36.6435 19.4286 38.2628 19.2217 38.3828C18.8867 38.5927 18.4532 38.8026 18.2857 38.5527C16.8867 36.6735 16.2956 38.5527 16.3054 38.5627C16.2956 38.5627 16.2069 38.2828 16.0394 38.0129C16 37.9429 15.9507 37.883 15.9015 37.813C15.734 37.6031 15.5074 37.4332 15.2315 37.4732C15.064 37.4931 14.936 37.5631 14.8276 37.6631C14.7192 37.763 14.6404 37.893 14.5714 38.0429C14.3547 38.5027 14.266 39.1024 13.803 39.1324C13.4286 39.1624 13.2808 39.0125 13.1921 38.9925C12.7783 38.8425 12.1478 38.8625 11.6059 39.1824C11.4975 39.2524 11.3892 39.3223 11.2906 39.4123C11.2414 39.4523 11.0542 39.6722 11.0148 39.7321C10.6897 40.1919 10.5123 40.8916 10.6502 41.8712C10.6601 42.0111 11.2315 44.3401 11.2709 44.51L11.3005 46.0793H0V53.4461C0 53.4461 0 53.461 0 53.466V82.918C0 86.8062 3.10837 89.9598 6.94089 89.9598H43.2512V80.474C42.9852 80.534 42.2365 80.624 41.9803 80.624Z" fill="#FFC222"/>
</svg>
